<svg width="24" height="24" viewBox="0 0 24 24" fill="none" xmlns="http://www.w3.org/2000/svg">
<path d="M21 9.011C21 12.0001 20.0868 21 16.1774 21C14.1321 21 12.8338 17.3802 11.9999 12.0001C11.1661 6.61994 9.86786 3 7.82263 3C3.91318 3 3 12.0001 3 14.989" stroke="white" stroke-width="1.5" stroke-linecap="round"/>
<path d="M2 11.9999H5" stroke="white" stroke-width="1.5" stroke-linecap="round" stroke-linejoin="round"/>
<path d="M8 12H10" stroke="white" stroke-width="1.5" stroke-linecap="round" stroke-linejoin="round"/>
<path d="M14 12H16" stroke="white" stroke-width="1.5" stroke-linecap="round" stroke-linejoin="round"/>
<path d="M19 12H22" stroke="white" stroke-width="1.5" stroke-linecap="round" stroke-linejoin="round"/>
<path d="M2.506 20.146H3.418L3.322 19.768C3.202 19.324 3.088 18.79 2.968 18.334H2.944C2.836 18.802 2.716 19.324 2.602 19.768L2.506 20.146ZM3.88 22L3.622 20.974H2.302L2.044 22H0.952L2.338 17.536H3.622L5.008 22H3.88ZM6.61694 22.084C5.76494 22.084 5.21894 21.406 5.21894 20.296C5.21894 19.174 5.92094 18.502 6.62894 18.502C7.00694 18.502 7.22894 18.64 7.45094 18.856L7.40894 18.346V17.206H8.48294V22H7.61294L7.53494 21.67H7.51094C7.27094 21.91 6.94094 22.084 6.61694 22.084ZM6.89894 21.208C7.10294 21.208 7.26494 21.142 7.40894 20.92V19.576C7.24694 19.426 7.06094 19.372 6.88094 19.372C6.58694 19.372 6.31694 19.648 6.31694 20.278C6.31694 20.932 6.53294 21.208 6.89894 21.208ZM9.16216 23.326C8.86816 23.326 8.69416 23.284 8.55016 23.23L8.73616 22.444C8.82616 22.474 8.91016 22.492 8.99416 22.492C9.25816 22.492 9.34816 22.33 9.34816 21.958V18.586H10.4222V21.922C10.4222 22.678 10.1222 23.326 9.16216 23.326ZM9.88816 18.112C9.52816 18.112 9.27016 17.884 9.27016 17.566C9.27016 17.242 9.52816 17.014 9.88816 17.014C10.2362 17.014 10.4942 17.242 10.4942 17.566C10.4942 17.884 10.2362 18.112 9.88816 18.112Z" fill="white"/>
</svg>
