<svg width="24" height="24" viewBox="0 0 24 24" fill="none" xmlns="http://www.w3.org/2000/svg">
<path d="M8 6C5.17157 6 3.75736 6 2.87868 6.87868C2 7.75736 2 9.17157 2 12C2 14.8284 2 16.2426 2.87868 17.1213C3.44798 17.6906 4.24209 17.8911 5.5 17.9616M12 17.9827L13 18C15.8284 18 17.2426 18 18.1213 17.1213C19 16.2426 19 14.8284 19 12C19 9.17157 19 7.75736 18.1213 6.87868C17.414 6.17137 16.3597 6.03342 14.5 6.00652" stroke="white" stroke-width="1.5" stroke-linecap="round"/>
<path d="M19 9.5L20.0272 9.6712C20.7085 9.78475 21.0491 9.84152 21.3076 10.0067C21.5618 10.1691 21.7612 10.4044 21.8796 10.6819C22 10.964 22 11.3093 22 12C22 12.6907 22 13.036 21.8796 13.3181C21.7612 13.5956 21.5618 13.8309 21.3076 13.9933C21.0491 14.1585 20.7085 14.2153 20.0272 14.3288L19 14.5" stroke="white" stroke-width="1.5" stroke-linecap="round"/>
<path d="M9.07381 15.7801L10.1077 13.751M10.1077 13.751C9.9995 13.6958 9.89514 13.6331 9.79554 13.5631C9.35561 13.2541 9.00852 12.8051 8.82962 12.2544C8.3908 10.9037 9.13001 9.45308 10.4807 9.01427C11.8313 8.57546 13.282 9.31466 13.7208 10.6653C14.1596 12.016 13.4204 13.4667 12.0698 13.9055C11.3944 14.1249 10.6941 14.0498 10.1077 13.751Z" stroke="white" stroke-width="1.5" stroke-linecap="round"/>
</svg>
