<svg width="90" height="90" viewBox="0 0 90 90" fill="none" xmlns="http://www.w3.org/2000/svg">
<path d="M1.11111 45V78.1033L11.8967 88.8889H78.1033L88.8889 78.1033V70H90V78.5634L78.5634 90H11.4366L0 78.5634V45H1.11111ZM78.5634 0L90 11.4366V45H88.8889V11.8967L78.1033 1.11111H11.8967L1.11111 11.8967V20H0V11.4366L11.4366 0H78.5634Z" fill="#666666"/>
<path d="M9.67448 0L0 9.67448V0H9.67448ZM1.11111 6.99219L6.99219 1.11111H1.11111V6.99219Z" fill="#666666"/>
<path d="M80.3255 0L90 9.67448V0H80.3255ZM88.8889 6.99219L83.0078 1.11111H88.8889V6.99219Z" fill="#666666"/>
<path d="M80.3255 90L90 80.3255V90H80.3255ZM88.8889 83.0078L83.0078 88.8889H88.8889V83.0078Z" fill="#666666"/>
<path d="M9.67448 90L0 80.3255V90H9.67448ZM1.11111 83.0078L6.99219 88.8889H1.11111V83.0078Z" fill="#666666"/>
<path d="M3.33325 25.5557H4.44436V61.6668H3.33325V25.5557Z" fill="#666666"/>
<path d="M85.5554 25.5557H86.6665V61.6668H85.5554V25.5557Z" fill="#666666"/>
<path d="M4.44436 76.1113V77.548L12.4522 85.5558H19.1666V86.6669H11.9921L3.33325 78.008V76.1113H4.44436Z" fill="#666666"/>
<path d="M85.5556 13.8887V12.458L77.2755 4.44423H70.5556V3.33312H77.7247L86.6667 11.9865V13.8887H85.5556Z" fill="#666666"/>
<path d="M67.2223 3.3335H68.3334V4.44461H67.2223V3.3335Z" fill="#666666"/>
<path d="M26.1112 3.3335H65.0001V4.44461H26.1112V3.3335Z" fill="#666666"/>
<path d="M23.8889 85.5557H62.7778V86.6668H23.8889V85.5557Z" fill="#666666"/>
<path d="M63.8888 85.5557H64.9999V86.6668H63.8888V85.5557Z" fill="#666666"/>
<path d="M66.1111 85.5557H67.2222V86.6668H66.1111V85.5557Z" fill="#666666"/>
<path d="M68.3333 85.5557H69.4444V86.6668H68.3333V85.5557Z" fill="#666666"/>
<path d="M70.5555 85.5557H71.6667V86.6668H70.5555V85.5557Z" fill="#666666"/>
<path d="M72.7778 85.5557H73.8889V86.6668H72.7778V85.5557Z" fill="#666666"/>
<path d="M23.8889 3.88905C23.8889 3.58223 24.1376 3.3335 24.4445 3.3335C24.7513 3.3335 25 3.58223 25 3.88905C25 4.19588 24.7513 4.44461 24.4445 4.44461C24.1376 4.44461 23.8889 4.19588 23.8889 3.88905Z" fill="#666666"/>
</svg>
