<svg width="160" height="160" viewBox="0 0 160 160" fill="none" xmlns="http://www.w3.org/2000/svg">
<path d="M1.97531 80V138.85L21.1497 158.025H138.85L158.025 138.85V124.444H160V139.668L139.668 160H20.3318L0 139.668V80H1.97531ZM139.668 0L160 20.3318V80H158.025V21.1497L138.85 1.97531H21.1497L1.97531 21.1497V35.5556H0V20.3318L20.3318 0H139.668Z" fill="#666666"/>
<path d="M17.1991 0L0 17.1991V0H17.1991ZM1.97531 12.4306L12.4306 1.97531H1.97531V12.4306Z" fill="#B3B3B3"/>
<path d="M142.801 0L160 17.1991V0H142.801ZM158.025 12.4306L147.569 1.97531H158.025V12.4306Z" fill="#B3B3B3"/>
<path d="M142.801 160L160 142.801V160H142.801ZM158.025 147.569L147.569 158.025H158.025V147.569Z" fill="#B3B3B3"/>
<path d="M17.1991 160L0 142.801V160H17.1991ZM1.97531 147.569L12.4306 158.025H1.97531V147.569Z" fill="#B3B3B3"/>
<path d="M5.9259 45.4321H7.90121V109.63H5.9259V45.4321Z" fill="#B3B3B3"/>
<path d="M152.099 45.4321H154.074V109.63H152.099V45.4321Z" fill="#B3B3B3"/>
<path d="M7.90121 135.309V137.863L22.1373 152.099H34.0741V154.074H21.3194L5.9259 138.681V135.309H7.90121Z" fill="#666666"/>
<path d="M152.099 24.6914V22.148L137.378 7.90128H125.432V5.92597H138.177L154.074 21.3098V24.6914H152.099Z" fill="#666666"/>
<path d="M119.506 5.92578H121.482V7.90109H119.506V5.92578Z" fill="#B3B3B3"/>
<path d="M46.4198 5.92578H115.556V7.90109H46.4198V5.92578Z" fill="#B3B3B3"/>
<path d="M42.4691 152.099H111.605V154.074H42.4691V152.099Z" fill="#B3B3B3"/>
<path d="M113.58 152.099H115.556V154.074H113.58V152.099Z" fill="#B3B3B3"/>
<path d="M117.531 152.099H119.506V154.074H117.531V152.099Z" fill="#B3B3B3"/>
<path d="M121.481 152.099H123.457V154.074H121.481V152.099Z" fill="#B3B3B3"/>
<path d="M125.432 152.099H127.407V154.074H125.432V152.099Z" fill="#B3B3B3"/>
<path d="M129.383 152.099H131.358V154.074H129.383V152.099Z" fill="#B3B3B3"/>
<path d="M42.4691 6.91344C42.4691 6.36797 42.9113 5.92578 43.4568 5.92578C44.0022 5.92578 44.4444 6.36797 44.4444 6.91344C44.4444 7.4589 44.0022 7.90109 43.4568 7.90109C42.9113 7.90109 42.4691 7.4589 42.4691 6.91344Z" fill="#B3B3B3"/>
</svg>
