<svg width="74" height="79" viewBox="0 0 74 79" fill="none" xmlns="http://www.w3.org/2000/svg">
<rect x="1" y="1" width="54" height="54" rx="9" fill="#09FBD3" fill-opacity="0.2" stroke="#09FBD3" stroke-width="2"/>
<path d="M25.0554 33H23.0254L27.0434 22.752H28.8214L32.9654 33H30.8094L29.9134 30.662H25.9234L25.0554 33ZM29.2554 28.926L27.8834 25.328L26.5534 28.926H29.2554Z" fill="#09FBD3"/>
<path d="M52.4735 65.5456C48.3266 66.2392 42.9621 63.5171 40.0624 61.7827C38.8104 61.0338 38.3514 59.491 38.8823 58.1322C39.4741 56.6177 41.1099 55.7902 42.6806 56.2111L44.4751 56.6919L39.6834 48.3925C39.1082 47.3961 39.4496 46.1219 40.446 45.5466C41.4424 44.9713 42.7166 45.3128 43.2919 46.3092L45.7919 50.6393C45.2166 49.6429 45.558 48.3687 46.5544 47.7934C47.5509 47.2181 48.825 47.5595 49.4003 48.556L50.2337 49.9994C49.6584 49.0029 49.9998 47.7288 50.9962 47.1535C51.9926 46.5782 53.2668 46.9196 53.8421 47.916L54.6754 49.3594C54.1001 48.363 54.4416 47.0888 55.438 46.5135C56.4344 45.9382 57.7086 46.2796 58.2839 47.2761L61.5622 52.9543C62.0082 53.7267 62.2579 54.6003 62.1772 55.4886C62.0431 56.9624 61.6368 59.3252 60.4121 60.9622C58.5112 63.5031 56.3083 64.9041 52.4735 65.5456Z" fill="white" stroke="white" stroke-width="2" stroke-linecap="round" stroke-linejoin="round"/>
<path d="M44.6089 40.2567C42.7679 37.0681 38.6907 35.9756 35.502 37.8166C32.3134 39.6575 31.2209 43.7348 33.0618 46.9234C33.3496 47.4218 33.692 47.869 34.077 48.2618M34.077 48.2618C34.2836 48.4724 34.5023 48.6673 34.7315 48.8462L34.077 48.2618Z" stroke="white" stroke-width="2" stroke-linecap="round" stroke-linejoin="round"/>
</svg>
