<svg width="24" height="24" viewBox="0 0 24 24" fill="none" xmlns="http://www.w3.org/2000/svg">
<path d="M12.5 9H4.65856C3.65277 9 3.14987 9 3.02472 8.69134C2.89957 8.38268 3.25517 8.01942 3.96637 7.29289L6.21091 5" stroke="white" stroke-width="1.5" stroke-linecap="round" stroke-linejoin="round"/>
<path d="M3 15H15.3414C16.3472 15 16.8501 15 16.9753 15.3087C17.1004 15.6173 16.7448 15.9806 16.0336 16.7071L13.7891 19" stroke="white" stroke-width="1.5" stroke-linecap="round" stroke-linejoin="round"/>
<g clip-path="url(#clip0_1283_6580)">
<path d="M21.3332 8.99996C21.3332 7.15901 19.8408 5.66663 17.9998 5.66663C16.1589 5.66663 14.6665 7.15901 14.6665 8.99996C14.6665 10.8409 16.1589 12.3333 17.9998 12.3333C18.2804 12.3333 18.6665 12.3721 18.6665 12C18.6665 11.797 18.5609 11.6403 18.456 11.4848C18.3026 11.2571 18.1506 11.0317 18.3332 10.6666C18.5554 10.2222 18.9258 10.2222 19.4937 10.2222C19.7776 10.2222 20.111 10.2222 20.4998 10.1666C21.2002 10.0666 21.3332 9.63609 21.3332 8.99996Z" stroke="white" stroke-width="0.75"/>
<path d="M16.3335 10.0009L16.3364 10.0001" stroke="white" stroke-width="0.666667" stroke-linecap="round" stroke-linejoin="round"/>
<circle cx="17.1665" cy="7.83337" r="0.5" stroke="white" stroke-width="0.5"/>
<circle cx="19.5" cy="8.16663" r="0.5" stroke="white" stroke-width="0.5"/>
</g>
<defs>
<clipPath id="clip0_1283_6580">
<rect width="8" height="8" fill="white" transform="translate(14 5)"/>
</clipPath>
</defs>
</svg>
