<svg width="24" height="24" viewBox="0 0 24 24" fill="none" xmlns="http://www.w3.org/2000/svg">
<path d="M3 3.5H9" stroke="white" stroke-width="1.5" stroke-linecap="round" stroke-linejoin="round"/>
<path d="M3 9.5H9" stroke="white" stroke-width="1.5" stroke-linecap="round" stroke-linejoin="round"/>
<path d="M3 15.5H21" stroke="white" stroke-width="1.5" stroke-linecap="round" stroke-linejoin="round"/>
<path d="M3 21.5H21" stroke="white" stroke-width="1.5" stroke-linecap="round" stroke-linejoin="round"/>
<path d="M14.42 10V8.98C16.28 7.29 17.53 5.94 17.53 4.86C17.53 4.18 17.15 3.81 16.56 3.81C16.05 3.81 15.65 4.15 15.3 4.53L14.33 3.57C15.06 2.8 15.74 2.42 16.8 2.42C18.24 2.42 19.24 3.34 19.24 4.76C19.24 6.04 18.14 7.45 17 8.6C17.37 8.55 17.88 8.5 18.21 8.5H19.58V10H14.42Z" fill="white"/>
</svg>
