<svg xmlns="http://www.w3.org/2000/svg" xmlns:xlink="http://www.w3.org/1999/xlink" viewBox="0,0,256,256" width="50px" height="50px" fill-rule="nonzero"><g fill="#ffffff" fill-rule="nonzero" stroke="none" stroke-width="1" stroke-linecap="butt" stroke-linejoin="miter" stroke-miterlimit="10" stroke-dasharray="" stroke-dashoffset="0" font-family="none" font-weight="none" font-size="none" text-anchor="none" style="mix-blend-mode: normal"><g transform="scale(5.12,5.12)"><path d="M27.63477,4.04102c-0.28405,-0.04639 -0.60043,0.03063 -0.9082,0.07227c-0.12337,-0.02275 -0.24992,-0.02209 -0.37305,0.00195c-0.02656,0.00478 -0.04208,0.02785 -0.06836,0.0332c-0.02843,0.00883 -0.0535,-0.004 -0.08203,0.00586c-0.12984,0.04296 -0.2495,0.11209 -0.35156,0.20313c-1.03007,0.37055 -1.85337,1.10366 -2.26953,2.03516c-0.2849,0.63769 -0.36785,1.3427 -0.32422,2.04883c-0.31101,0.02146 -0.62186,0.05742 -0.82227,0.10547c-0.02901,0.00718 -0.05769,0.01565 -0.08594,0.02539c-1.48287,0.50021 -2.33554,1.79288 -2.76562,3.01563c-0.41689,1.13192 -0.43135,2.26461 -0.35742,3.34766c-0.24116,0.01042 -0.51196,0.007 -0.87891,0.13476c-0.3891,0.13579 -0.65507,0.49636 -0.66992,0.9082c-0.03631,0.99803 -0.10129,1.96824 -0.26562,2.90039c-0.00219,0.01233 -0.00414,0.0247 -0.00586,0.03711c-0.03548,0.25697 -0.17352,0.76233 0.0625,1.38672c0.06437,0.1683 0.17302,0.31609 0.31445,0.42773c-0.11298,1.30529 0.13692,2.34023 0.21289,3.27539c-0.18929,0.18477 -0.36753,0.3846 -0.43164,0.55273c-0.17045,0.447 -0.16791,0.78067 -0.18164,0.84766c-0.04177,0.20444 -0.01856,0.41683 0.06641,0.60742c-0.04761,0.17464 -0.04694,0.35892 0.00195,0.5332c0.0015,0.0053 0.0114,0.16674 0.05469,0.46289c0.0162,0.11086 0.17237,0.27808 0.22656,0.42773c-0.16781,1.03598 -0.35944,2.09622 -0.47461,3.19922c-0.05588,0.4354 0.04104,0.73044 0.07031,0.87891c0.01169,0.05929 0.01078,0.07049 0.01172,0.07813c-0.03491,0.09809 -0.27183,0.49834 -0.44922,1.00391c-0.49876,0.59283 -0.83227,1.22997 -1.08008,1.70117c-0.40982,0.73554 -0.35361,1.31111 -0.39258,1.66602c-0.25782,0.40335 -0.78805,1.02552 -0.77344,2.03711c-0.0037,0.11155 -0.02791,0.30798 0.00391,0.60547c0.01086,0.1015 0.13699,0.23238 0.17578,0.35547c-0.21286,1.05708 -0.53813,2.13835 -0.81055,3.30078c-0.00996,0.04245 -0.01714,0.08551 -0.02148,0.12891c-0.04659,0.47537 -0.13134,1.17209 0.23828,1.9043c0.1258,0.2496 0.35032,0.43516 0.61914,0.51172c1.1532,0.32856 2.21807,0.16388 3.09375,0.0957c0.46368,-0.03555 0.84168,-0.38602 0.91211,-0.8457c0.06563,-0.43034 0.09174,-1.00839 -0.1543,-1.5918c-0.22502,-0.80216 -0.003,-1.79462 0.4668,-2.64648c0.16807,-0.13593 0.42283,-0.20543 0.51953,-0.35547c0.22368,-0.34707 0.30991,-0.66766 0.37695,-0.91016c0.00065,-0.0013 0.0013,-0.0026 0.00195,-0.00391c0.19485,-0.71348 0.8436,-1.55573 1.10547,-2.83008c0.0038,-0.01878 0.00705,-0.03767 0.00977,-0.05664c0.05851,-0.40177 -0.02509,-0.65967 -0.04492,-0.77344c0.14971,-0.33295 0.21744,-0.45049 0.12891,-0.39258c0.52631,-0.34382 0.72706,-0.80298 0.86523,-1.14453c0.09811,-0.06378 0.39009,-0.20486 0.62305,-0.61133c0.25993,-0.45247 0.29514,-0.87471 0.32617,-1.14844c0.03103,-0.27373 0.06084,-0.40689 0.07617,-0.4375c0.00967,-0.01795 0.01879,-0.03618 0.02734,-0.05469c0.33912,-0.79591 0.51017,-1.32568 0.76953,-1.66211c0.02486,0.01344 0.05027,0.02582 0.07617,0.03711c0.2752,0.11897 0.35882,0.07476 0.54297,0.08594c0.54096,0.79483 1.07742,1.59381 1.61719,2.39648l-0.02344,-0.03906c0.35923,0.58908 0.92013,0.78426 1.49805,0.82422c-0.01801,0.16398 -0.03393,0.32798 -0.04883,0.50586c-0.26156,0.37195 -0.4693,0.82406 -0.36328,1.39063l-0.01172,-0.07031c0.07925,0.6878 0.14406,1.38148 0.19727,2.07813c0.00249,0.03076 0.0064,0.06139 0.01172,0.0918c0.12209,0.71193 0.28534,1.05221 0.27344,1.17773c-0.02681,0.29216 0.07601,0.58136 0.28125,0.79102c0.02386,0.63659 0.08943,1.2496 0.04883,1.63281c-0.37006,0.84932 -0.39671,1.62695 -0.5332,2.14648c-0.08289,0.31746 -0.0048,0.6554 0.20898,0.9043c0.45468,0.52945 1.1548,0.67184 1.59961,0.66406c0.42708,-0.0075 0.71842,-0.06251 0.8457,-0.06445c0.32067,0.054 0.91288,0.41927 1.89453,0.36719c0.73107,-0.0081 1.58883,0.07542 2.55078,-0.10156c0.40823,-0.07507 0.72766,-0.3945 0.80273,-0.80273c0.06634,-0.36049 0.12444,-0.86764 -0.0957,-1.41211c-0.07699,-0.19159 -0.2114,-0.35465 -0.38477,-0.4668c-0.44817,-0.28898 -0.93257,-0.50828 -1.43555,-0.6582c-0.01359,-0.0042 -0.02726,-0.0081 -0.04102,-0.01172c0.04115,0.01033 -0.12114,-0.15229 -0.45508,-0.50586c-0.3415,-0.44357 -0.48681,-0.61988 -0.48242,-0.57812c0,-0.0013 0,-0.0026 0,-0.00391c-0.05419,-0.49869 -0.03218,-1.06753 -0.01367,-1.67187c0.08545,-0.11188 0.24804,-0.36056 0.26563,-0.9043c0.06067,-0.44783 0.0271,-0.86142 -0.01953,-1.11914c-0.05428,-0.3 -0.06199,-0.44992 -0.05078,-0.50195c0.00376,-0.01814 0.00702,-0.03637 0.00977,-0.05469c0.21252,-1.34831 0.38895,-2.74991 0.34375,-4.19727c-0.00596,-0.19549 -0.06911,-0.38495 -0.18164,-0.54492c-0.02111,-0.03003 -0.03837,-0.05521 -0.05859,-0.08398c-0.0139,-0.13457 -0.02704,-0.26989 -0.04102,-0.40234c-0.03548,-0.33863 -0.2408,-0.63595 -0.54492,-0.78906h-0.00195c-0.38472,-1.0536 -0.81124,-2.09152 -1.29687,-3.10156c-0.00563,-0.01183 -0.01149,-0.02355 -0.01758,-0.03516c-0.485,-0.91622 -1.11356,-1.71228 -1.76758,-2.46094c0.26501,-0.05727 0.56561,-0.19794 0.75781,-0.41602c0.03137,-0.0363 0.06009,-0.07481 0.08594,-0.11523c0.35027,-0.53544 0.71514,-1.24692 0.66797,-2.12109v0.05078c-0.0029,-0.67634 0.18459,-1.60763 0.10938,-2.6582c0.54742,0.24006 1.11983,0.46631 1.78906,0.53125c0.67021,0.08877 1.27838,-0.21743 1.60742,-0.47852c0.33304,-0.26426 0.52887,-0.46363 0.60156,-0.50586c0.02678,-0.01507 0.05285,-0.03136 0.07813,-0.04883c0.62701,-0.44642 0.85057,-1.13552 0.94531,-1.60937c0.05515,-0.27584 0.0803,-0.38186 0.11328,-0.55469c0.02116,-0.0061 0.03915,-0.01144 0.06055,-0.01758c0.48574,-0.13979 0.79082,-0.62004 0.71094,-1.11914c-0.10657,-0.66999 -0.21163,-1.06355 -0.25977,-1.43945c0.2023,-0.1619 0.36099,-0.40413 0.54102,-0.67774c0.0096,-0.0048 0.01969,-0.0088 0.0293,-0.01367c0.96303,-0.0098 1.94192,0.00549 2.94727,-0.00781l-0.06445,-0.00195c0.2844,0.0148 0.71887,-0.12863 0.94727,-0.39062c0.03658,-0.04196 0.01943,-0.06134 0.04688,-0.10156c0.15545,-0.01176 0.32331,0.10275 0.4668,0.0625c0.01377,-0.00426 0.02744,-0.00882 0.04102,-0.01367c0.19422,-0.0636 0.62784,-0.0268 1.23828,-0.04883h0.0293c0.2236,0.0046 0.37723,-0.00475 0.4375,-0.00195c0.21513,0.14922 0.4802,0.20812 0.73828,0.16406c0.3135,-0.05427 0.69752,-0.05392 1.14648,-0.04687c0.54411,0.00772 0.99454,-0.42101 1.01367,-0.96484c0.006,-0.17887 0.01267,-0.35582 0.01953,-0.53125c0.01062,-0.27225 -0.0903,-0.53704 -0.27942,-0.73317c-0.18912,-0.19613 -0.45007,-0.3066 -0.72253,-0.30589c-0.28004,0.00081 -0.56461,0.00495 -0.84961,0.00977c-0.04597,-0.01795 -0.09458,-0.03747 -0.13867,-0.05469c-0.30656,-0.11884 -0.65194,-0.07941 -0.92383,0.10547c-0.36932,0.01794 -0.7909,0.01377 -1.20508,0.00781c-0.06899,-0.15676 -0.03831,-0.30494 -0.16992,-0.42773c-0.03385,-0.03041 -0.06975,-0.05847 -0.10742,-0.08398c-0.0007,-0.15052 -0.00115,-0.29947 -0.00195,-0.45117c-0.00156,-0.26692 -0.10975,-0.52214 -0.30051,-0.70886c-0.19075,-0.18672 -0.44823,-0.28943 -0.71512,-0.28528c-0.0876,0.00129 -0.21537,0.00407 -0.30273,0.00781c-0.53617,0.02311 -0.95852,0.46529 -0.95703,1.00195c0.00008,0.03844 -0.00003,0.07863 0,0.11719c-2.28423,-0.01485 -4.55973,-0.00378 -6.82812,-0.01172c-0.09797,-0.08714 -0.21211,-0.15417 -0.33594,-0.19727c-0.0393,-0.15789 0.0072,-0.25223 -0.0918,-0.42578c-0.21492,-0.37532 -0.64676,-0.56997 -1.07031,-0.48242c-0.003,-0.53073 -0.07689,-1.01286 -0.24023,-1.46094c0.05168,-0.23386 0.01772,-0.47851 -0.0957,-0.68945c-0.04358,-0.08074 -0.11618,-0.20938 -0.13672,-0.24805c-0.11385,-0.21475 -0.302,-0.38069 -0.5293,-0.4668c-0.31238,-0.11767 -0.6537,-0.32997 -1.05469,-0.58789c-0.03146,-0.0207 -0.06406,-0.03961 -0.09766,-0.05664c-0.35072,-0.1729 -0.76124,-0.33312 -1.20898,-0.40625zM27.07227,6.00977c0.24185,-0.00778 0.55779,0.06831 0.88672,0.23047c0.21857,0.14104 0.50862,0.27642 0.77539,0.41992c0.01409,0.06707 0.03503,0.13252 0.0625,0.19531c0.2263,0.51451 0.24409,0.96694 0.17188,1.33594c-0.05054,0.01145 0.02126,-0.03797 -0.23242,0.04688c-0.40631,0.13648 -0.68047,0.5167 -0.68164,0.94531c-0.0013,0.47415 0.06395,0.86682 0.0918,1.18359c0.03992,0.4567 0.38524,0.82778 0.83789,0.90039c0.58314,0.09397 1.05306,-0.06349 1.35938,-0.16016c0.30632,-0.09667 0.46447,-0.12918 0.52539,-0.125c0.15005,0.00925 0.30026,-0.01545 0.43945,-0.07227c0.15664,0.09724 0.33712,0.14929 0.52148,0.15039c1.36263,0.0079 2.71223,0.00941 4.06836,0.00781c-0.0052,0.0025 -0.01044,0.00531 -0.01563,0.00781c-0.24187,0.11735 -0.4263,0.32713 -0.51172,0.58203c-0.01254,0.0373 -0.22124,0.25999 -0.61523,0.55469c-0.02716,0.02078 -0.05324,0.04295 -0.07812,0.06641c-0.03795,-0.15005 -0.04836,-0.29849 -0.11133,-0.44727c-0.15882,-0.3766 -0.5308,-0.61866 -0.93945,-0.61133c-0.16393,0.003 -0.32457,0.00691 -0.48047,0.00781c-0.18285,0.00123 -0.36187,0.05257 -0.51758,0.14844c-0.12834,0.07889 -0.35452,0.15567 -0.59766,0.55274c-0.03455,0.05643 -0.01964,0.16234 -0.04687,0.23633c0.07942,-0.06513 -0.02078,-0.01262 -0.24219,0.12305c-0.1196,0.07329 -0.28252,0.179 -0.43945,0.4043c-0.15694,0.2253 -0.25628,0.60296 -0.20508,0.91016c0.02141,0.12886 0.06786,0.25228 0.13672,0.36328c0.16969,0.27286 0.31534,0.55809 0.43555,0.85351c0.11972,0.29431 0.37217,0.51422 0.68012,0.59246c0.30795,0.07824 0.63475,0.0055 0.88043,-0.19598c0.49169,-0.40352 0.84543,-0.91293 1.125,-1.44531c0.0321,-0.0326 0.07055,-0.07192 0.11133,-0.11328c0.03776,0.26333 0.05341,0.49174 0.10938,0.70703c-0.19233,0.10835 -0.34341,0.27728 -0.42969,0.48047c-0.24047,0.56705 -0.25274,1.04291 -0.3125,1.3418c-0.05976,0.29889 -0.08754,0.33052 -0.14453,0.37109l0.07813,-0.04883c-0.4523,0.26277 -0.69309,0.54802 -0.8418,0.66602c-0.14871,0.11799 -0.0638,0.07833 -0.0918,0.07422c-0.0188,-0.00314 -0.03769,-0.00575 -0.05664,-0.00781c-0.92672,-0.08182 -1.95262,-0.74671 -3.15234,-1.36328c-0.28409,-0.14666 -0.62118,-0.14865 -0.90699,-0.00536c-0.28581,0.14329 -0.48588,0.41459 -0.53833,0.72997c-0.04192,0.25235 -0.11276,0.52802 -0.19531,0.82617c-0.07476,0.2698 -0.03301,0.55858 0.1151,0.79616c0.14811,0.23758 0.38903,0.40219 0.66419,0.45384c0.04948,0.0094 0.042,0.00917 0.04102,0.00977c0.08835,0.66623 -0.14539,1.53808 -0.14063,2.66797c0.00025,0.01629 0.00091,0.03257 0.00195,0.04883c0.0066,0.12229 -0.11702,0.31395 -0.17773,0.47266c-0.0798,-0.02066 -0.05767,-0.03272 -0.17187,-0.04883c-0.42162,-0.0595 -0.83469,0.15448 -1.0293,0.5332c-0.0745,0.14479 -0.14695,0.28702 -0.2168,0.42773c-0.10401,0.21001 -0.13097,0.44988 -0.07617,0.67773c0.06736,0.28079 0.10302,0.70202 0.27734,1.21094c0.04426,0.12793 0.11403,0.24554 0.20508,0.3457c0.65522,0.72384 1.23245,1.4926 1.66797,2.3125c0.48126,1.00308 0.91197,2.03062 1.28711,3.07813l-0.04102,-0.16016c0.05554,0.30838 0.26226,0.5206 0.44336,0.69531c0.0085,0.08263 0.01715,0.16526 0.02539,0.24805c0.01654,0.16588 0.07427,0.325 0.16797,0.46289c0.0055,0.0082 0.01009,0.01536 0.01563,0.02344c0.01294,1.16429 -0.107,2.35128 -0.29883,3.56836l0.00977,-0.05469c-0.11779,0.54696 -0.01586,0.9885 0.03711,1.28125c0.05297,0.29275 0.05716,0.43445 0.04492,0.48633c-0.02172,0.09208 -0.03027,0.18677 -0.02539,0.28125c-0.0089,-0.17248 -0.04025,-0.11201 -0.23437,0.41602c-0.03781,0.10139 -0.05892,0.20825 -0.0625,0.31641c-0.0186,0.62352 -0.05434,1.3131 0.02539,2.05078c0.10263,0.97605 0.76341,1.42788 0.91016,1.61914c0.02084,0.02649 0.043,0.05192 0.06641,0.07617c0.10212,0.10841 0.30722,0.37011 0.60352,0.63086c-0.04496,0.00033 -0.07156,0.00321 -0.11719,0.00391c-0.01303,0.0004 -0.02606,0.00105 -0.03906,0.00195c-0.23409,0.01242 -0.71752,-0.26337 -1.61328,-0.36719c-0.02984,-0.0033 -0.05982,-0.00526 -0.08984,-0.00586c-0.27734,-0.0071 -0.39673,0.01797 -0.57227,0.03906c0.06542,-0.34421 0.13588,-0.80336 0.24414,-1.01367c0.05038,-0.09858 0.08404,-0.20484 0.09961,-0.31445c0.15204,-1.04258 -0.07906,-1.85222 -0.04687,-2.40625c0.01854,-0.31647 -0.11407,-0.623 -0.35742,-0.82617c-0.006,-0.005 -0.01822,-0.01548 -0.02539,-0.02148c-0.07934,-0.37831 -0.1428,-0.85046 -0.17578,-1.00977c-0.0538,-0.69662 -0.11893,-1.39443 -0.19922,-2.0918c0.00327,0.00073 0.00978,-0.00817 0.04688,-0.04297c0.18753,-0.17585 0.30013,-0.41715 0.31445,-0.67383c0.01908,-0.34264 0.06894,-0.72152 0.10938,-1.13867c0.01035,-0.10788 0.00309,-0.21672 -0.02148,-0.32227c-0.14796,-0.6395 -0.48156,-0.90423 -0.50977,-0.95117c-0.25562,-0.42637 -0.78561,-0.60026 -1.24414,-0.4082c-0.03859,0.01621 -0.10524,-0.02219 -0.04883,0.07031c-0.00754,-0.01254 -0.01535,-0.02491 -0.02344,-0.03711c-0.61744,-0.91817 -1.2348,-1.83872 -1.86328,-2.75781c-0.17326,-0.2535 -0.45338,-0.41336 -0.75977,-0.43359c-0.18238,-0.01191 -0.13782,-0.00216 -0.20312,-0.00586c-0.07341,-0.12397 -0.13499,-0.22595 -0.27734,-0.50391c-0.1505,-0.29355 -0.43607,-0.494 -0.76329,-0.53579c-0.32722,-0.04178 -0.654,0.08049 -0.87343,0.3268c-0.29711,0.3341 -0.37805,0.65013 -0.43164,0.79688c-0.02573,0.07046 -0.03861,0.09471 -0.03906,0.09766c-0.87876,0.85549 -1.03991,1.89173 -1.29492,2.49023l0.02539,-0.05469c-0.22667,0.45239 -0.24838,0.8519 -0.27734,1.10742c-0.02385,0.21039 -0.04427,0.26932 -0.05859,0.31055c-0.01187,0.00873 -0.00489,0.00455 -0.02148,0.01562c-0.14794,0.09873 -0.51479,0.34151 -0.67578,0.82617l0.01953,-0.05664c-0.11227,0.28022 -0.19375,0.36527 -0.18164,0.35742c-0.0013,0.00065 -0.00261,0.0013 -0.00391,0.00195c-0.73708,0.48211 -0.83216,1.18249 -0.91406,1.37109c0,0.00065 0,0.0013 0,0.00195c-0.18709,0.43318 -0.12351,0.82498 -0.08984,1.02344c0.02944,0.17357 0.02542,0.18591 0.0332,0.13477c-0.1524,0.68527 -0.73585,1.47385 -1.0625,2.66992v-0.00391c-0.04748,0.1717 -0.09359,0.27665 -0.11719,0.32227c-0.24948,0.07383 -0.46036,0.24198 -0.58789,0.46875c-0.65108,1.16264 -1.03065,2.62383 -0.66016,4.08594c-0.26723,0.01026 -0.5435,0.01389 -0.77734,-0.00781c-0.0008,-0.10284 -0.0214,-0.1307 -0.00977,-0.26562c0.26382,-1.10529 0.62096,-2.24764 0.85352,-3.48828c0.05312,-0.28442 -0.01954,-0.5779 -0.19922,-0.80469c0.00009,-0.05119 0.00296,-0.13909 0.00586,-0.33008c0.00014,-0.00977 0.00014,-0.01953 0,-0.0293c-0.0023,-0.16171 0.21514,-0.49236 0.57617,-1.12109c0.05209,-0.09059 0.08965,-0.18879 0.11133,-0.29102c0.15406,-0.72865 0.14371,-1.14518 0.22461,-1.28906c0.00399,-0.00711 0.0079,-0.01428 0.01172,-0.02148c0.34905,-0.6598 0.59505,-1.19581 0.90039,-1.49805c0.13738,-0.13609 0.23236,-0.30909 0.27344,-0.49805c0.01562,-0.07146 0.28119,-0.38314 0.49805,-1.04687c0.16382,-0.45693 0.09389,-0.85951 0.05078,-1.07812c-0.04373,-0.22178 -0.0429,-0.29968 -0.05078,-0.23828c0.0014,-0.0078 0.0027,-0.01561 0.00391,-0.02344c0.11162,-1.08086 0.31267,-2.18666 0.49414,-3.32617c0.04798,-0.30284 -0.0456,-0.61095 -0.25391,-0.83594c-0.0049,-0.03901 -0.03615,-0.19501 -0.04297,-0.2793c0.01446,-0.02866 0.02213,-0.05652 0.03906,-0.08594c0.15075,-0.26255 0.17445,-0.57926 0.06445,-0.86133c0.29346,-0.17458 0.47757,-0.48683 0.48828,-0.82812c0.03956,-1.37839 -0.23773,-2.42167 -0.24023,-3.36914c0.05714,-0.01762 0.11894,-0.05409 0.17383,-0.06445c0.48043,-0.09317 0.82287,-0.52033 0.80931,-1.00952c-0.01356,-0.4892 -0.37914,-0.89672 -0.864,-0.96313c-0.15639,-0.02047 -0.35294,-0.07334 -0.52344,-0.10937c0.12931,-0.76106 0.16676,-1.50521 0.20898,-2.24805c0.28608,-0.0153 0.66793,-0.03077 1.09961,-0.23633c0.38864,-0.18512 0.61522,-0.59816 0.5625,-1.02539c-0.1491,-1.208 -0.16237,-2.36951 0.20117,-3.35156c0.00201,-0.00584 0.00396,-0.0117 0.00586,-0.01758c0.29564,-0.84387 0.82835,-1.53715 1.50195,-1.77539c0.20268,-0.04477 0.38967,-0.0762 0.46094,-0.07422c0.1758,0.2052 0.42716,0.33052 0.69683,0.34744c0.26968,0.01692 0.53473,-0.07599 0.73481,-0.2576c0.11055,-0.1006 0.21245,-0.19639 0.30469,-0.28125c0.32834,-0.30286 0.41602,-0.78673 0.21484,-1.18555c-0.25209,-0.50172 -0.24164,-1.21824 0.02734,-1.82031c0.26856,-0.60111 0.73543,-1.02092 1.29688,-1.12305l0.00195,-0.00195c0.02823,-0.00466 0.05625,-0.01052 0.08398,-0.01758c0.00457,-0.00127 0.00912,-0.00257 0.01367,-0.00391c0.01774,-0.00537 0.03532,-0.01123 0.05273,-0.01758c0.06191,-0.0214 0.13423,-0.03256 0.21484,-0.03516zM34.45703,13.60156c0.00029,0.0023 0.00165,0.00356 0.00195,0.00586l-0.04492,0.06445c0.01219,-0.02432 0.03112,-0.0459 0.04297,-0.07031zM5,20c-1.105,0 -2,0.895 -2,2v9c0,1.105 0.895,2 2,2h8c1.105,0 2,-0.895 2,-2c0,-0.552 -0.448,-1 -1,-1h-8v-7h8c0.552,0 1,-0.448 1,-1c0,-1.105 -0.895,-2 -2,-2zM37,20c-1.105,0 -2,0.895 -2,2v4c0,1.105 0.895,2 2,2h7v2h-8c-0.552,0 -1,0.448 -1,1c0,1.105 0.895,2 2,2h8c1.105,0 2,-0.895 2,-2v-5c0,-0.552 -0.448,-1 -1,-1h-8.23047v-2h8.23047c0.552,0 1,-0.448 1,-1c0,-1.105 -0.895,-2 -2,-2z"></path></g></g></svg>