<svg width="24" height="24" viewBox="0 0 24 24" fill="none" xmlns="http://www.w3.org/2000/svg">
<path d="M22 18V18C22 13.5817 18.4183 10 14 10H6C3.79086 10 2 11.7909 2 14V14C2 16.2091 3.79086 18 6 18H11" stroke="white" stroke-width="1.5" stroke-linecap="round"/>
<path d="M6 6.5L4.75 4.33494" stroke="white" stroke-width="1.5" stroke-linecap="round" stroke-linejoin="round"/>
<path d="M12 6.5L12 4" stroke="white" stroke-width="1.5" stroke-linecap="round" stroke-linejoin="round"/>
<path d="M18 6.5L19.25 4.33494" stroke="white" stroke-width="1.5" stroke-linecap="round" stroke-linejoin="round"/>
<path d="M17.2 17L17.6577 17.5851C17.9207 17.9214 17.8723 18.0227 17.4486 18.0227L14.8 18.0227C14.0692 18.0227 14 18.4063 14 19.0455M16.2136 20.7142L15.7559 20.1291C15.4929 19.7928 15.5413 19.6914 15.965 19.6914H18.6136C19.3444 19.6914 19.4136 19.3079 19.4136 18.6687" stroke="white" stroke-linecap="round" stroke-linejoin="round"/>
</svg>
