<svg width="24" height="24" viewBox="0 0 24 24" fill="none" xmlns="http://www.w3.org/2000/svg">
<path d="M22 18V18C22 13.5817 18.4183 10 14 10H6C3.79086 10 2 11.7909 2 14V14C2 16.2091 3.79086 18 6 18H13" stroke="white" stroke-width="1.5" stroke-linecap="round"/>
<path d="M6 6.5L4.75 4.33494" stroke="white" stroke-width="1.5" stroke-linecap="round" stroke-linejoin="round"/>
<path d="M12 6.5L12 4" stroke="white" stroke-width="1.5" stroke-linecap="round" stroke-linejoin="round"/>
<path d="M18 6.5L19.25 4.33494" stroke="white" stroke-width="1.5" stroke-linecap="round" stroke-linejoin="round"/>
<path d="M16.667 20C16.667 20 15.0003 18.527 15.0003 18C15.0003 17.4729 16.667 16 16.667 16" stroke="white" stroke-width="0.5" stroke-linecap="round" stroke-linejoin="round"/>
<path d="M18.667 20C18.667 20 20.3337 18.527 20.3337 18C20.3337 17.4729 18.667 16 18.667 16" stroke="white" stroke-width="0.5" stroke-linecap="round" stroke-linejoin="round"/>
</svg>
