<svg width="24" height="24" viewBox="0 0 24 24" fill="none" xmlns="http://www.w3.org/2000/svg">
<path d="M5.54 6.85C6.22 6.85667 6.74333 7.01667 7.11 7.33C7.47667 7.63667 7.66 8.08333 7.66 8.67C7.66 8.74333 7.65333 8.86 7.64 9.02L7.6 9.35C7.52 9.95667 7.30667 10.4367 6.96 10.79C6.62 11.1433 6.16 11.3667 5.58 11.46L7.62 14.36H6.18L4.28 11.51H2.91L2.56 14.36H1.38L2.3 6.85H5.54ZM5.13 10.43C5.51 10.4233 5.80333 10.3433 6.01 10.19C6.22333 10.0367 6.35333 9.77333 6.4 9.4L6.46 8.97C6.46667 8.92333 6.47 8.86 6.47 8.78C6.47 8.48 6.38333 8.26667 6.21 8.14C6.03667 8.00667 5.78 7.93667 5.44 7.93H3.35L3.04 10.43H5.13ZM12.0687 13.3C12.402 13.3 12.7853 13.2767 13.2187 13.23L13.4687 11.25H11.6887L11.8187 10.15H14.7787L14.2787 14.23C13.3987 14.3433 12.6253 14.4 11.9587 14.4H11.4387C10.472 14.3933 9.76867 14.2033 9.32867 13.83C8.89534 13.4567 8.67867 12.8667 8.67867 12.06C8.67867 11.86 8.69534 11.6033 8.72867 11.29L8.87867 9.96C8.97201 9.22667 9.15201 8.63333 9.41867 8.18C9.68534 7.72667 10.062 7.39333 10.5487 7.18C11.0353 6.96667 11.6553 6.85667 12.4087 6.85H12.6787C13.4853 6.85 14.2553 6.86 14.9887 6.88L14.8487 7.99L14.0187 7.97C13.312 7.95667 12.822 7.95 12.5487 7.95H12.2487C11.762 7.95 11.372 8.02 11.0787 8.16C10.7853 8.29333 10.5587 8.5 10.3987 8.78C10.2453 9.06 10.1387 9.43333 10.0787 9.9L9.89867 11.35C9.87201 11.6167 9.85867 11.7967 9.85867 11.89C9.85867 12.39 9.98534 12.75 10.2387 12.97C10.4987 13.1833 10.942 13.2933 11.5687 13.3H12.0687ZM15.589 14.36L16.509 6.85H19.479C20.1457 6.85667 20.6557 7 21.009 7.28C21.369 7.55333 21.549 7.95667 21.549 8.49C21.549 8.54333 21.5423 8.64333 21.529 8.79L21.489 9.15C21.409 9.71667 21.1557 10.1367 20.729 10.41C21.0157 10.5233 21.2323 10.6967 21.379 10.93C21.5257 11.1633 21.599 11.4433 21.599 11.77C21.599 11.87 21.5957 11.9467 21.589 12L21.539 12.42C21.459 13.04 21.189 13.52 20.729 13.86C20.2757 14.1933 19.6557 14.36 18.869 14.36H15.589ZM19.119 10.02C19.8323 10.0067 20.2323 9.72333 20.319 9.17L20.369 8.77C20.4157 8.21 20.0857 7.92333 19.379 7.91H17.559L17.299 10.02H19.119ZM19.009 13.28C19.4023 13.2733 19.7123 13.1967 19.939 13.05C20.1657 12.9033 20.3023 12.7 20.349 12.44L20.399 12.01C20.4323 11.7033 20.3523 11.47 20.159 11.31C19.9723 11.1433 19.679 11.0567 19.279 11.05H17.179L16.899 13.28H19.009Z" fill="white"/>
<path d="M19.2 17L19.6577 17.5851C19.9207 17.9214 19.8723 18.0227 19.4486 18.0227L16.8 18.0227C16.0692 18.0227 16 18.4063 16 19.0455M18.2136 20.7142L17.7559 20.1291C17.4929 19.7928 17.5413 19.6914 17.965 19.6914H20.6136C21.3444 19.6914 21.4136 19.3079 21.4136 18.6687" stroke="white" stroke-linecap="round" stroke-linejoin="round"/>
</svg>
