<svg width="24" height="24" viewBox="0 0 24 24" fill="none" xmlns="http://www.w3.org/2000/svg">
<path d="M7.5 18H6C3.79086 18 2 16.2091 2 14V14C2 11.7909 3.79086 10 6 10H18C20.2091 10 22 11.7909 22 14V14C22 16.2091 20.2091 18 18 18H16C13.7909 18 12 16.2091 12 14V14" stroke="white" stroke-width="1.5" stroke-linecap="round"/>
<path d="M6 6.5L4.75 4.33494" stroke="white" stroke-width="1.5" stroke-linecap="round" stroke-linejoin="round"/>
<path d="M12 6.5L12 4" stroke="white" stroke-width="1.5" stroke-linecap="round" stroke-linejoin="round"/>
<path d="M18 6.5L19.25 4.33494" stroke="white" stroke-width="1.5" stroke-linecap="round" stroke-linejoin="round"/>
<path d="M12.8457 13.9231L12.1402 13.2176C12.0376 13.115 11.9864 13.0637 11.9226 13.0637C11.8589 13.0637 11.8076 13.115 11.7051 13.2176L10.9995 13.9231" stroke="white" stroke-linecap="round" stroke-linejoin="round"/>
</svg>
