<svg width="24" height="24" viewBox="0 0 24 24" fill="none" xmlns="http://www.w3.org/2000/svg">
<path d="M22 18V18C22 13.5817 18.4183 10 14 10H6C3.79086 10 2 11.7909 2 14V14C2 16.2091 3.79086 18 6 18H14.5" stroke="white" stroke-width="1.5" stroke-linecap="round"/>
<path d="M6 6.5L4.75 4.33494" stroke="white" stroke-width="1.5" stroke-linecap="round" stroke-linejoin="round"/>
<path d="M12 6.5L12 4" stroke="white" stroke-width="1.5" stroke-linecap="round" stroke-linejoin="round"/>
<path d="M18 6.5L19.25 4.33494" stroke="white" stroke-width="1.5" stroke-linecap="round" stroke-linejoin="round"/>
<path d="M19.4521 18.231L17.0001 18.231" stroke="white" stroke-linecap="round"/>
<path d="M18.2212 19.452L18.2212 17" stroke="white" stroke-linecap="round"/>
<path d="M7 14.5013C7.9 12.6423 10 12.5496 11.5 14.0025M16 13.4987C15.1 15.3577 13 15.4504 11.5 13.9975" stroke="white" stroke-width="1.5" stroke-linecap="round" stroke-linejoin="round"/>
</svg>
