<svg width="201" height="40" viewBox="0 0 201 40" fill="none" xmlns="http://www.w3.org/2000/svg">
<path d="M5.59 4.34C5.59 5.57333 5.36667 6.51333 4.92 7.16C4.47333 7.8 3.83667 8.12 3.01 8.12C2.18333 8.12 1.54333 7.8 1.09 7.16C0.643333 6.52 0.42 5.58 0.42 4.34C0.42 3.1 0.643333 2.15667 1.09 1.51C1.54333 0.863333 2.18333 0.539999 3.01 0.539999C3.83667 0.539999 4.47333 0.863333 4.92 1.51C5.36667 2.15667 5.59 3.1 5.59 4.34ZM1.96 4.34C1.96 5.16667 2.04333 5.78333 2.21 6.19C2.38333 6.59 2.65 6.79 3.01 6.79C3.36333 6.79 3.62333 6.59 3.79 6.19C3.96333 5.78333 4.05 5.16667 4.05 4.34C4.05 3.50667 3.96333 2.88667 3.79 2.48C3.62333 2.07333 3.36333 1.87 3.01 1.87C2.65 1.87 2.38333 2.07333 2.21 2.48C2.04333 2.88 1.96 3.5 1.96 4.34ZM7.31586 8.14C7.08919 8.14 6.89586 8.05667 6.73586 7.89C6.57586 7.72333 6.49586 7.52333 6.49586 7.29C6.49586 7.05667 6.57586 6.85667 6.73586 6.69C6.89586 6.52333 7.08919 6.44 7.31586 6.44C7.54253 6.44 7.73919 6.52333 7.90586 6.69C8.07253 6.85667 8.15586 7.05667 8.15586 7.29C8.15586 7.52333 8.07253 7.72333 7.90586 7.89C7.74586 8.05667 7.54919 8.14 7.31586 8.14ZM14.2228 4.34C14.2228 5.57333 13.9995 6.51333 13.5528 7.16C13.1061 7.8 12.4695 8.12 11.6428 8.12C10.8161 8.12 10.1761 7.8 9.72281 7.16C9.27615 6.52 9.05281 5.58 9.05281 4.34C9.05281 3.1 9.27615 2.15667 9.72281 1.51C10.1761 0.863333 10.8161 0.539999 11.6428 0.539999C12.4695 0.539999 13.1061 0.863333 13.5528 1.51C13.9995 2.15667 14.2228 3.1 14.2228 4.34ZM10.5928 4.34C10.5928 5.16667 10.6761 5.78333 10.8428 6.19C11.0161 6.59 11.2828 6.79 11.6428 6.79C11.9961 6.79 12.2561 6.59 12.4228 6.19C12.5961 5.78333 12.6828 5.16667 12.6828 4.34C12.6828 3.50667 12.5961 2.88667 12.4228 2.48C12.2561 2.07333 11.9961 1.87 11.6428 1.87C11.2828 1.87 11.0161 2.07333 10.8428 2.48C10.6761 2.88 10.5928 3.5 10.5928 4.34ZM20.2287 4.34C20.2287 5.57333 20.0053 6.51333 19.5587 7.16C19.112 7.8 18.4753 8.12 17.6487 8.12C16.822 8.12 16.182 7.8 15.7287 7.16C15.282 6.52 15.0587 5.58 15.0587 4.34C15.0587 3.1 15.282 2.15667 15.7287 1.51C16.182 0.863333 16.822 0.539999 17.6487 0.539999C18.4753 0.539999 19.112 0.863333 19.5587 1.51C20.0053 2.15667 20.2287 3.1 20.2287 4.34ZM16.5987 4.34C16.5987 5.16667 16.682 5.78333 16.8487 6.19C17.022 6.59 17.2887 6.79 17.6487 6.79C18.002 6.79 18.262 6.59 18.4287 6.19C18.602 5.78333 18.6887 5.16667 18.6887 4.34C18.6887 3.50667 18.602 2.88667 18.4287 2.48C18.262 2.07333 18.002 1.87 17.6487 1.87C17.2887 1.87 17.022 2.07333 16.8487 2.48C16.682 2.88 16.5987 3.5 16.5987 4.34Z" fill="#515151"/>
<path d="M96.59 4.34C96.59 5.57333 96.3667 6.51333 95.92 7.16C95.4733 7.8 94.8367 8.12 94.01 8.12C93.1833 8.12 92.5433 7.8 92.09 7.16C91.6433 6.52 91.42 5.58 91.42 4.34C91.42 3.1 91.6433 2.15667 92.09 1.51C92.5433 0.863333 93.1833 0.539999 94.01 0.539999C94.8367 0.539999 95.4733 0.863333 95.92 1.51C96.3667 2.15667 96.59 3.1 96.59 4.34ZM92.96 4.34C92.96 5.16667 93.0433 5.78333 93.21 6.19C93.3833 6.59 93.65 6.79 94.01 6.79C94.3633 6.79 94.6233 6.59 94.79 6.19C94.9633 5.78333 95.05 5.16667 95.05 4.34C95.05 3.50667 94.9633 2.88667 94.79 2.48C94.6233 2.07333 94.3633 1.87 94.01 1.87C93.65 1.87 93.3833 2.07333 93.21 2.48C93.0433 2.88 92.96 3.5 92.96 4.34ZM98.3159 8.14C98.0892 8.14 97.8959 8.05667 97.7359 7.89C97.5759 7.72333 97.4959 7.52333 97.4959 7.29C97.4959 7.05667 97.5759 6.85667 97.7359 6.69C97.8959 6.52333 98.0892 6.44 98.3159 6.44C98.5425 6.44 98.7392 6.52333 98.9059 6.69C99.0725 6.85667 99.1559 7.05667 99.1559 7.29C99.1559 7.52333 99.0725 7.72333 98.9059 7.89C98.7459 8.05667 98.5492 8.14 98.3159 8.14ZM102.843 3.24C103.263 3.24 103.646 3.34 103.993 3.54C104.339 3.74 104.613 4.02 104.813 4.38C105.013 4.74 105.113 5.15667 105.113 5.63C105.113 6.13667 104.999 6.58 104.773 6.96C104.553 7.33333 104.249 7.62 103.863 7.82C103.476 8.02 103.049 8.12 102.583 8.12C102.029 8.12 101.553 7.99333 101.153 7.74C100.753 7.48667 100.466 7.10333 100.293 6.59L101.463 5.92C101.549 6.22667 101.686 6.45667 101.873 6.61C102.066 6.75667 102.296 6.83 102.563 6.83C102.776 6.83 102.959 6.78 103.113 6.68C103.273 6.57333 103.389 6.43333 103.463 6.26C103.543 6.08667 103.583 5.89333 103.583 5.68C103.583 5.46667 103.543 5.27333 103.463 5.1C103.383 4.92 103.263 4.77667 103.103 4.67C102.943 4.56333 102.749 4.51 102.523 4.51C102.069 4.51 101.719 4.72667 101.473 5.16L100.433 4.65L100.933 0.67H104.773V1.91H102.153L101.953 3.42C102.086 3.36 102.226 3.31667 102.373 3.29C102.519 3.25667 102.676 3.24 102.843 3.24ZM111.229 4.34C111.229 5.57333 111.005 6.51333 110.559 7.16C110.112 7.8 109.475 8.12 108.649 8.12C107.822 8.12 107.182 7.8 106.729 7.16C106.282 6.52 106.059 5.58 106.059 4.34C106.059 3.1 106.282 2.15667 106.729 1.51C107.182 0.863333 107.822 0.539999 108.649 0.539999C109.475 0.539999 110.112 0.863333 110.559 1.51C111.005 2.15667 111.229 3.1 111.229 4.34ZM107.599 4.34C107.599 5.16667 107.682 5.78333 107.849 6.19C108.022 6.59 108.289 6.79 108.649 6.79C109.002 6.79 109.262 6.59 109.429 6.19C109.602 5.78333 109.689 5.16667 109.689 4.34C109.689 3.50667 109.602 2.88667 109.429 2.48C109.262 2.07333 109.002 1.87 108.649 1.87C108.289 1.87 108.022 2.07333 107.849 2.48C107.682 2.88 107.599 3.5 107.599 4.34Z" fill="#515151"/>
<path d="M184.25 8H182.78V2.27L180.88 3.33V1.94L183.12 0.67H184.25V8ZM187.316 8.14C187.089 8.14 186.896 8.05667 186.736 7.89C186.576 7.72333 186.496 7.52333 186.496 7.29C186.496 7.05667 186.576 6.85667 186.736 6.69C186.896 6.52333 187.089 6.44 187.316 6.44C187.543 6.44 187.739 6.52333 187.906 6.69C188.073 6.85667 188.156 7.05667 188.156 7.29C188.156 7.52333 188.073 7.72333 187.906 7.89C187.746 8.05667 187.549 8.14 187.316 8.14ZM194.223 4.34C194.223 5.57333 193.999 6.51333 193.553 7.16C193.106 7.8 192.469 8.12 191.643 8.12C190.816 8.12 190.176 7.8 189.723 7.16C189.276 6.52 189.053 5.58 189.053 4.34C189.053 3.1 189.276 2.15667 189.723 1.51C190.176 0.863333 190.816 0.539999 191.643 0.539999C192.469 0.539999 193.106 0.863333 193.553 1.51C193.999 2.15667 194.223 3.1 194.223 4.34ZM190.593 4.34C190.593 5.16667 190.676 5.78333 190.843 6.19C191.016 6.59 191.283 6.79 191.643 6.79C191.996 6.79 192.256 6.59 192.423 6.19C192.596 5.78333 192.683 5.16667 192.683 4.34C192.683 3.50667 192.596 2.88667 192.423 2.48C192.256 2.07333 191.996 1.87 191.643 1.87C191.283 1.87 191.016 2.07333 190.843 2.48C190.676 2.88 190.593 3.5 190.593 4.34ZM200.229 4.34C200.229 5.57333 200.005 6.51333 199.559 7.16C199.112 7.8 198.475 8.12 197.649 8.12C196.822 8.12 196.182 7.8 195.729 7.16C195.282 6.52 195.059 5.58 195.059 4.34C195.059 3.1 195.282 2.15667 195.729 1.51C196.182 0.863333 196.822 0.539999 197.649 0.539999C198.475 0.539999 199.112 0.863333 199.559 1.51C200.005 2.15667 200.229 3.1 200.229 4.34ZM196.599 4.34C196.599 5.16667 196.682 5.78333 196.849 6.19C197.022 6.59 197.289 6.79 197.649 6.79C198.002 6.79 198.262 6.59 198.429 6.19C198.602 5.78333 198.689 5.16667 198.689 4.34C198.689 3.50667 198.602 2.88667 198.429 2.48C198.262 2.07333 198.002 1.87 197.649 1.87C197.289 1.87 197.022 2.07333 196.849 2.48C196.682 2.88 196.599 3.5 196.599 4.34Z" fill="#515151"/>
<rect x="9" y="40" width="18" height="184" transform="rotate(-90 9 40)" fill="#373737"/>
<rect x="10" y="39" width="16" height="182" transform="rotate(-90 10 39)" stroke="#515151" stroke-width="2"/>
<rect x="27" y="20" width="5" height="2" transform="rotate(-90 27 20)" fill="#515151"/>
<rect x="45" y="20" width="5" height="2" transform="rotate(-90 45 20)" fill="#515151"/>
<rect x="63" y="19.9995" width="5" height="2" transform="rotate(-90 63 19.9995)" fill="#515151"/>
<rect x="81" y="19.9995" width="5" height="2" transform="rotate(-90 81 19.9995)" fill="#515151"/>
<rect x="99" y="19.9995" width="10" height="2" transform="rotate(-90 99 19.9995)" fill="#515151"/>
<rect x="9" y="20" width="10" height="2" transform="rotate(-90 9 20)" fill="#515151"/>
<rect x="117" y="20" width="5" height="2" transform="rotate(-90 117 20)" fill="#515151"/>
<rect x="135" y="20" width="5" height="2" transform="rotate(-90 135 20)" fill="#515151"/>
<rect x="153" y="20" width="5" height="2" transform="rotate(-90 153 20)" fill="#515151"/>
<rect x="171" y="19.9995" width="5" height="2" transform="rotate(-90 171 19.9995)" fill="#515151"/>
<rect x="189" y="19.9995" width="10" height="2" transform="rotate(-90 189 19.9995)" fill="#515151"/>
<path d="M15 22V24H11V28H9V22H15Z" fill="#B3B3B3"/>
<path d="M15 40V38H11V34H9V40H15Z" fill="#B3B3B3"/>
<path d="M186 22V24H191V28H193V22H186Z" fill="#B3B3B3"/>
<path d="M186 40V38H191V34H193V40H186Z" fill="#B3B3B3"/>
<path d="M13 26H33L43 36H13V26Z" fill="#515151"/>
<path d="M39 26H59L69 36H49L39 26Z" fill="#515151"/>
<path d="M65 26H85L95 36H75L65 26Z" fill="#515151"/>
<path d="M91 26H111L121 36H101L91 26Z" fill="#515151"/>
<path d="M117 26H137L147 36H127L117 26Z" fill="#515151"/>
<path d="M143 26H163L173 36H153L143 26Z" fill="#515151"/>
<path d="M169 26H189V36H179L169 26Z" fill="#515151"/>
</svg>
