<svg width="24" height="24" viewBox="0 0 24 24" fill="none" xmlns="http://www.w3.org/2000/svg">
<path d="M6.99996 18C6.99996 18 2.00001 13.5811 2 12C1.99999 10.4188 7 6 7 6" stroke="white" stroke-width="1.5" stroke-linecap="round" stroke-linejoin="round"/>
<path d="M17 18C17 18 22 13.5811 22 12C22 10.4188 17 6 17 6" stroke="white" stroke-width="1.5" stroke-linecap="round" stroke-linejoin="round"/>
<g clip-path="url(#clip0_1286_6742)">
<path d="M14.0832 12C14.0832 13.1506 13.1504 14.0833 11.9998 14.0833C10.8492 14.0833 9.9165 13.1506 9.9165 12C9.9165 10.8494 10.8492 9.91663 11.9998 9.91663C13.1504 9.91663 14.0832 10.8494 14.0832 12Z" stroke="white" stroke-width="0.833333"/>
<path d="M12.0002 7.83337V8.45837M12.0002 15.5417V16.1667M14.9463 14.9464L14.5044 14.5045M9.49569 9.49556L9.05375 9.05362M16.1668 12H15.5418M8.4585 12H7.8335M14.9465 9.05367L14.5046 9.49561M9.49589 14.5045L9.05395 14.9465" stroke="white" stroke-width="0.833333" stroke-linecap="round"/>
</g>
<defs>
<clipPath id="clip0_1286_6742">
<rect width="10" height="10" fill="white" transform="translate(7 7)"/>
</clipPath>
</defs>
</svg>
