<svg width="28" height="28" viewBox="0 0 28 28" fill="none" xmlns="http://www.w3.org/2000/svg">
<path d="M14 25.6673C12.4056 25.6673 10.8987 25.3609 9.47921 24.748C8.05976 24.1351 6.82037 23.299 5.76104 22.2397C4.70171 21.1803 3.8656 19.9409 3.25271 18.5215C2.63982 17.102 2.33337 15.5951 2.33337 14.0007C2.33337 12.3868 2.64954 10.8701 3.28187 9.45065C3.91421 8.03121 4.76976 6.79648 5.84854 5.74648C6.92732 4.69648 8.18615 3.86543 9.62504 3.25332C11.0639 2.64121 12.6 2.33476 14.2334 2.33398C15.7889 2.33398 17.257 2.60154 18.6375 3.13665C20.0181 3.67176 21.2287 4.41065 22.2694 5.35332C23.31 6.29598 24.1364 7.41404 24.7485 8.70748C25.3607 10.0009 25.6667 11.3959 25.6667 12.8923C25.6667 15.1284 24.9862 16.8446 23.625 18.0408C22.2639 19.237 20.6112 19.8348 18.6667 19.834H16.5084C16.3334 19.834 16.212 19.8826 16.1444 19.9798C16.0767 20.077 16.0425 20.184 16.0417 20.3006C16.0417 20.534 16.1875 20.8696 16.4792 21.3075C16.7709 21.7454 16.9167 22.2459 16.9167 22.809C16.9167 23.7812 16.6495 24.5007 16.1152 24.9673C15.5809 25.434 14.8758 25.6673 14 25.6673ZM7.58337 15.1673C8.08893 15.1673 8.50698 15.002 8.83754 14.6715C9.1681 14.3409 9.33337 13.9229 9.33337 13.4173C9.33337 12.9118 9.1681 12.4937 8.83754 12.1632C8.50698 11.8326 8.08893 11.6673 7.58337 11.6673C7.07782 11.6673 6.65976 11.8326 6.32921 12.1632C5.99865 12.4937 5.83337 12.9118 5.83337 13.4173C5.83337 13.9229 5.99865 14.3409 6.32921 14.6715C6.65976 15.002 7.07782 15.1673 7.58337 15.1673ZM11.0834 10.5007C11.5889 10.5007 12.007 10.3354 12.3375 10.0048C12.6681 9.67426 12.8334 9.25621 12.8334 8.75065C12.8334 8.2451 12.6681 7.82704 12.3375 7.49648C12.007 7.16593 11.5889 7.00065 11.0834 7.00065C10.5778 7.00065 10.1598 7.16593 9.82921 7.49648C9.49865 7.82704 9.33337 8.2451 9.33337 8.75065C9.33337 9.25621 9.49865 9.67426 9.82921 10.0048C10.1598 10.3354 10.5778 10.5007 11.0834 10.5007ZM16.9167 10.5007C17.4223 10.5007 17.8403 10.3354 18.1709 10.0048C18.5014 9.67426 18.6667 9.25621 18.6667 8.75065C18.6667 8.2451 18.5014 7.82704 18.1709 7.49648C17.8403 7.16593 17.4223 7.00065 16.9167 7.00065C16.4112 7.00065 15.9931 7.16593 15.6625 7.49648C15.332 7.82704 15.1667 8.2451 15.1667 8.75065C15.1667 9.25621 15.332 9.67426 15.6625 10.0048C15.9931 10.3354 16.4112 10.5007 16.9167 10.5007ZM20.4167 15.1673C20.9223 15.1673 21.3403 15.002 21.6709 14.6715C22.0014 14.3409 22.1667 13.9229 22.1667 13.4173C22.1667 12.9118 22.0014 12.4937 21.6709 12.1632C21.3403 11.8326 20.9223 11.6673 20.4167 11.6673C19.9111 11.6673 19.4931 11.8326 19.1625 12.1632C18.832 12.4937 18.6667 12.9118 18.6667 13.4173C18.6667 13.9229 18.832 14.3409 19.1625 14.6715C19.4931 15.002 19.9111 15.1673 20.4167 15.1673ZM14 23.334C14.175 23.334 14.3162 23.2854 14.4235 23.1882C14.5309 23.0909 14.5842 22.9645 14.5834 22.809C14.5834 22.5368 14.4375 22.2159 14.1459 21.8465C13.8542 21.477 13.7084 20.9229 13.7084 20.184C13.7084 19.3673 13.9903 18.7159 14.5542 18.2298C15.1181 17.7437 15.8084 17.5007 16.625 17.5007H18.6667C19.95 17.5007 21.0487 17.1265 21.9625 16.3783C22.8764 15.6301 23.3334 14.4681 23.3334 12.8923C23.3334 10.5395 22.4343 8.58032 20.636 7.01465C18.8378 5.44898 16.7036 4.66654 14.2334 4.66732C11.5889 4.66732 9.33337 5.57148 7.46671 7.37982C5.60004 9.18815 4.66671 11.3951 4.66671 14.0007C4.66671 16.5868 5.57593 18.789 7.39437 20.6075C9.21282 22.4259 11.4147 23.3348 14 23.334Z" fill="white"/>
</svg>
