<svg width="28" height="28" viewBox="0 0 28 28" fill="none" xmlns="http://www.w3.org/2000/svg">
<path d="M14 3.5C14.2943 3.49991 14.5778 3.61107 14.7936 3.81121C15.0095 4.01134 15.1417 4.28566 15.1637 4.57917L15.1666 4.66667V23.3333C15.168 23.6361 15.0516 23.9275 14.8421 24.146C14.6326 24.3645 14.3463 24.493 14.0438 24.5044C13.7412 24.5158 13.4461 24.4091 13.2208 24.2069C12.9955 24.0047 12.8576 23.7228 12.8362 23.4208L12.8333 23.3333V4.66667C12.8333 4.35725 12.9562 4.0605 13.175 3.84171C13.3938 3.62292 13.6906 3.5 14 3.5ZM18.69 7C18.9843 6.99991 19.2678 7.11107 19.4836 7.31121C19.6995 7.51134 19.8317 7.78566 19.8537 8.07917L19.8566 8.16667V19.8333C19.858 20.1361 19.7416 20.4275 19.5321 20.646C19.3226 20.8645 19.0363 20.993 18.7338 21.0044C18.4312 21.0158 18.1361 20.9091 17.9108 20.7069C17.6855 20.5047 17.5476 20.2228 17.5262 19.9208L17.5233 19.8333V8.16667C17.5233 7.85725 17.6462 7.5605 17.865 7.34171C18.0838 7.12292 18.3806 7 18.69 7ZM9.30998 7C9.60431 6.99991 9.88781 7.11107 10.1036 7.31121C10.3195 7.51134 10.4517 7.78566 10.4737 8.07917L10.4766 8.16667V19.8333C10.478 20.1361 10.3616 20.4275 10.1521 20.646C9.94256 20.8645 9.65629 20.993 9.35376 21.0044C9.05123 21.0158 8.75613 20.9091 8.53081 20.7069C8.30548 20.5047 8.16758 20.2228 8.14623 19.9208L8.14331 19.8333V8.16667C8.14331 7.85725 8.26623 7.5605 8.48502 7.34171C8.70381 7.12292 9.00056 7 9.30998 7ZM23.38 10.5C23.6743 10.4999 23.9578 10.6111 24.1736 10.8112C24.3895 11.0113 24.5217 11.2857 24.5437 11.5792L24.5466 11.6667V16.3333C24.548 16.6361 24.4316 16.9275 24.2221 17.146C24.0126 17.3645 23.7263 17.493 23.4238 17.5044C23.1212 17.5158 22.8261 17.4091 22.6008 17.2069C22.3755 17.0047 22.2376 16.7228 22.2162 16.4208L22.2133 16.3333V11.6667C22.2133 11.3572 22.3362 11.0605 22.555 10.8417C22.7738 10.6229 23.0706 10.5 23.38 10.5ZM4.05998 10.5C4.35431 10.4999 4.63781 10.6111 4.85363 10.8112C5.06945 11.0113 5.20165 11.2857 5.22373 11.5792L5.22664 11.6667V16.3333C5.228 16.6361 5.11162 16.9275 4.90209 17.146C4.69256 17.3645 4.40629 17.493 4.10376 17.5044C3.80123 17.5158 3.50613 17.4091 3.28081 17.2069C3.05548 17.0047 2.91758 16.7228 2.89623 16.4208L2.89331 16.3333V11.6667C2.89331 11.3572 3.01623 11.0605 3.23502 10.8417C3.45381 10.6229 3.75056 10.5 4.05998 10.5Z" fill="white"/>
</svg>
