<svg width="28" height="28" viewBox="0 0 28 28" fill="none" xmlns="http://www.w3.org/2000/svg">
<path d="M2.80005 23.0992L4.90002 25.1992L13.2999 16.0993L20.9998 6.99938L11.8999 14.6993L2.80005 23.0992ZM13.9999 8.40076C14.0028 9.39985 14.271 10.3802 14.7772 11.2416L16.8961 9.12269C16.7729 8.65463 16.7819 8.16197 16.9034 7.69498L14.7684 5.56L14.7655 5.56C14.2507 6.43532 13.9968 7.41779 13.9999 8.40081L13.9999 8.40076ZM16.7605 13.222C18.5095 14.25 20.6915 14.2632 22.4421 13.2337L20.3071 11.0987C19.8403 11.2182 19.3461 11.2261 18.878 11.1031L16.7605 13.222ZM16.7605 3.56502L18.8954 5.7C19.3624 5.58072 19.8551 5.5726 20.3232 5.69561L22.4421 3.57669C20.693 2.54863 18.5109 2.53547 16.7605 3.56502ZM22.2992 9.10374L24.4342 11.2387C25.4636 9.48809 25.4509 7.30616 24.4225 5.55711L22.3036 7.67604L22.3065 7.67604C22.4297 8.1441 22.4208 8.63699 22.2992 9.10374Z" fill="white"/>
</svg>
