<svg width="28" height="28" viewBox="0 0 28 28" fill="none" xmlns="http://www.w3.org/2000/svg">
<path d="M13.5625 0.832031L12.9062 1.96953V26.032L13.5625 27.1695L14.2188 26.032V1.96953L13.5625 0.832031Z" fill="white"/>
<path d="M13.5625 6.5625L10.9375 4.8125V3.5L13.5625 5.25V6.5625ZM13.5625 9.1875L10.0625 7V5.6875L13.5625 7.875V9.1875ZM13.5625 6.5625L16.1875 4.8125V3.5L13.5625 5.25V6.5625ZM13.5625 9.1875L17.0625 7V5.6875L13.5625 7.875V9.1875ZM13.5625 21.4375L10.9375 23.1875V24.5L13.5625 22.75V21.4375ZM13.5625 18.8125L10.0625 21V22.3125L13.5625 20.125V18.8125ZM13.5625 21.4375L16.1875 23.1875V24.5L13.5625 22.75V21.4375ZM13.5625 18.8125L17.0625 21V22.3125L13.5625 20.125V18.8125Z" fill="white"/>
<path d="M2.16565 20.5848H3.47815L24.3032 8.55351L24.9594 7.41602H23.6469L2.8219 19.4473L2.16565 20.5848Z" fill="white"/>
<path d="M7.1094 17.7188L6.91252 20.8688L5.77502 21.525L5.9719 18.375L7.1094 17.7188ZM9.3844 16.4062L9.23127 20.5406L8.09377 21.1969L8.2469 17.0625L9.3844 16.4062Z" fill="white"/>
<path d="M7.1094 17.7188L4.28752 16.3187L3.15002 16.975L5.9719 18.375L7.1094 17.7188ZM9.3844 16.4062L5.73127 14.4812L4.59377 15.1375L8.2469 17.0625L9.3844 16.4062ZM19.9938 10.2812L22.8156 11.6813L23.9531 11.025L21.1313 9.625L19.9938 10.2812ZM17.7188 11.5938L21.3719 13.5406L22.5094 12.8844L18.8563 10.9375L17.7188 11.5938Z" fill="white"/>
<path d="M19.9938 10.2809L20.1906 7.13086L21.3281 6.47461L21.1312 9.62461L19.9938 10.2809ZM17.7188 11.5934L17.8719 7.48086L19.0094 6.82461L18.8562 10.9371L17.7188 11.5934Z" fill="white"/>
<path d="M24.9594 20.5848H23.6469L2.8219 8.55351L2.16565 7.41602H3.47815L24.3032 19.4473L24.9594 20.5848Z" fill="white"/>
<path d="M20.0156 17.7188L20.2125 20.8688L21.35 21.525L21.1531 18.375L20.0156 17.7188ZM17.7406 16.4062L17.8937 20.5406L19.0312 21.1969L18.8781 17.0625L17.7406 16.4062Z" fill="white"/>
<path d="M20.0156 17.7184L22.8375 16.3184L23.975 16.9746L21.1531 18.3746L20.0156 17.7184ZM17.7406 16.4059L21.3937 14.4809L22.5312 15.1371L18.8781 17.0621L17.7406 16.4059ZM7.13125 10.2809L4.30938 11.6809L3.17188 11.0246L5.99375 9.62461L7.13125 10.2809ZM9.40625 11.5934L5.75312 13.5402L4.61563 12.884L8.26875 10.9371L9.40625 11.5934ZM7.13125 10.2809L6.93438 7.13086L5.79688 6.47461L5.99375 9.62461L7.13125 10.2809Z" fill="white"/>
<path d="M9.40623 11.593L9.2531 7.48047L8.1156 6.82422L8.26873 10.9367L9.40623 11.593Z" fill="white"/>
<path d="M13.5625 18.134L9.97498 16.0777V11.9434L13.5625 9.86523L17.15 11.9215V16.0559L13.5625 18.134ZM11.0687 15.4434L13.5625 16.8652L16.0562 15.4215V12.5777L13.5625 11.134L11.0687 12.5777V15.4434Z" fill="white"/>
</svg>
