<svg width="28" height="28" viewBox="0 0 28 28" fill="none" xmlns="http://www.w3.org/2000/svg">
<path d="M13.7042 3.50525C11.8554 3.56988 10.0832 4.26016 8.67771 5.46313C7.27224 6.6661 6.3167 8.31051 5.96749 10.1273L5.92374 10.3688L5.66124 10.4738C4.13097 11.1097 2.86278 12.2477 2.0654 13.7004C1.26802 15.1531 0.988959 16.834 1.27414 18.4664C1.55931 20.0988 2.39174 21.5856 3.63442 22.6819C4.8771 23.7782 6.45599 24.4188 8.11124 24.4982L19.8222 24.5L19.9447 24.4913L19.9675 24.486C21.7912 24.3729 23.5059 23.5793 24.7724 22.2623C26.0389 20.9452 26.7648 19.2007 26.8065 17.374C26.8171 17.3192 26.8223 17.2635 26.8222 17.2078C26.822 15.7163 26.3646 14.2607 25.5116 13.0373C24.6586 11.8138 23.4511 10.8812 22.0517 10.3652L22.0097 10.1273C21.6513 8.26209 20.6541 6.58011 19.1897 5.3706C17.7254 4.16109 15.8853 3.49964 13.986 3.5L13.706 3.50525H13.7042ZM20.1705 9.94525C18.8619 9.82875 17.5461 10.0683 16.3625 10.6385C15.1788 11.2088 14.1715 12.0885 13.447 13.1845C13.3291 13.3778 13.2907 13.6092 13.3399 13.8302C13.389 14.0512 13.5219 14.2445 13.7107 14.3695C13.8994 14.4946 14.1292 14.5416 14.3519 14.5008C14.5745 14.4599 14.7727 14.3344 14.9047 14.1505C15.5616 13.1588 16.5204 12.4051 17.6391 12.0011C18.7578 11.597 19.977 11.564 21.1159 11.9071C22.2548 12.2502 23.2529 12.951 23.9624 13.9057C24.6718 14.8604 25.0549 16.0183 25.0547 17.2078L25.0512 17.4615C24.9879 18.8401 24.4125 20.1454 23.4377 21.1222C22.4629 22.099 21.1587 22.6769 19.7802 22.743L19.7207 22.75H8.15499C5.24999 22.6065 2.91724 20.1705 2.91724 17.2078C2.91724 14.707 4.58849 12.5352 6.95974 11.8702C7.13098 11.8222 7.28351 11.7231 7.397 11.5861C7.51049 11.4492 7.57955 11.2809 7.59499 11.1037C7.72412 9.60459 8.3761 8.19851 9.43692 7.13136C10.4978 6.06422 11.8999 5.4039 13.3983 5.26586C14.8967 5.12783 16.3959 5.52086 17.6338 6.37624C18.8718 7.23162 19.7696 8.49491 20.1705 9.94525Z" fill="white"/>
<path d="M13.9862 3.35938L14.3471 3.36703C16.1501 3.4451 17.8824 4.10858 19.2789 5.26195C20.6753 6.41533 21.6539 7.99119 22.0712 9.74687L22.1472 10.1002L22.1478 10.1023L22.1757 10.2626C23.5696 10.7939 24.7725 11.7317 25.6264 12.9565C26.4957 14.2033 26.9622 15.6868 26.9625 17.2068L26.9575 17.3036C26.955 17.33 26.9506 17.3562 26.9461 17.3823C26.9022 19.242 26.1629 21.018 24.8734 22.3589C23.5855 23.6982 21.8427 24.5059 19.9887 24.6241L19.9761 24.6268L19.9657 24.6295L19.9548 24.6301L19.8323 24.6388L19.8274 24.6394L8.10457 24.6377C6.41756 24.5568 4.80852 23.9034 3.54199 22.786C2.27547 21.6687 1.42694 20.1535 1.13629 18.4898C0.845665 16.826 1.13026 15.113 1.94293 13.6324C2.7556 12.1519 4.04795 10.9922 5.60754 10.3441L5.60918 10.343L5.79949 10.2664L5.82957 10.1018L5.83012 10.1002C6.18532 8.25231 7.15737 6.57959 8.58691 5.35602C10.0164 4.13259 11.8187 3.43063 13.6991 3.36484L13.704 3.3643L13.9835 3.35938H13.9862ZM13.7084 3.64484H13.704C11.8887 3.70945 10.1486 4.3875 8.76848 5.56875C7.38714 6.75109 6.44842 8.36764 6.1052 10.1532L6.10465 10.1527L6.04777 10.4693L5.97559 10.4983L5.71309 10.6033L5.71254 10.6027C4.21262 11.2266 2.96963 12.3428 2.18793 13.767C1.40586 15.1918 1.13223 16.8405 1.41191 18.4416C1.6916 20.0427 2.50813 21.5008 3.72684 22.576C4.94561 23.6512 6.4943 24.2798 8.11769 24.3577L19.8197 24.3588L19.9236 24.3517L19.9362 24.349L19.9471 24.3463L19.9586 24.3457C21.7473 24.2348 23.4294 23.4565 24.6716 22.1648C25.9137 20.873 26.6257 19.1619 26.6666 17.3703V17.3583L26.6688 17.3468C26.6776 17.3008 26.6825 17.2542 26.6825 17.2073C26.6822 15.7445 26.2334 14.3167 25.3968 13.1167C24.5602 11.9168 23.3758 11.0022 22.0034 10.4961L21.9279 10.4682L21.9137 10.3889L21.8716 10.151C21.5189 8.31887 20.5392 6.66619 19.1006 5.47797C17.6615 4.28935 15.8532 3.63919 13.9868 3.63938L13.7084 3.64484ZM13.3852 5.12578C14.9162 4.98474 16.4482 5.38655 17.7132 6.26055C18.9781 7.13455 19.8957 8.42522 20.3054 9.90711L20.3595 10.1018L20.1582 10.0843C18.8748 9.97004 17.584 10.2048 16.4231 10.7641C15.2639 11.3226 14.2771 12.1838 13.5668 13.2567L13.5323 13.3191C13.4604 13.4676 13.4404 13.6368 13.4765 13.7992C13.5178 13.9848 13.6297 14.147 13.7882 14.252C13.9467 14.357 14.1394 14.3967 14.3264 14.3625C14.5134 14.3282 14.6803 14.2227 14.7912 14.0683C15.4646 13.0537 16.4464 12.2824 17.5918 11.8687C18.7387 11.4545 19.9886 11.4208 21.1563 11.7725C22.324 12.1242 23.3476 12.8428 24.075 13.8216C24.8023 14.8005 25.1951 15.9879 25.195 17.2073V17.209L25.1911 17.4627V17.4671C25.1262 18.8804 24.5362 20.2189 23.5368 21.2203C22.5378 22.2214 21.2012 22.8136 19.7886 22.8817L19.7371 22.8883L19.7289 22.8894H8.14832C5.16845 22.7422 2.77758 20.2442 2.77746 17.2073C2.77746 14.6435 4.49051 12.4167 6.92168 11.7348C7.06548 11.6944 7.19385 11.6113 7.28918 11.4963C7.38448 11.3813 7.44244 11.2399 7.45543 11.0911L7.4866 10.8051C7.67248 9.38101 8.32154 8.05447 9.33777 7.03219C10.4217 5.94181 11.8542 5.26688 13.3852 5.12578ZM3.05746 17.2073C3.05758 20.0958 5.332 22.4696 8.16199 22.6094H19.7136L19.7639 22.6034L19.7738 22.6023C21.1172 22.5378 22.3882 21.9748 23.3383 21.0229C24.2885 20.0708 24.8494 18.7982 24.9111 17.4545L24.915 17.2073L24.9106 16.9902C24.8672 15.9075 24.4985 14.8609 23.8502 13.9884C23.1587 13.0579 22.1855 12.3748 21.0754 12.0405C19.9653 11.7062 18.7773 11.7386 17.6869 12.1323C16.5965 12.5262 15.6617 13.2608 15.0214 14.2274L15.0187 14.2318C14.8656 14.4451 14.6355 14.5907 14.3772 14.6381C14.119 14.6855 13.8524 14.6306 13.6335 14.4855C13.4146 14.3405 13.2601 14.1163 13.2031 13.8599C13.1461 13.6036 13.1905 13.3349 13.3272 13.1107L13.33 13.1069C14.0683 11.9898 15.0954 11.0932 16.3017 10.512C17.4462 9.96054 18.712 9.71265 19.9778 9.79008C19.5616 8.45216 18.7099 7.28947 17.554 6.49078C16.3431 5.65414 14.8765 5.26967 13.4109 5.40469C11.9453 5.53976 10.5739 6.1858 9.53629 7.22961C8.56351 8.2082 7.94183 9.47799 7.76387 10.8412L7.73434 11.1152C7.71643 11.3207 7.63626 11.5158 7.50465 11.6746C7.37303 11.8334 7.19628 11.9486 6.99769 12.0044C4.68648 12.6525 3.05746 14.7698 3.05746 17.2073Z" fill="white"/>
</svg>
