<svg width="28" height="28" viewBox="0 0 28 28" fill="none" xmlns="http://www.w3.org/2000/svg">
<path d="M14 4C12.0222 4 10.0888 4.58649 8.4443 5.6853C6.79981 6.78412 5.51809 8.3459 4.76121 10.1732C4.00433 12.0004 3.8063 14.0111 4.19215 15.9509C4.578 17.8907 5.53041 19.6725 6.92894 21.0711C8.32746 22.4696 10.1093 23.422 12.0491 23.8078C13.9889 24.1937 15.9996 23.9957 17.8268 23.2388C19.6541 22.4819 21.2159 21.2002 22.3147 19.5557C23.4135 17.9112 24 15.9778 24 14C23.9977 11.3485 22.9434 8.80634 21.0685 6.93147C19.1937 5.05661 16.6515 4.0023 14 4ZM14 22.2609C12.3662 22.2609 10.769 21.7764 9.41051 20.8687C8.05202 19.9609 6.9932 18.6708 6.36796 17.1613C5.74271 15.6518 5.57912 13.9908 5.89786 12.3884C6.21661 10.7859 7.00338 9.31399 8.15869 8.15868C9.31399 7.00338 10.7859 6.21661 12.3884 5.89786C13.9908 5.57911 15.6518 5.74271 17.1613 6.36795C18.6708 6.9932 19.9609 8.05201 20.8687 9.41051C21.7764 10.769 22.2609 12.3662 22.2609 14C22.2586 16.1902 21.3875 18.2901 19.8388 19.8388C18.2901 21.3875 16.1902 22.2586 14 22.2609Z" fill="white"/>
<path d="M14 8C12.8133 8 11.6533 8.35189 10.6666 9.01118C9.67989 9.67047 8.91085 10.6075 8.45673 11.7039C8.0026 12.8003 7.88378 14.0067 8.11529 15.1705C8.3468 16.3344 8.91825 17.4035 9.75736 18.2426C10.5965 19.0818 11.6656 19.6532 12.8295 19.8847C13.9933 20.1162 15.1997 19.9974 16.2961 19.5433C17.3925 19.0891 18.3295 18.3201 18.9888 17.3334C19.6481 16.3467 20 15.1867 20 14C20 12.4087 19.3679 10.8826 18.2426 9.75736C17.1174 8.63214 15.5913 8 14 8ZM14 18.4C13.1298 18.4 12.2791 18.1419 11.5555 17.6585C10.8319 17.175 10.268 16.4878 9.93493 15.6838C9.60191 14.8798 9.51477 13.9951 9.68455 13.1416C9.85432 12.2881 10.2734 11.5041 10.8887 10.8887C11.5041 10.2734 12.2881 9.85432 13.1416 9.68454C13.9951 9.51477 14.8798 9.6019 15.6838 9.93493C16.4878 10.268 17.175 10.8319 17.6585 11.5555C18.1419 12.2791 18.4 13.1298 18.4 14C18.3979 15.1663 17.9336 16.2842 17.1089 17.1089C16.2842 17.9336 15.1663 18.3979 14 18.4Z" fill="white"/>
<path d="M12 14C12 14.2626 12.0517 14.5227 12.1522 14.7654C12.2528 15.008 12.4001 15.2285 12.5858 15.4142C12.7715 15.5999 12.992 15.7472 13.2346 15.8478C13.4773 15.9483 13.7374 16 14 16C14.2626 16 14.5227 15.9483 14.7654 15.8478C15.008 15.7472 15.2285 15.5999 15.4142 15.4142C15.5999 15.2285 15.7472 15.008 15.8478 14.7654C15.9483 14.5227 16 14.2626 16 14C16 13.4696 15.7893 12.9609 15.4142 12.5858C15.0391 12.2107 14.5304 12 14 12C13.4696 12 12.9609 12.2107 12.5858 12.5858C12.2107 12.9609 12 13.4696 12 14Z" fill="white"/>
</svg>
