<svg width="28" height="28" viewBox="0 0 28 28" fill="none" xmlns="http://www.w3.org/2000/svg">
<path d="M13.9941 2.80078C11.3808 2.8036 9.07738 4.45366 8.27396 6.8716C5.66567 6.86913 3.34291 8.49996 2.53443 10.928C1.72613 13.3554 2.62192 16.0064 4.73237 17.5005C3.92398 19.9202 4.79591 22.5794 6.91269 24.0801C9.02893 25.5802 11.8894 25.5681 13.9979 24.0713C16.1065 25.5692 18.968 25.582 21.0849 24.0812C23.2011 22.5811 24.0732 19.923 23.2659 17.5038C25.3776 16.0098 26.2741 13.3582 25.4655 10.9301C24.6571 8.5027 22.3355 6.87178 19.7281 6.87345C18.9245 4.45234 16.6172 2.80078 14.0007 2.80078H13.9942H13.9941ZM13.9942 3.0964H14.0007C16.5218 3.0964 18.7448 4.70421 19.4782 7.05777C19.5003 7.12303 19.5577 7.15981 19.6267 7.16254C22.1462 7.11695 24.3989 8.68279 25.1777 11.0214C25.9568 13.3609 25.0765 15.9206 23.0092 17.3284C22.9525 17.3688 22.9343 17.4339 22.9527 17.498C23.7761 19.8222 22.9458 22.3968 20.9069 23.8422C18.8673 25.2881 16.1004 25.2625 14.0894 23.7791C14.0332 23.7387 13.9634 23.7425 13.9067 23.7791C11.8957 25.2613 9.12971 25.2865 7.09075 23.841C5.05115 22.3951 4.22107 19.8195 5.04564 17.4949C5.06336 17.4374 5.047 17.367 4.98933 17.3254C2.92308 15.9172 2.04374 13.3581 2.82248 11.0193C3.60158 8.67979 5.85557 7.11369 8.37618 7.16043C8.45807 7.16131 8.50742 7.10584 8.52405 7.05504C9.2576 4.7051 11.4766 3.09922 13.9942 3.0964Z" fill="white"/>
<path d="M14.0005 1.96094C16.7691 1.96094 19.2456 3.59102 20.3142 6.05813C23.0292 6.28298 25.3974 8.06717 26.2626 10.665C27.1272 13.2617 26.2888 16.0706 24.2266 17.8192C24.8413 20.4286 23.8176 23.174 21.5709 24.7667C19.3199 26.3626 16.335 26.4538 13.9973 25.0713C11.6599 26.4522 8.67689 26.3606 6.42687 24.7656C4.17956 23.1724 3.15509 20.4258 3.77069 17.8159C1.71005 16.0672 0.873048 13.2586 1.73741 10.6628C2.60265 8.06427 4.9718 6.28022 7.68741 6.05594C8.75543 3.59233 11.228 1.96403 13.9929 1.96094H14.0005ZM13.994 2.80094C11.3808 2.80379 9.07762 4.45396 8.27421 6.87187C5.66595 6.86941 3.34271 8.50001 2.53421 10.928C1.72595 13.3553 2.62187 16.0062 4.7321 17.5004C3.92372 19.9201 4.79576 22.5797 6.91249 24.0804C9.02869 25.5805 11.8893 25.5683 13.9978 24.0716C16.1064 25.5695 18.9679 25.5821 21.0848 24.0815C23.2009 22.5814 24.073 19.9229 23.2657 17.5037C25.3774 16.0097 26.2743 13.3583 25.4658 10.9302C24.6574 8.50286 22.3354 6.87184 19.728 6.87352C18.9243 4.45247 16.6169 2.80094 14.0005 2.80094H13.994ZM14.0005 3.0968C16.5216 3.0968 18.7446 4.70433 19.478 7.05781C19.5002 7.12307 19.5578 7.16008 19.6268 7.16281C22.1463 7.11727 24.3988 8.68303 25.1776 11.0216C25.9567 13.3611 25.0765 15.9209 23.0092 17.3287C22.9526 17.3691 22.9345 17.4341 22.9529 17.4982C23.7762 19.8224 22.9459 22.3971 20.907 23.8425C18.8675 25.2884 16.1007 25.2624 14.0897 23.7791C14.0335 23.7387 13.9631 23.7425 13.9065 23.7791C11.8955 25.2612 9.12969 25.2867 7.09077 23.8414C5.05118 22.3955 4.22089 19.8196 5.04546 17.4949C5.06316 17.4374 5.04679 17.367 4.98913 17.3254C2.92301 15.9172 2.04369 13.358 2.82241 11.0194C3.60152 8.67996 5.85544 7.11399 8.37593 7.16062C8.45782 7.16151 8.5075 7.10588 8.52413 7.05508C9.2577 4.70529 11.4765 3.09973 13.994 3.0968H14.0005ZM13.7933 3.94062C11.7165 4.02555 9.92721 5.37909 9.32585 7.30555L9.32257 7.31648C9.21998 7.62984 8.89847 8.00633 8.36718 8.00063H8.15827C6.07726 8.04492 4.25805 9.36681 3.61921 11.2852C2.98222 13.1987 3.65552 15.2951 5.3003 16.516L5.46218 16.6314L5.47202 16.638L5.48077 16.6445C5.86233 16.92 5.95985 17.3797 5.84827 17.7421L5.84335 17.7591L5.83733 17.776C5.14093 19.7396 5.83771 21.9229 7.5764 23.1556C9.31983 24.3916 11.6892 24.3701 13.4083 23.1031L13.4291 23.0878L13.4509 23.0736C13.7323 22.8919 14.1446 22.832 14.5075 23.0495L14.5797 23.0971L14.5841 23.1004L14.5879 23.1031C16.3069 24.3711 18.6769 24.3935 20.4209 23.1573C22.1592 21.9249 22.8565 19.742 22.161 17.7788L22.1523 17.7541L22.1451 17.7295C22.0399 17.3616 22.144 16.9136 22.5214 16.6445L22.5291 16.6396L22.5362 16.6341C24.2993 15.4335 25.0388 13.2627 24.3808 11.2868C23.7422 9.36926 21.9241 8.0479 19.8439 8.00281H19.6175L19.5934 8.00227C19.2321 7.98794 18.8335 7.77159 18.6829 7.32797L18.6796 7.31813L18.6763 7.30773C18.0557 5.31606 16.1654 3.9368 14.0005 3.9368H13.9951L13.7933 3.94062Z" fill="white"/>
<path d="M18.8608 12.4453C18.715 12.4701 18.5895 12.5796 18.5532 12.7313C18.5492 12.7478 18.5532 12.764 18.5515 12.7806L13.9635 14.4213C13.9435 14.4285 13.9252 14.4395 13.9095 14.4537C13.8938 14.4679 13.8811 14.4851 13.8721 14.5043C13.863 14.5234 13.8578 14.5442 13.8568 14.5653C13.8558 14.5865 13.8589 14.6076 13.8661 14.6276C13.8804 14.6678 13.9102 14.7007 13.9489 14.719C13.9875 14.7373 14.0318 14.7395 14.072 14.7251L18.6605 13.0842C18.7084 13.1321 18.7642 13.1722 18.8341 13.1889C19.0362 13.2373 19.2433 13.1101 19.2916 12.908C19.34 12.7059 19.2128 12.4986 19.0108 12.4503C18.9616 12.4385 18.9106 12.4368 18.8608 12.4453ZM16.9608 9.8787C16.9102 9.87815 16.8601 9.88785 16.8135 9.90723C16.6216 9.98684 16.5289 10.2117 16.6086 10.4036C16.6151 10.4194 16.6277 10.4301 16.6362 10.4446L13.8885 14.4695C13.8766 14.487 13.8682 14.5067 13.8639 14.5274C13.8596 14.5481 13.8594 14.5695 13.8633 14.5903C13.8672 14.6111 13.8752 14.6309 13.8868 14.6486C13.8984 14.6664 13.9133 14.6816 13.9308 14.6936C13.9661 14.7177 14.0095 14.7268 14.0515 14.7189C14.0935 14.711 14.1306 14.6867 14.1547 14.6514L16.9027 10.6261C16.9696 10.6368 17.0384 10.6362 17.1048 10.6086C17.2966 10.529 17.3894 10.3043 17.3097 10.1124C17.25 9.96844 17.1087 9.88017 16.9608 9.8787ZM13.9225 8.96497C13.7762 8.94348 13.623 9.00871 13.5417 9.14173C13.4333 9.31896 13.4902 9.55547 13.6674 9.66391C13.6821 9.6728 13.6986 9.67396 13.7139 9.68061L13.8561 14.5526C13.8567 14.5738 13.8615 14.5946 13.8701 14.6139C13.8788 14.6332 13.8912 14.6507 13.9066 14.6652C13.922 14.6797 13.9401 14.6911 13.9599 14.6986C13.9797 14.7062 14.0007 14.7097 14.0219 14.7091C14.0431 14.7085 14.0639 14.7037 14.0833 14.6951C14.1026 14.6864 14.12 14.674 14.1346 14.6586C14.1491 14.6432 14.1605 14.6251 14.168 14.6052C14.1755 14.5854 14.1791 14.5643 14.1784 14.5432L14.0363 9.67079C14.0965 9.64018 14.152 9.59922 14.1894 9.538C14.2978 9.3607 14.2408 9.12442 14.0635 9.01598C14.0205 8.98961 13.9725 8.97225 13.9225 8.96497ZM10.7931 10.0375C10.5861 10.054 10.4284 10.239 10.4448 10.4462C10.4613 10.6533 10.6462 10.811 10.8533 10.7945C10.8703 10.7932 10.8845 10.7844 10.9008 10.7808L13.8786 14.6388C13.8915 14.6556 13.9076 14.6696 13.926 14.6802C13.9444 14.6907 13.9646 14.6975 13.9857 14.7003C14.0067 14.703 14.028 14.7015 14.0484 14.6959C14.0689 14.6904 14.088 14.6809 14.1048 14.6679C14.1386 14.6418 14.1607 14.6032 14.1661 14.5608C14.1716 14.5184 14.1599 14.4756 14.1338 14.4418L11.1558 10.5835C11.1866 10.5232 11.2074 10.4575 11.2016 10.3859C11.1852 10.1787 11.0002 10.021 10.7931 10.0375ZM9.02387 12.6978C8.97424 12.6938 8.9243 12.6996 8.87692 12.7149C8.82953 12.7302 8.78562 12.7546 8.74772 12.7869C8.58978 12.922 8.57101 13.1644 8.70599 13.3223C8.84106 13.4803 9.08344 13.4991 9.2413 13.3641C9.25428 13.3529 9.26062 13.3376 9.27167 13.3251L13.9475 14.6953C13.9678 14.7013 13.9891 14.7032 14.0102 14.701C14.0312 14.6987 14.0516 14.6923 14.0702 14.6821C14.0888 14.672 14.1052 14.6582 14.1185 14.6417C14.1318 14.6252 14.1417 14.6062 14.1476 14.5859C14.1536 14.5656 14.1555 14.5443 14.1532 14.5232C14.151 14.5021 14.1446 14.4817 14.1344 14.4631C14.1242 14.4445 14.1105 14.4281 14.094 14.4148C14.0775 14.4016 14.0585 14.3917 14.0382 14.3857L9.36191 13.0155C9.35141 12.9486 9.32969 12.8832 9.28295 12.8286C9.25048 12.7908 9.21089 12.7598 9.16643 12.7374C9.12197 12.715 9.07353 12.7015 9.02387 12.6978ZM13.983 14.3874C13.9643 14.3873 13.9457 14.3904 13.9281 14.3967L9.33958 16.0377C9.29175 15.9897 9.23574 15.9496 9.16589 15.9329C8.96383 15.8845 8.75676 16.0119 8.70846 16.214C8.6601 16.4162 8.78728 16.6232 8.98925 16.6716C9.19131 16.7199 9.39854 16.5928 9.44683 16.3907C9.45085 16.374 9.44683 16.3579 9.44853 16.3413L14.0366 14.7005C14.0768 14.6861 14.1097 14.6563 14.1279 14.6177C14.1462 14.579 14.1484 14.5347 14.134 14.4945C14.1229 14.4633 14.1024 14.4362 14.0754 14.4171C14.0484 14.3979 14.0161 14.3876 13.983 14.3874ZM13.9812 14.4002C13.9545 14.3998 13.9281 14.406 13.9044 14.4182C13.8807 14.4304 13.8604 14.4484 13.8453 14.4704L11.0973 18.4959C11.0304 18.4852 10.9617 18.4857 10.8953 18.5133C10.7034 18.5929 10.6107 18.8177 10.6904 19.0097C10.77 19.2016 10.9946 19.2943 11.1864 19.2146C11.3783 19.135 11.4712 18.9102 11.3915 18.7183C11.385 18.7025 11.3723 18.6919 11.3639 18.6775L14.1115 14.6524C14.1356 14.6171 14.1447 14.5736 14.1368 14.5316C14.1289 14.4896 14.1046 14.4524 14.0693 14.4283C14.0433 14.4105 14.0127 14.4008 13.9812 14.4002ZM13.9781 14.4129C13.9569 14.4135 13.9361 14.4183 13.9168 14.427C13.8975 14.4356 13.88 14.448 13.8655 14.4634C13.851 14.4788 13.8396 14.497 13.8321 14.5167C13.8246 14.5365 13.821 14.5576 13.8216 14.5788L13.9638 19.451C13.9035 19.4817 13.8481 19.5227 13.8107 19.5839C13.7022 19.7612 13.7591 19.9975 13.9364 20.1059C14.1136 20.2143 14.35 20.1574 14.4584 19.9801C14.5668 19.8028 14.5098 19.5666 14.3327 19.4581C14.318 19.4492 14.3015 19.4481 14.2862 19.4413L14.144 14.5693C14.1427 14.5266 14.1245 14.4861 14.0934 14.4568C14.0623 14.4274 14.0208 14.4117 13.9781 14.4129ZM13.9908 14.4205C13.9562 14.4211 13.9228 14.4328 13.8953 14.454C13.8786 14.4669 13.8645 14.483 13.8539 14.5014C13.8434 14.5198 13.8366 14.5401 13.8339 14.5611C13.8312 14.5821 13.8326 14.6034 13.8382 14.6239C13.8437 14.6443 13.8533 14.6635 13.8662 14.6803L16.8443 18.5383C16.8134 18.5986 16.7926 18.6643 16.7983 18.736C16.8147 18.9431 16.9997 19.1008 17.2068 19.0843C17.4139 19.0679 17.5717 18.8829 17.5553 18.6757C17.5388 18.4686 17.3538 18.3109 17.1467 18.3273C17.1297 18.3287 17.1155 18.3375 17.0991 18.341L14.1213 14.4831C14.106 14.4632 14.0862 14.4472 14.0635 14.4363C14.0408 14.4254 14.016 14.42 13.9908 14.4205ZM14.0063 14.42C13.9716 14.4202 13.9379 14.4316 13.9102 14.4525C13.8824 14.4734 13.8622 14.5027 13.8525 14.536C13.8465 14.5563 13.8446 14.5776 13.8468 14.5987C13.8491 14.6197 13.8555 14.6402 13.8657 14.6587C13.8758 14.6773 13.8896 14.6937 13.9061 14.707C13.9226 14.7203 13.9415 14.7302 13.9619 14.7362L18.6382 16.1064C18.6487 16.1732 18.6704 16.2386 18.7171 16.2933C18.8522 16.4512 19.0946 16.47 19.2524 16.3349C19.4103 16.1998 19.4291 15.9574 19.2941 15.7995C19.159 15.6415 18.9166 15.6227 18.7588 15.7578C18.7458 15.7689 18.7395 15.7843 18.7284 15.7967L14.0526 14.4265C14.0375 14.4221 14.022 14.4199 14.0063 14.42ZM15.6318 9.21068C15.5823 9.20551 15.5322 9.21017 15.4845 9.22438C15.4368 9.2386 15.3923 9.2621 15.3537 9.29353C15.193 9.42516 15.1689 9.66716 15.3004 9.82792C15.3113 9.84122 15.3266 9.84779 15.3388 9.85923L13.8669 14.5054C13.8605 14.5256 13.8581 14.5469 13.8599 14.568C13.8617 14.5891 13.8677 14.6096 13.8774 14.6284C13.8872 14.6472 13.9005 14.6639 13.9167 14.6776C13.9329 14.6912 13.9516 14.7015 13.9718 14.7079C13.992 14.7143 14.0132 14.7167 14.0343 14.7149C14.0554 14.7131 14.076 14.7071 14.0947 14.6974C14.1135 14.6876 14.1302 14.6743 14.1439 14.6581C14.1575 14.6419 14.1678 14.6232 14.1742 14.603L15.6461 9.95623C15.7132 9.94719 15.779 9.92686 15.8345 9.88141C15.9953 9.74978 16.0195 9.50786 15.888 9.34702C15.8564 9.30855 15.8175 9.2767 15.7735 9.25331C15.7295 9.22991 15.6814 9.21542 15.6318 9.21068ZM12.3139 9.22459C12.1676 9.24623 12.0397 9.35281 12.0002 9.50361C11.9474 9.70457 12.0701 9.91457 12.271 9.96736C12.2876 9.97161 12.3037 9.96798 12.3202 9.96999L13.8597 14.5943C13.8732 14.6349 13.9023 14.6684 13.9405 14.6876C13.9787 14.7067 14.023 14.7099 14.0635 14.6963C14.1041 14.6828 14.1376 14.6538 14.1568 14.6155C14.1759 14.5773 14.179 14.533 14.1655 14.4925L12.6261 9.86765C12.6751 9.82089 12.7162 9.76594 12.7345 9.69645C12.7872 9.49549 12.6647 9.28549 12.4637 9.2327C12.4148 9.21989 12.3639 9.21713 12.3139 9.22459ZM9.77413 11.1283C9.72365 11.1267 9.67337 11.1353 9.62632 11.1537C9.43269 11.2291 9.33502 11.4517 9.41051 11.6454C9.48593 11.839 9.70846 11.9367 9.90201 11.8612C9.91793 11.855 9.9289 11.8425 9.9435 11.8344L13.9062 14.6705C13.9409 14.6953 13.9841 14.7054 14.0263 14.6984C14.0685 14.6914 14.1061 14.6679 14.131 14.6331C14.1559 14.5984 14.1659 14.5551 14.1589 14.513C14.152 14.4708 14.1285 14.4331 14.0938 14.4082L10.1307 11.5718C10.1429 11.5053 10.1439 11.4365 10.1178 11.3696C10.0613 11.2243 9.92187 11.133 9.77413 11.1283ZM8.84415 14.2076C8.69834 14.183 8.54358 14.2448 8.45943 14.3759C8.34716 14.5508 8.39885 14.7884 8.57371 14.9007C8.74849 15.0129 8.98601 14.9612 9.09828 14.7863C9.10755 14.772 9.10902 14.7554 9.11605 14.7403L13.9884 14.7048C14.0096 14.7046 14.0306 14.7003 14.0501 14.6921C14.0696 14.6838 14.0873 14.6718 14.1022 14.6567C14.117 14.6416 14.1288 14.6238 14.1367 14.6041C14.1447 14.5845 14.1487 14.5635 14.1485 14.5423C14.1484 14.5211 14.1441 14.5002 14.1358 14.4807C14.1276 14.4612 14.1155 14.4435 14.1005 14.4287C14.0854 14.4138 14.0675 14.4021 14.0479 14.3941C14.0283 14.3862 14.0073 14.3822 13.9861 14.3823L9.11334 14.4177C9.08398 14.3568 9.04442 14.3005 8.984 14.2616C8.94151 14.2343 8.89393 14.2159 8.84415 14.2076ZM13.9801 14.3931C13.9454 14.3929 13.9116 14.4039 13.8837 14.4245L9.96236 17.3183C9.90286 17.2862 9.83788 17.2639 9.76618 17.2681C9.55879 17.28 9.39707 17.4614 9.40897 17.669C9.42095 17.8764 9.60237 18.0382 9.80983 18.0263C10.0172 18.0143 10.1788 17.8328 10.1668 17.6253C10.1659 17.6083 10.1574 17.594 10.1542 17.5776L14.0752 14.6841C14.0923 14.6715 14.1067 14.6557 14.1176 14.6375C14.1285 14.6194 14.1358 14.5993 14.1389 14.5783C14.1421 14.5574 14.1411 14.536 14.136 14.5155C14.1309 14.4949 14.1218 14.4756 14.1092 14.4585C14.0943 14.4383 14.0749 14.4218 14.0525 14.4105C14.0301 14.3991 14.0052 14.3932 13.9801 14.3931ZM13.9821 14.4064C13.9474 14.4058 13.9135 14.4165 13.8853 14.4367C13.8571 14.457 13.8362 14.4858 13.8257 14.5189L12.3538 19.1656C12.2867 19.1746 12.221 19.195 12.1654 19.2405C12.0046 19.3721 11.9806 19.614 12.1121 19.7749C12.2437 19.9356 12.4854 19.9599 12.6462 19.8283C12.807 19.6967 12.8312 19.4547 12.6996 19.2939C12.6888 19.2807 12.6735 19.274 12.6613 19.2626L14.1332 14.6164C14.1396 14.5962 14.1419 14.575 14.1401 14.5539C14.1383 14.5327 14.1323 14.5122 14.1226 14.4934C14.1128 14.4746 14.0995 14.4579 14.0832 14.4442C14.067 14.4306 14.0483 14.4203 14.0281 14.4139C14.0132 14.4092 13.9977 14.4067 13.9821 14.4064ZM13.9823 14.4172C13.9666 14.4177 13.9512 14.4205 13.9364 14.4254C13.9163 14.4321 13.8977 14.4427 13.8817 14.4566C13.8657 14.4705 13.8526 14.4874 13.8431 14.5063C13.8337 14.5252 13.828 14.5459 13.8265 14.567C13.825 14.5881 13.8277 14.6093 13.8344 14.6294L15.3739 19.2542C15.3251 19.3009 15.2837 19.3559 15.2654 19.4253C15.2127 19.6264 15.3354 19.8364 15.5363 19.8891C15.7372 19.9419 15.9472 19.8193 15.9999 19.6183C16.0527 19.4173 15.93 19.2073 15.729 19.1546C15.7125 19.1502 15.6963 19.1538 15.6797 19.1518L14.1403 14.5275C14.1293 14.4945 14.108 14.466 14.0795 14.4462C14.0511 14.4264 14.0169 14.4161 13.9823 14.4172ZM13.9969 14.4213C13.9718 14.4218 13.9472 14.4281 13.925 14.4398C13.9027 14.4515 13.8835 14.4682 13.8689 14.4887C13.8441 14.5235 13.834 14.5667 13.841 14.6089C13.8481 14.6511 13.8715 14.6887 13.9063 14.7136L17.8693 17.55C17.8572 17.6166 17.8562 17.6854 17.8822 17.7523C17.9577 17.9459 18.1802 18.0438 18.3738 17.9683C18.5674 17.8928 18.665 17.6701 18.5896 17.4765C18.5141 17.2828 18.2916 17.1851 18.0981 17.2606C18.0821 17.2668 18.0712 17.2793 18.0566 17.2875L14.0939 14.4514C14.0657 14.4312 14.0317 14.4206 13.9969 14.4213ZM19.2864 14.1671C19.1405 14.1423 18.9859 14.2043 18.9017 14.3355C18.8924 14.3499 18.8909 14.3664 18.8839 14.3815L14.0115 14.4171C13.9903 14.4173 13.9694 14.4216 13.9499 14.4298C13.9304 14.4381 13.9127 14.4501 13.8979 14.4652C13.883 14.4803 13.8713 14.4981 13.8633 14.5178C13.8554 14.5374 13.8514 14.5584 13.8515 14.5796C13.8517 14.6007 13.856 14.6217 13.8643 14.6412C13.8725 14.6607 13.8845 14.6784 13.8996 14.6932C13.9147 14.7081 13.9325 14.7198 13.9522 14.7278C13.9718 14.7357 13.9928 14.7397 14.0139 14.7396L18.8867 14.7041C18.9161 14.7651 18.9556 14.8214 19.0161 14.8602C19.1909 14.9725 19.4284 14.9208 19.5407 14.7459C19.6529 14.5711 19.6011 14.3335 19.4263 14.2212C19.3838 14.1939 19.3361 14.1755 19.2864 14.1671ZM18.1903 11.0956C17.9829 11.1075 17.8211 11.289 17.833 11.4965C17.834 11.5136 17.8425 11.5279 17.8458 11.5444L13.9249 14.4378C13.9078 14.4504 13.8934 14.4662 13.8825 14.4843C13.8715 14.5025 13.8643 14.5226 13.8611 14.5435C13.8579 14.5645 13.8589 14.5858 13.864 14.6064C13.8691 14.6269 13.8782 14.6463 13.8908 14.6633C13.9033 14.6804 13.9191 14.6948 13.9373 14.7057C13.9554 14.7167 13.9755 14.7239 13.9965 14.7271C14.0174 14.7302 14.0388 14.7292 14.0593 14.7241C14.0799 14.719 14.0992 14.7099 14.1162 14.6974L18.0377 11.8036C18.0972 11.8356 18.1623 11.858 18.2339 11.8538C18.4413 11.8419 18.603 11.6603 18.5911 11.4529C18.5792 11.2454 18.3977 11.0837 18.1903 11.0956Z" fill="white"/>
<path d="M13.9426 8.82578C14.0113 8.83579 14.0775 8.85952 14.1367 8.89578C14.3799 9.04454 14.4577 9.36725 14.309 9.61054C14.2731 9.66927 14.2261 9.71217 14.1783 9.74617L14.2669 12.7786L15.1791 9.8982C15.0139 9.67797 15.0501 9.36047 15.2649 9.18453C15.3178 9.1415 15.379 9.10885 15.4443 9.08937C15.5096 9.06992 15.5783 9.06374 15.6461 9.07078C15.7139 9.07732 15.779 9.0973 15.8392 9.12929C15.8993 9.16132 15.9528 9.20462 15.9961 9.25726C16.1765 9.47788 16.1438 9.80836 15.9234 9.98898C15.87 10.0326 15.8114 10.058 15.7549 10.0743L14.9209 12.7075L16.4719 10.4363C16.377 10.1779 16.503 9.88396 16.7595 9.77734L16.8088 9.75984C16.8583 9.74493 16.9099 9.73743 16.9619 9.73796C17.1629 9.73996 17.3564 9.85972 17.4388 10.0579C17.548 10.3211 17.4219 10.6277 17.1588 10.7371C17.0951 10.7636 17.0316 10.7716 16.9728 10.771L15.2622 13.2757L17.6931 11.4819C17.6889 11.2067 17.9051 10.9712 18.1825 10.9553C18.467 10.9391 18.7147 11.1597 18.731 11.4442C18.7473 11.7287 18.5267 11.9763 18.2421 11.9927C18.1733 11.9967 18.1113 11.9831 18.0562 11.9632L15.8337 13.6027L18.4237 12.6763C18.4801 12.4791 18.646 12.3392 18.8371 12.3066C18.9056 12.2949 18.9757 12.2976 19.0433 12.3137C19.3031 12.376 19.4722 12.6282 19.4376 12.888L19.4277 12.9399C19.3656 13.1999 19.1133 13.3688 18.8535 13.3342L18.8016 13.3244C18.7343 13.3083 18.6786 13.2774 18.6315 13.2423L15.7763 14.2634L18.7972 14.2415C18.9154 14.0736 19.1182 13.9958 19.3096 14.0282L19.3605 14.0397C19.4104 14.0534 19.4583 14.0744 19.5021 14.1026C19.7418 14.2566 19.8123 14.5807 19.6585 14.8206C19.5044 15.0604 19.1803 15.1315 18.9405 14.9776C18.8825 14.9403 18.8399 14.8927 18.807 14.8441L16.0459 14.8638L18.6845 15.6371C18.9011 15.4669 19.2198 15.4966 19.4004 15.7077C19.5857 15.9242 19.56 16.2551 19.3435 16.4405C19.1269 16.6259 18.796 16.6003 18.6107 16.3836C18.5659 16.3311 18.5391 16.2734 18.5216 16.2173L15.6117 15.3648L18.0682 17.1224C18.3286 17.0335 18.6192 17.1662 18.7201 17.4248C18.8235 17.6904 18.6903 17.9944 18.4248 18.098C18.159 18.2016 17.8551 18.0682 17.7516 17.8027C17.7267 17.7386 17.7201 17.6748 17.722 17.6162L15.4755 16.0084L17.1571 18.1861C17.4324 18.1758 17.6727 18.387 17.6947 18.6641C17.7172 18.9484 17.5019 19.2009 17.2178 19.2235C16.9338 19.2461 16.6816 19.0307 16.6589 18.7466C16.6534 18.6777 16.6652 18.6148 16.6841 18.5591L14.8302 16.1577L15.7845 19.0244C16.0483 19.1051 16.2062 19.3843 16.1356 19.6534C16.0631 19.9291 15.7763 20.096 15.5006 20.0236C15.225 19.9512 15.0575 19.6649 15.1299 19.3892C15.1473 19.3227 15.1792 19.2675 15.2152 19.2213L14.3429 16.6012L14.4233 19.3498C14.6523 19.5032 14.723 19.8153 14.5781 20.0526C14.4293 20.2959 14.1065 20.3736 13.8633 20.2248C13.6201 20.076 13.5423 19.7532 13.691 19.5101C13.7269 19.4514 13.7734 19.4079 13.8212 19.3739L13.7326 16.3426L12.8204 19.2219C12.986 19.4422 12.95 19.7601 12.7351 19.9361C12.5144 20.1167 12.1844 20.0833 12.0039 19.8628C11.8236 19.6422 11.8561 19.3123 12.0767 19.1316C12.1299 19.0881 12.1881 19.0621 12.2445 19.0458L13.0785 16.4131L11.5281 18.6843C11.623 18.9429 11.4965 19.2367 11.2399 19.3433C10.9767 19.4525 10.6706 19.326 10.5613 19.0627C10.4521 18.7996 10.5781 18.4929 10.8413 18.3835L10.9151 18.36C10.9535 18.3514 10.9912 18.3497 11.0272 18.3502L12.7367 15.8449L10.3064 17.6381C10.3109 17.9136 10.0954 18.1492 9.81806 18.1653C9.55115 18.1806 9.31676 17.9876 9.27501 17.7289L9.269 17.6764C9.25268 17.3918 9.47338 17.1444 9.7579 17.1279C9.82664 17.1239 9.88883 17.137 9.94384 17.1569L12.1658 15.5173L9.57634 16.4432C9.50115 16.7083 9.22687 16.8715 8.95673 16.8069C8.67961 16.7405 8.50591 16.458 8.57228 16.1807C8.63858 15.9036 8.92109 15.7298 9.19845 15.7962L9.27173 15.8209C9.30759 15.8364 9.33926 15.8564 9.36798 15.8777L12.2232 14.8567L9.20282 14.8786C9.0444 15.104 8.7316 15.1681 8.4979 15.018C8.25796 14.8639 8.18751 14.5393 8.3415 14.2994C8.45753 14.1188 8.66949 14.0353 8.86759 14.0687C8.93617 14.0802 9.00124 14.1057 9.05954 14.143C9.11727 14.1802 9.15962 14.2276 9.19243 14.2759L11.9536 14.2562L9.31493 13.483C9.09837 13.653 8.78024 13.6237 8.59962 13.4124C8.41464 13.1959 8.44001 12.8656 8.6565 12.6802L8.65704 12.6796C8.70887 12.6355 8.76892 12.6021 8.83368 12.5812C8.8986 12.5602 8.96749 12.5521 9.03548 12.5577C9.10326 12.5628 9.16894 12.5812 9.22962 12.6118C9.29047 12.6425 9.34487 12.6848 9.38931 12.7365C9.43401 12.7887 9.46038 12.8469 9.4779 12.9027L12.3878 13.7553L9.93181 11.9977C9.67133 12.0867 9.38078 11.9544 9.27993 11.6958C9.17639 11.4302 9.30964 11.1262 9.57525 11.0226C9.63992 10.9973 9.70928 10.9854 9.77868 10.9876L9.85306 10.9958C10.0253 11.0265 10.1802 11.1432 10.2484 11.3184C10.2733 11.3824 10.2793 11.4454 10.2774 11.5038L12.5229 13.1111L10.8424 10.934C10.5673 10.9441 10.3274 10.7333 10.3053 10.4566C10.2829 10.1724 10.498 9.9198 10.7822 9.8971C11.0662 9.87462 11.3184 10.0899 11.3411 10.374C11.3466 10.4428 11.3342 10.5053 11.3154 10.561L13.1693 12.9629L12.215 10.0956C11.9516 10.0146 11.7944 9.73605 11.865 9.46726C11.9195 9.25963 12.0945 9.11501 12.2932 9.08554C12.362 9.07528 12.4322 9.07886 12.4994 9.09648C12.7752 9.16895 12.942 9.45573 12.8696 9.7314C12.8522 9.79791 12.8202 9.85253 12.7843 9.89874L13.6566 12.5188L13.5762 9.77023C13.3477 9.61668 13.2776 9.30492 13.4225 9.06804C13.5346 8.88497 13.7437 8.79664 13.9426 8.82578ZM14.1039 19.4461L14.1061 19.5347L14.0274 19.5752C13.9805 19.599 13.9493 19.6247 13.93 19.6561C13.8621 19.7673 13.8982 19.9178 14.0093 19.9859C14.1206 20.054 14.271 20.0178 14.3391 19.9066C14.4058 19.7975 14.3719 19.6517 14.2658 19.5817L14.257 19.579C14.2502 19.5769 14.2405 19.5739 14.2297 19.5691L14.1488 19.533L14.146 19.445L14.0356 15.6781L13.9896 15.5381L14.1039 19.4461ZM13.6259 15.6109L12.4606 19.2919L12.3725 19.3039C12.3205 19.3108 12.2824 19.3249 12.2538 19.3482C12.1531 19.4308 12.1379 19.5846 12.2205 19.6856C12.3031 19.7865 12.4565 19.8019 12.5574 19.7195C12.6567 19.6382 12.6729 19.488 12.5945 19.387C12.5928 19.3858 12.5908 19.3843 12.5885 19.3827C12.5829 19.3785 12.5747 19.3725 12.5661 19.3646L12.501 19.3039L12.5278 19.2197L13.708 15.4922V15.4905L13.6259 15.6109ZM14.3145 15.6289L15.5067 19.2093L15.5345 19.2935L15.4706 19.3548C15.4324 19.3913 15.4104 19.425 15.4011 19.4603C15.368 19.5865 15.4457 19.7197 15.5717 19.7529C15.6978 19.786 15.8311 19.7083 15.8643 19.5823C15.8968 19.4585 15.8226 19.3281 15.7008 19.2919H15.6915C15.6845 19.2918 15.6745 19.2916 15.6631 19.2902L15.575 19.2793L15.5466 19.1956L14.3123 15.4862L14.3106 15.4845L14.3145 15.6289ZM11.2131 18.5744L11.1628 18.6477L11.0753 18.6334C11.0363 18.6272 11.0038 18.6271 10.9758 18.6334L10.949 18.6422C10.8287 18.6921 10.7698 18.8348 10.8199 18.9555C10.87 19.076 11.0123 19.1346 11.1327 19.0846C11.2511 19.0354 11.3095 18.897 11.264 18.7778C11.2627 18.7761 11.2608 18.7741 11.2591 18.7718C11.2548 18.7662 11.2491 18.7578 11.2432 18.7477L11.1984 18.6712L11.2481 18.5979L13.3722 15.4856L13.4159 15.3467L11.2131 18.5744ZM17.0095 18.5224L16.969 18.6017C16.945 18.6486 16.9349 18.6876 16.9378 18.7242L16.9466 18.7712C16.9777 18.8774 17.0817 18.953 17.1954 18.9441C17.3254 18.9337 17.4261 18.816 17.4158 18.6859C17.4055 18.5583 17.292 18.4599 17.1648 18.4661C17.1627 18.4669 17.1601 18.4683 17.1571 18.4694C17.1504 18.4717 17.1402 18.4745 17.1287 18.477L17.0423 18.4962L16.9881 18.4262L14.6852 15.4424L14.5655 15.3566L17.0095 18.5224ZM13.0813 15.1898L10.0456 17.4303L9.97392 17.4828L9.89571 17.4407C9.8493 17.4157 9.81075 17.4052 9.77431 17.4073C9.64418 17.4148 9.54152 17.5301 9.549 17.6605C9.55667 17.7907 9.67156 17.8932 9.80165 17.8859C9.92962 17.8785 10.0303 17.767 10.0264 17.6392C10.0257 17.6372 10.0251 17.6343 10.0242 17.6316C10.0221 17.6248 10.0188 17.6152 10.0166 17.6037L10.0002 17.5167L13.2158 15.1427L13.2174 15.1411L13.0813 15.1898ZM14.8821 15.239L17.9506 17.4358L18.0228 17.4872L18.007 17.5747C17.9976 17.6264 17.9996 17.6667 18.013 17.701C18.0605 17.8226 18.2016 17.8845 18.3231 17.8372C18.4445 17.7897 18.5066 17.6482 18.4592 17.5266C18.4126 17.4072 18.2756 17.3456 18.1557 17.3882C18.1539 17.3896 18.1518 17.3918 18.1492 17.3937C18.1434 17.3978 18.1348 17.4033 18.1245 17.409L18.0469 17.4522L17.9752 17.4008L14.7968 15.1258L14.7941 15.1252L14.8821 15.239ZM9.38657 16.1687L9.3029 16.1987L9.24056 16.1359C9.20327 16.0985 9.16907 16.0771 9.13337 16.0686C9.00674 16.0383 8.87505 16.1188 8.84462 16.2458C8.81425 16.3727 8.89497 16.5047 9.02181 16.5351L9.06939 16.5411C9.17799 16.5442 9.27957 16.471 9.30837 16.3634C9.30829 16.3612 9.30842 16.3586 9.30837 16.3557C9.30824 16.3486 9.30826 16.338 9.30946 16.3262L9.31821 16.2387L9.40134 16.2086L12.9478 14.9398L13.0665 14.8529L9.38657 16.1687ZM14.9264 14.872L18.6774 15.9712L18.7627 15.9964L18.7764 16.0839C18.7846 16.136 18.7996 16.1735 18.8234 16.2015C18.9082 16.3006 19.0623 16.3125 19.1614 16.2277C19.2604 16.1429 19.2725 15.9889 19.1877 15.8898C19.1044 15.7924 18.9544 15.7792 18.8552 15.8591C18.8539 15.8611 18.8527 15.8641 18.8508 15.8668C18.8467 15.8726 18.8405 15.8805 18.8327 15.8892L18.7737 15.9554L18.6889 15.9302L15.0746 14.8709L14.9264 14.872ZM8.8211 14.3448C8.72763 14.3291 8.62947 14.3695 8.5772 14.4509C8.50669 14.5608 8.53965 14.7119 8.64939 14.7823C8.75735 14.8516 8.90402 14.8201 8.97587 14.7145C8.97646 14.7126 8.9778 14.7104 8.9786 14.708C8.98081 14.7012 8.98398 14.6914 8.989 14.6806L9.02673 14.6002L9.11478 14.5997L13.0227 14.5707L13.0255 14.5702L12.886 14.5291L9.11423 14.557L9.02564 14.5576L8.98735 14.4777C8.96439 14.4301 8.93899 14.3986 8.90806 14.3787C8.88154 14.3618 8.85186 14.35 8.8211 14.3448ZM19.2631 14.3044C19.1723 14.289 19.0774 14.3271 19.0242 14.4044C19.0235 14.4066 19.0224 14.4095 19.0214 14.4127C19.0193 14.4193 19.0159 14.4289 19.011 14.4394L18.9738 14.5204L18.8847 14.5209L14.9767 14.5494L14.974 14.5499L15.1134 14.5909L18.8858 14.5636L18.9744 14.563L19.0127 14.6429C19.0356 14.6906 19.0611 14.722 19.092 14.7419C19.2017 14.8122 19.3523 14.7794 19.4228 14.6697C19.4932 14.5599 19.4604 14.4088 19.3506 14.3383C19.3241 14.3212 19.2943 14.3096 19.2631 14.3044ZM18.8842 12.5828C18.7936 12.5983 18.7166 12.6651 18.6917 12.7556V12.7649C18.6918 12.7721 18.6918 12.7826 18.6906 12.7944L18.6818 12.8819L18.5987 12.912L15.0517 14.1802L14.933 14.2672L18.6134 12.9519L18.6966 12.9219L18.7595 12.9848C18.797 13.0223 18.831 13.0435 18.8667 13.052L18.9142 13.0586C19.0248 13.0617 19.1289 12.9859 19.1554 12.8748C19.1858 12.7479 19.105 12.6159 18.9782 12.5855C18.9475 12.5782 18.9153 12.5775 18.8842 12.5828ZM9.01251 12.8366C8.98131 12.834 8.94989 12.8379 8.92009 12.8475C8.90515 12.8523 8.89053 12.8585 8.87689 12.8661L8.8386 12.8929C8.73961 12.9777 8.72759 13.1317 8.81235 13.2309C8.89559 13.3282 9.04507 13.3407 9.14431 13.2609C9.14553 13.2591 9.14744 13.2569 9.14923 13.2544C9.15323 13.2486 9.15901 13.2401 9.16673 13.2314L9.22579 13.1652L9.3111 13.1904L12.9249 14.2491L13.0731 14.248L9.32259 13.1494L9.23728 13.1242L9.2236 13.0367C9.21744 12.9975 9.20768 12.9663 9.19298 12.9416L9.17657 12.9191C9.15613 12.8954 9.13125 12.8758 9.10329 12.8617C9.07532 12.8476 9.04485 12.8389 9.0136 12.8366H9.01251ZM9.76939 11.2676C9.738 11.2666 9.70677 11.272 9.67751 11.2834C9.55606 11.3308 9.49339 11.4725 9.54079 11.5941C9.58727 11.7133 9.72396 11.7742 9.84376 11.7319C9.84559 11.7305 9.84819 11.7289 9.85087 11.7269C9.85661 11.7228 9.86518 11.7174 9.87548 11.7116L9.95314 11.6684L10.0248 11.7198L13.2027 13.9943L13.2049 13.9948L13.1168 13.8805L10.0494 11.6848L9.9772 11.6334L9.99306 11.5459C10.0025 11.4942 10.0009 11.4539 9.98759 11.4196C9.9524 11.3292 9.86394 11.2706 9.76939 11.2676ZM18.1984 11.2348C18.0707 11.2421 17.9699 11.3531 17.9731 11.4803C17.9738 11.4825 17.9748 11.4853 17.9758 11.4885C17.978 11.4953 17.9806 11.5054 17.9829 11.5169L18.0004 11.6039L17.9288 11.6564L14.7837 13.9773L14.782 13.979L14.9182 13.9303L17.9545 11.6903L18.0261 11.6378L18.1043 11.6799C18.1507 11.7049 18.1893 11.7154 18.2257 11.7133C18.3558 11.7058 18.459 11.5904 18.4516 11.4601C18.444 11.3299 18.3285 11.2273 18.1984 11.2348ZM16.9592 10.018C16.9276 10.0176 16.8964 10.0239 16.8673 10.036C16.7493 10.085 16.6904 10.2231 16.7355 10.3423C16.7369 10.3441 16.7389 10.3466 16.7409 10.3494C16.7452 10.355 16.7515 10.3634 16.7574 10.3734L16.8017 10.45L14.6273 13.6344L14.5835 13.7734L16.7869 10.5468L16.8372 10.4735L16.9247 10.4872C16.9767 10.4955 17.0169 10.4926 17.051 10.4784C17.1712 10.4285 17.2305 10.2863 17.1806 10.1656C17.1435 10.0761 17.0538 10.0189 16.9592 10.018ZM10.8041 10.1766C10.6743 10.187 10.5742 10.3041 10.5842 10.4341C10.5944 10.5616 10.7074 10.6597 10.8342 10.654C10.8363 10.6532 10.8396 10.6524 10.8429 10.6512C10.8496 10.6489 10.8593 10.6461 10.8708 10.6436L10.9572 10.6244L13.3142 13.6777L13.434 13.7635L11.0452 10.6682L10.9906 10.5982L11.031 10.5194C11.055 10.4725 11.0651 10.4332 11.0622 10.3964C11.0519 10.2663 10.934 10.1662 10.8041 10.1766ZM12.3348 9.36226C12.2412 9.37616 12.1603 9.44472 12.1357 9.53835C12.1032 9.66202 12.1775 9.79238 12.2992 9.82875H12.308L12.337 9.83039L12.425 9.84132L13.6877 13.6344L13.6888 13.6361L13.685 13.4912L12.4934 9.91132L12.4655 9.8271L12.5295 9.76585C12.5676 9.72942 12.5896 9.69588 12.5989 9.66031C12.632 9.53415 12.5543 9.40095 12.4283 9.36773C12.3978 9.35973 12.366 9.35764 12.3348 9.36226ZM15.5706 9.34914C15.5551 9.35057 15.5397 9.35343 15.5247 9.35789C15.4946 9.36684 15.4665 9.38182 15.4421 9.40164L15.4416 9.40109C15.3428 9.48238 15.3272 9.63222 15.4049 9.73304C15.4068 9.73435 15.4095 9.73607 15.412 9.73796C15.4178 9.7422 15.4259 9.7485 15.4345 9.75656L15.499 9.81671L15.4722 9.90093L14.2915 13.6279V13.6295L14.3724 13.5109L15.5395 9.82875L15.6275 9.81671C15.6796 9.80968 15.7172 9.79562 15.7456 9.77242C15.8464 9.6899 15.8622 9.53656 15.7801 9.43554L15.7467 9.40218C15.7347 9.39235 15.7217 9.38382 15.7079 9.37648C15.6802 9.36174 15.6494 9.35213 15.6182 9.34914H15.5706ZM13.9021 9.10304C13.8086 9.0893 13.7116 9.13124 13.6609 9.21406C13.5941 9.3233 13.6283 9.46969 13.7348 9.53945C13.7369 9.54004 13.7395 9.54077 13.7424 9.54164L13.7698 9.55148L13.8513 9.58703L13.854 9.67617L13.9634 13.4419L14.0099 13.5809L13.8961 9.67398L13.8939 9.58539L13.9727 9.54546C14.0195 9.52167 14.0509 9.49579 14.07 9.46453C14.138 9.35327 14.1019 9.20293 13.9907 9.13476C13.9773 9.12654 13.9628 9.11986 13.9481 9.11453L13.9021 9.10304Z" fill="white"/>
<path d="M15.7807 14.56C15.7807 15.5434 14.9835 16.3406 14 16.3406C13.0166 16.3406 12.2194 15.5434 12.2194 14.56C12.2194 13.5765 13.0166 12.7793 14 12.7793C14.9835 12.7793 15.7807 13.5765 15.7807 14.56Z" fill="white"/>
</svg>
