<svg width="28" height="28" viewBox="0 0 28 28" fill="none" xmlns="http://www.w3.org/2000/svg">
<path d="M3.92004 7.2019C3.92004 7.47826 4.02588 7.74286 4.21539 7.93788C5.42028 9.18313 6.66583 9.80576 7.95204 9.80576C8.98692 9.80576 9.99492 9.4033 10.976 8.5984C11.9572 9.4033 12.9652 9.80576 14 9.80576C15.0349 9.80576 16.0429 9.4033 17.024 8.5984C18.0052 9.4033 19.0132 9.80576 20.048 9.80576C21.3342 9.80576 22.5795 9.18346 23.7837 7.93886C23.975 7.73861 24.0809 7.47519 24.08 7.2019C24.08 6.62664 23.6285 6.16016 23.072 6.16016C22.9382 6.16067 22.8059 6.1879 22.6833 6.24016C22.5607 6.29242 22.4505 6.36859 22.3594 6.46396C21.5476 7.30349 20.7772 7.72326 20.048 7.72326C19.3203 7.72326 18.5518 7.3061 17.7427 6.4718C17.5438 6.2673 17.3043 6.16506 17.024 6.16506C16.7431 6.16506 16.5036 6.2673 16.3053 6.4718C15.4962 7.30545 14.7278 7.72228 14 7.72228C13.2723 7.72228 12.5038 7.30512 11.6947 6.47082C11.4965 6.26632 11.2569 6.16408 10.976 6.16408C10.6951 6.16408 10.4556 6.26632 10.2573 6.47082C9.44825 7.30512 8.67982 7.72228 7.95204 7.72228C7.22225 7.72228 6.4518 7.30316 5.6407 6.46494C5.54971 6.36939 5.43951 6.29304 5.31692 6.24061C5.19433 6.18818 5.06197 6.1608 4.92804 6.16016C4.37163 6.16016 3.92004 6.62664 3.92004 7.2019ZM3.92004 13.2191C3.92004 13.4955 4.02588 13.7601 4.21539 13.9551C5.42028 15.2003 6.66583 15.823 7.95204 15.823C8.98692 15.823 9.99492 15.4205 10.976 14.6156C11.9572 15.4205 12.9652 15.823 14 15.823C15.0349 15.823 16.0429 15.4205 17.024 14.6156C18.0052 15.4205 19.0132 15.823 20.048 15.823C21.3342 15.823 22.5795 15.2007 23.7837 13.9561C23.975 13.7558 24.0809 13.4924 24.08 13.2191C24.08 12.6438 23.6285 12.1774 23.072 12.1774C22.9381 12.178 22.8058 12.2054 22.6832 12.2578C22.5606 12.3102 22.4504 12.3866 22.3594 12.4821C21.5476 13.3204 20.7772 13.7395 20.048 13.7395C19.3203 13.7395 18.5518 13.3223 17.7427 12.488C17.5438 12.2835 17.3043 12.1813 17.024 12.1813C16.7431 12.1813 16.5036 12.2835 16.3053 12.488C15.4962 13.3223 14.7278 13.7395 14 13.7395C13.2723 13.7395 12.5038 13.3223 11.6947 12.488C11.4965 12.2835 11.2569 12.1813 10.976 12.1813C10.6951 12.1813 10.4556 12.2835 10.2573 12.488C9.44825 13.3223 8.67982 13.7395 7.95204 13.7395C7.22225 13.7395 6.4518 13.3204 5.6407 12.4821C5.54971 12.3866 5.43951 12.3102 5.31692 12.2578C5.19433 12.2054 5.06197 12.178 4.92804 12.1774C4.37163 12.1774 3.92004 12.6438 3.92004 13.2191ZM3.92004 19.2363C3.92004 19.5127 4.02588 19.7773 4.21539 19.9723C5.42028 21.2175 6.66583 21.8402 7.95204 21.8402C8.98692 21.8402 9.99492 21.4377 10.976 20.6328C11.9572 21.4377 12.9652 21.8402 14 21.8402C15.0349 21.8402 16.0429 21.4377 17.024 20.6328C18.0052 21.4377 19.0132 21.8402 20.048 21.8402C21.3342 21.8402 22.5795 21.2179 23.7837 19.9733C23.975 19.773 24.0809 19.5096 24.08 19.2363C24.08 18.661 23.6285 18.1946 23.072 18.1946C22.9382 18.1951 22.8059 18.2223 22.6833 18.2746C22.5607 18.3268 22.4505 18.403 22.3594 18.4984C21.5476 19.3379 20.7772 19.7577 20.048 19.7577C19.3203 19.7577 18.5518 19.3405 17.7427 18.5062C17.5438 18.3017 17.3043 18.1995 17.024 18.1995C16.7431 18.1995 16.5036 18.3017 16.3053 18.5062C15.4962 19.3405 14.7278 19.7577 14 19.7577C13.2723 19.7577 12.5038 19.3405 11.6947 18.5062C11.4965 18.3017 11.2569 18.1995 10.976 18.1995C10.6951 18.1995 10.4556 18.3017 10.2573 18.5062C9.44825 19.3399 8.67982 19.7567 7.95204 19.7567C7.22225 19.7567 6.4518 19.3376 5.6407 18.4993C5.54971 18.4038 5.43951 18.3274 5.31692 18.275C5.19433 18.2226 5.06197 18.1952 4.92804 18.1946C4.37163 18.1946 3.92004 18.661 3.92004 19.2363Z" fill="white"/>
</svg>
