<svg width="28" height="28" viewBox="0 0 28 28" fill="none" xmlns="http://www.w3.org/2000/svg">
<path d="M5.11765 20.6667C4.82123 20.6667 4.53695 20.5496 4.32735 20.3412C4.11775 20.1329 4 19.8502 4 19.5556L4 5.11111C4 4.81643 4.11775 4.53381 4.32735 4.32544C4.53695 4.11706 4.82123 4 5.11765 4C5.41406 4 5.69834 4.11706 5.90794 4.32544C6.11754 4.53381 6.23529 4.81643 6.23529 5.11111L6.23529 19.5556C6.23529 19.8502 6.11754 20.1329 5.90794 20.3412C5.69834 20.5496 5.41407 20.6667 5.11765 20.6667ZM8.47059 24C8.17417 24 7.88989 23.8829 7.68029 23.6746C7.47069 23.4662 7.35294 23.1836 7.35294 22.8889L7.35294 7.33333C7.35294 7.18742 7.38185 7.04293 7.43802 6.90813C7.49418 6.77332 7.57651 6.65083 7.68029 6.54766C7.78407 6.44448 7.90728 6.36264 8.04288 6.3068C8.17848 6.25096 8.32382 6.22222 8.47059 6.22222C8.61736 6.22222 8.76269 6.25096 8.89829 6.3068C9.03389 6.36264 9.1571 6.44448 9.26088 6.54766C9.36467 6.65083 9.44699 6.77332 9.50316 6.90813C9.55933 7.04293 9.58823 7.18742 9.58823 7.33333L9.58823 22.8889C9.58823 23.1836 9.47048 23.4662 9.26088 23.6746C9.05128 23.8829 8.76701 24 8.47059 24ZM11.8235 19.5556C11.5271 19.5556 11.2428 19.4385 11.0332 19.2301C10.8236 19.0217 10.7059 18.7391 10.7059 18.4444L10.7059 5.11111C10.7059 4.81643 10.8236 4.53381 11.0332 4.32544C11.2428 4.11706 11.5271 4 11.8235 4C12.1199 4 12.4042 4.11706 12.6138 4.32544C12.8234 4.53381 12.9412 4.81643 12.9412 5.11111L12.9412 18.4444C12.9412 18.7391 12.8234 19.0217 12.6138 19.2301C12.4042 19.4385 12.1199 19.5556 11.8235 19.5556ZM15.1765 22.8889C14.8801 22.8889 14.5958 22.7718 14.3862 22.5635C14.1766 22.3551 14.0588 22.0725 14.0588 21.7778L14.0588 7.33333C14.0588 7.03865 14.1766 6.75603 14.3862 6.54766C14.5958 6.33928 14.8801 6.22222 15.1765 6.22222C15.4729 6.22222 15.7572 6.33928 15.9668 6.54766C16.1764 6.75603 16.2941 7.03865 16.2941 7.33333L16.2941 21.7778C16.2941 22.0725 16.1764 22.3551 15.9668 22.5635C15.7572 22.7718 15.4729 22.8889 15.1765 22.8889ZM18.5294 19.5556C18.233 19.5556 17.9487 19.4385 17.7391 19.2301C17.5295 19.0217 17.4118 18.7391 17.4118 18.4444L17.4118 10.6667C17.4118 10.372 17.5295 10.0894 17.7391 9.88099C17.9487 9.67262 18.233 9.55555 18.5294 9.55555C18.8258 9.55555 19.1101 9.67262 19.3197 9.88099C19.5293 10.0894 19.6471 10.372 19.6471 10.6667L19.6471 18.4444C19.6471 18.7391 19.5293 19.0217 19.3197 19.2301C19.1101 19.4385 18.8258 19.5556 18.5294 19.5556ZM21.8824 16.2222C21.5859 16.2222 21.3017 16.1052 21.0921 15.8968C20.8825 15.6884 20.7647 15.4058 20.7647 15.1111L20.7647 11.7778C20.7647 11.4831 20.8825 11.2005 21.0921 10.9921C21.3017 10.7837 21.5859 10.6667 21.8824 10.6667C22.1788 10.6667 22.463 10.7837 22.6726 10.9921C22.8822 11.2005 23 11.4831 23 11.7778L23 15.1111C23 15.4058 22.8822 15.6884 22.6726 15.8968C22.463 16.1052 22.1788 16.2222 21.8824 16.2222Z" fill="white"/>
</svg>
