<svg width="28" height="28" viewBox="0 0 28 28" fill="none" xmlns="http://www.w3.org/2000/svg">
<path d="M14 9.74414C21.3454 9.74414 27.3 15.6987 27.3 23.0441C27.3 23.3226 27.1893 23.5897 26.9924 23.7866C26.7955 23.9835 26.5284 24.0941 26.25 24.0941C25.9715 24.0941 25.7044 23.9835 25.5075 23.7866C25.3106 23.5897 25.2 23.3226 25.2 23.0441C25.2 16.8586 20.1855 11.8441 14 11.8441C7.8144 11.8441 2.79995 16.8586 2.79995 23.0441C2.79995 23.3226 2.68933 23.5897 2.49241 23.7866C2.2955 23.9835 2.02843 24.0941 1.74995 24.0941C1.47147 24.0941 1.2044 23.9835 1.00749 23.7866C0.810576 23.5897 0.699951 23.3226 0.699951 23.0441C0.699951 15.6987 6.6545 9.74414 14 9.74414ZM14 13.9441C16.4454 13.9441 18.7397 14.9145 20.4347 16.6094C22.1296 18.3044 23.1 20.5987 23.1 23.0441C23.1 23.3226 22.9893 23.5897 22.7924 23.7866C22.5955 23.9835 22.3284 24.0941 22.05 24.0941C21.7715 24.0941 21.5044 23.9835 21.3075 23.7866C21.1106 23.5897 21 23.3226 21 23.0441C21 21.1615 20.2546 19.3994 18.9496 18.0944C17.6447 16.7895 15.8826 16.0441 14 16.0441C12.1173 16.0441 10.3552 16.7895 9.05025 18.0944C7.74528 19.3994 6.99995 21.1615 6.99995 23.0441C6.99995 23.3226 6.88933 23.5897 6.69241 23.7866C6.4955 23.9835 6.22843 24.0941 5.94995 24.0941C5.67147 24.0941 5.4044 23.9835 5.20749 23.7866C5.01058 23.5897 4.89995 23.3226 4.89995 23.0441C4.89995 20.5987 5.87033 18.3044 7.5652 16.6094C9.26025 14.9145 11.5545 13.9441 14 13.9441ZM14.0105 18.1441L14.1008 18.1452C15.3655 18.1697 16.5714 18.6837 17.465 19.5791C17.9205 20.0338 18.2818 20.5739 18.5281 21.1685C18.7743 21.7631 18.9007 22.4005 18.9 23.0441C18.9 23.3226 18.7893 23.5897 18.5924 23.7866C18.3955 23.9835 18.1284 24.0941 17.85 24.0941C17.5715 24.0941 17.3044 23.9835 17.1075 23.7866C16.9106 23.5897 16.8 23.3226 16.8 23.0441C16.8 22.2904 16.5023 21.5866 15.9799 21.0642C15.4714 20.5556 14.7899 20.2595 14.0689 20.2448L14 20.2441C13.6321 20.2434 13.2678 20.3155 12.928 20.4563C12.5882 20.597 12.2796 20.8036 12.02 21.0642C11.7594 21.3238 11.5528 21.6324 11.4121 21.9722C11.2713 22.312 11.1992 22.6763 11.2 23.0441C11.2 23.3226 11.0893 23.5897 10.8924 23.7866C10.6955 23.9835 10.4284 24.0941 10.15 24.0941C9.87147 24.0941 9.6044 23.9835 9.40749 23.7866C9.21058 23.5897 9.09995 23.3226 9.09995 23.0441C9.09924 22.4006 9.22566 21.7632 9.47195 21.1686C9.71824 20.574 10.0795 20.0339 10.5351 19.5793C11.4474 18.667 12.6836 18.1443 14.0106 18.1443L14.0105 18.1441Z" fill="white"/>
<path d="M6.84993 6.67586L6.70345 6.9436L6.43612 7.09009L6.12524 7.25977L6.70345 7.57674L7.01961 8.15413L7.1897 7.84408L7.33618 7.57633L7.60352 7.43026L7.91439 7.25977L7.33618 6.9436L7.01961 6.36499L6.84993 6.67586ZM9.52002 7.25977C9.52002 7.35336 9.49492 7.44538 9.44718 7.52588L9.40771 7.58325C9.36444 7.63798 9.31025 7.68343 9.24862 7.71712L8.1036 8.34416L7.47697 9.48877L7.43953 9.54777C7.39821 9.60387 7.34567 9.65118 7.28532 9.68693C7.20491 9.73456 7.11307 9.75977 7.01961 9.75977C6.92618 9.75974 6.83429 9.73456 6.75391 9.68693C6.69364 9.6512 6.64139 9.6038 6.6001 9.54777L6.56266 9.48877L5.93604 8.34416L4.79142 7.71712C4.72979 7.68343 4.6756 7.63798 4.63232 7.58325L4.59285 7.52588C4.54512 7.44538 4.52002 7.35336 4.52002 7.25977C4.52002 7.16617 4.54512 7.07415 4.59285 6.99365C4.64059 6.91319 4.70934 6.84728 4.79142 6.80241L5.93604 6.17619L6.56266 5.03076C6.60755 4.94881 6.67354 4.88025 6.75391 4.8326C6.83429 4.78497 6.92618 4.75979 7.01961 4.75977C7.11307 4.75977 7.20491 4.78497 7.28532 4.8326C7.36575 4.88025 7.43205 4.94876 7.47697 5.03076L8.1036 6.17619L9.24862 6.80241C9.3307 6.84728 9.39945 6.91319 9.44718 6.99365C9.49492 7.07415 9.52002 7.16617 9.52002 7.25977Z" fill="white"/>
<path d="M21.0515 5.37602L20.8546 5.73586L20.4953 5.93273L20.0775 6.16078L20.8546 6.5868L21.2795 7.36281L21.5081 6.94609L21.705 6.58625L22.0643 6.38992L22.4821 6.16078L21.705 5.73586L21.2795 4.9582L21.0515 5.37602ZM24.64 6.16078C24.64 6.28657 24.6063 6.41025 24.5422 6.51844L24.4891 6.59555C24.4309 6.6691 24.3581 6.73019 24.2753 6.77547L22.7364 7.6182L21.8942 9.15656L21.8439 9.23586C21.7883 9.31125 21.7177 9.37484 21.6366 9.42289C21.5285 9.4869 21.4051 9.52078 21.2795 9.52078C21.1539 9.52075 21.0304 9.4869 20.9224 9.42289C20.8414 9.37487 20.7712 9.31116 20.7157 9.23586L20.6654 9.15656L19.8232 7.6182L18.2848 6.77547C18.202 6.73019 18.1291 6.6691 18.071 6.59555L18.0179 6.51844C17.9538 6.41025 17.92 6.28657 17.92 6.16078C17.92 6.03499 17.9538 5.91132 18.0179 5.80312C18.0821 5.69498 18.1745 5.6064 18.2848 5.54609L19.8232 4.70445L20.6654 3.165C20.7257 3.05486 20.8144 2.96271 20.9224 2.89867C21.0304 2.83466 21.1539 2.80082 21.2795 2.80078C21.4051 2.80078 21.5285 2.83466 21.6366 2.89867C21.7447 2.96272 21.8338 3.05479 21.8942 3.165L22.7364 4.70445L24.2753 5.54609C24.3856 5.6064 24.478 5.69498 24.5422 5.80312C24.6063 5.91132 24.64 6.03499 24.64 6.16078Z" fill="white"/>
<path d="M9.76266 3.11804L9.62231 2.86145C9.61224 2.84309 9.59743 2.82776 9.57941 2.81709C9.5614 2.80641 9.54084 2.80078 9.5199 2.80078C9.49896 2.80078 9.47841 2.80641 9.46039 2.81709C9.44238 2.82776 9.42756 2.84309 9.4175 2.86145L9.27715 3.11804L9.02073 3.2583C9.00234 3.26835 8.98699 3.28317 8.9763 3.30121C8.9656 3.31924 8.95996 3.33982 8.95996 3.36078C8.95996 3.38175 8.9656 3.40232 8.9763 3.42036C8.98699 3.43839 9.00234 3.45321 9.02073 3.46326L9.27715 3.60364L9.4175 3.86011C9.42756 3.87848 9.44238 3.8938 9.46039 3.90447C9.47841 3.91515 9.49896 3.92078 9.5199 3.92078C9.54084 3.92078 9.5614 3.91515 9.57941 3.90447C9.59743 3.8938 9.61224 3.87848 9.62231 3.86011L9.76266 3.60364L10.0192 3.46326C10.0376 3.45321 10.0529 3.43839 10.0636 3.42036C10.0743 3.40232 10.08 3.38175 10.08 3.36078C10.08 3.33982 10.0743 3.31924 10.0636 3.30121C10.0529 3.28317 10.0376 3.26835 10.0192 3.2583L9.76266 3.11804Z" fill="white"/>
</svg>
