<svg width="28" height="28" viewBox="0 0 28 28" fill="none" xmlns="http://www.w3.org/2000/svg">
<path d="M23.0071 14.1484C22.9185 14.097 22.8212 14.0477 22.7205 13.9996C22.8212 13.9515 22.9185 13.9023 23.0071 13.8509C23.5087 13.5657 23.9489 13.1841 24.3024 12.7281C24.6559 12.2721 24.9157 11.7507 25.0669 11.1939C25.2181 10.6371 25.2576 10.0558 25.1832 9.48369C25.1089 8.91152 24.9221 8.35972 24.6336 7.86005C24.3451 7.36038 23.9606 6.92271 23.5023 6.57223C23.0439 6.22176 22.5208 5.9654 21.963 5.81793C21.4052 5.67045 20.8237 5.63477 20.252 5.71293C19.6804 5.79109 19.1298 5.98156 18.6321 6.27336C18.5435 6.32477 18.4516 6.38273 18.3608 6.44727C18.3696 6.33789 18.3751 6.22852 18.3751 6.11914C18.3751 4.95882 17.9141 3.84602 17.0937 3.02555C16.2732 2.20508 15.1604 1.74414 14.0001 1.74414C12.8397 1.74414 11.7269 2.20508 10.9065 3.02555C10.086 3.84602 9.62506 4.95882 9.62506 6.11914C9.62506 6.22195 9.62506 6.33133 9.63928 6.44727C9.5485 6.38492 9.45662 6.32477 9.36803 6.27336C8.87028 5.98156 8.31973 5.79109 7.74808 5.71293C7.17642 5.63477 6.59495 5.67045 6.03714 5.81793C5.47933 5.9654 4.9562 6.22176 4.49787 6.57223C4.03954 6.92271 3.65506 7.36038 3.36656 7.86005C3.07807 8.35972 2.89126 8.91152 2.81689 9.48369C2.74252 10.0558 2.78206 10.6371 2.93323 11.1939C3.08441 11.7507 3.34423 12.2721 3.69773 12.7281C4.05124 13.1841 4.49145 13.5657 4.99303 13.8509C5.08162 13.9023 5.17897 13.9515 5.27959 13.9996C5.17897 14.0477 5.08162 14.097 4.99303 14.1484C4.49145 14.4335 4.05124 14.8151 3.69773 15.2711C3.34423 15.7271 3.08441 16.2485 2.93323 16.8053C2.78206 17.3622 2.74252 17.9434 2.81689 18.5155C2.89126 19.0877 3.07807 19.6395 3.36656 20.1392C3.65506 20.6388 4.03954 21.0765 4.49787 21.427C4.9562 21.7775 5.47933 22.0338 6.03714 22.1813C6.59495 22.3288 7.17642 22.3645 7.74808 22.2863C8.31973 22.2081 8.87028 22.0177 9.36803 21.7259C9.45662 21.6745 9.5485 21.6165 9.63928 21.552C9.63053 21.6613 9.62506 21.7707 9.62506 21.8746C9.62506 23.0349 10.086 24.1477 10.9065 24.9682C11.7269 25.7887 12.8397 26.2496 14.0001 26.2496C15.1604 26.2496 16.2732 25.7887 17.0937 24.9682C17.9141 24.1477 18.3751 23.0349 18.3751 21.8746C18.3751 21.7718 18.3696 21.6624 18.3608 21.552C18.4516 21.6143 18.5435 21.6745 18.6321 21.7259C19.2948 22.1097 20.0471 22.312 20.813 22.3121C21.1979 22.3116 21.581 22.2609 21.9527 22.1612C22.7885 21.9372 23.5391 21.4703 24.1096 20.8197C24.6801 20.1691 25.0449 19.3639 25.1577 18.5059C25.2706 17.648 25.1265 16.7759 24.7437 15.9999C24.3609 15.2238 23.7565 14.5787 23.0071 14.1462V14.1484ZM11.3751 13.9996C11.3751 13.4804 11.529 12.9729 11.8175 12.5412C12.1059 12.1096 12.5159 11.7731 12.9955 11.5744C13.4752 11.3757 14.003 11.3238 14.5122 11.425C15.0214 11.5263 15.4891 11.7763 15.8562 12.1435C16.2233 12.5106 16.4733 12.9783 16.5746 13.4875C16.6759 13.9967 16.6239 14.5245 16.4252 15.0042C16.2266 15.4838 15.8901 15.8938 15.4584 16.1822C15.0268 16.4707 14.5192 16.6246 14.0001 16.6246C13.3039 16.6246 12.6362 16.348 12.1439 15.8558C11.6516 15.3635 11.3751 14.6958 11.3751 13.9996ZM19.5071 7.7882C19.8056 7.61584 20.1352 7.50397 20.477 7.45898C20.8188 7.41399 21.166 7.43675 21.499 7.52598C21.832 7.6152 22.1441 7.76914 22.4176 7.97899C22.6911 8.18885 22.9206 8.45052 23.093 8.74906C23.2653 9.04761 23.3772 9.37717 23.4222 9.71895C23.4672 10.0607 23.4444 10.408 23.3552 10.741C23.266 11.074 23.112 11.3861 22.9022 11.6596C22.6923 11.9331 22.4306 12.1626 22.1321 12.3349C21.4463 12.732 20.0966 13.0054 18.2865 13.1213C18.0955 12.1953 17.6097 11.3561 16.9018 10.7293C17.908 9.21774 18.8213 8.18524 19.5071 7.7882ZM14.0001 3.49961C14.6963 3.49961 15.3639 3.77617 15.8562 4.26845C16.3485 4.76074 16.6251 5.42842 16.6251 6.12461C16.6251 6.91648 16.1876 8.22352 15.3826 9.84992C14.4854 9.54943 13.5147 9.54943 12.6176 9.84992C11.8126 8.22352 11.3751 6.91648 11.3751 6.12461C11.3751 5.42842 11.6516 4.76074 12.1439 4.26845C12.6362 3.77617 13.3039 3.49961 14.0001 3.49961ZM4.90662 8.74961C5.07893 8.45095 5.3084 8.18916 5.58191 7.9792C5.85541 7.76923 6.16761 7.61521 6.50066 7.52593C6.8337 7.43665 7.18108 7.41386 7.52293 7.45886C7.86479 7.50387 8.19443 7.61578 8.49303 7.7882C9.17881 8.18524 10.0921 9.21774 11.0983 10.7293C10.3898 11.3569 9.90395 12.1974 9.71365 13.1246C7.9035 13.0087 6.55381 12.7352 5.86803 12.3393C5.56893 12.167 5.30675 11.9374 5.09651 11.6636C4.88626 11.3898 4.73207 11.0773 4.64277 10.7439C4.55347 10.4104 4.53081 10.0627 4.57608 9.72046C4.62136 9.37826 4.73368 9.04835 4.90662 8.74961ZM8.49303 20.211C7.8901 20.5591 7.17358 20.6534 6.5011 20.4732C5.82862 20.293 5.25527 19.8531 4.90717 19.2502C4.55907 18.6472 4.46475 17.9307 4.64494 17.2582C4.82514 16.5857 5.2651 16.0124 5.86803 15.6643C6.55381 15.2673 7.9035 14.9938 9.71365 14.8779C9.90461 15.8039 10.3904 16.6432 11.0983 17.2699C10.0921 18.7815 9.17881 19.814 8.49303 20.211ZM14.0001 24.4996C13.3039 24.4996 12.6362 24.2231 12.1439 23.7308C11.6516 23.2385 11.3751 22.5708 11.3751 21.8746C11.3751 21.0827 11.8126 19.7757 12.6176 18.1493C13.5147 18.4498 14.4854 18.4498 15.3826 18.1493C16.1876 19.7757 16.6251 21.0827 16.6251 21.8746C16.6251 22.5708 16.3485 23.2385 15.8562 23.7308C15.3639 24.2231 14.6963 24.4996 14.0001 24.4996ZM23.0935 19.2496C22.9212 19.5483 22.6917 19.8101 22.4182 20.02C22.1447 20.23 21.8325 20.384 21.4995 20.4733C21.1664 20.5626 20.819 20.5854 20.4772 20.5404C20.1353 20.4954 19.8057 20.3834 19.5071 20.211C18.8213 19.814 17.908 18.7815 16.9018 17.2699C17.6103 16.6423 18.0962 15.8018 18.2865 14.8746C20.0966 14.9905 21.4463 15.264 22.1321 15.6599C22.4312 15.8322 22.6934 16.0618 22.9036 16.3356C23.1139 16.6094 23.268 16.9219 23.3573 17.2554C23.4466 17.5888 23.4693 17.9366 23.424 18.2788C23.3788 18.621 23.2664 18.9509 23.0935 19.2496Z" fill="white"/>
</svg>
