<svg width="28" height="28" viewBox="0 0 28 28" fill="none" xmlns="http://www.w3.org/2000/svg">
<path d="M16.8197 18.4396C16.8308 16.9911 17.3123 15.3018 18.7266 13.4842C22.3113 8.87675 19.0113 5.72662 18.8697 5.59478C18.5895 5.33564 18.6011 4.92631 18.8964 4.68031C19.1926 4.43493 19.6589 4.44364 19.941 4.70087C19.9844 4.74003 24.2283 8.71568 19.9524 14.2124C16.3491 18.8433 19.6858 22.3251 19.8291 22.4708C20.0959 22.7413 20.0628 23.1499 19.7546 23.3833C19.4462 23.6169 18.9803 23.5895 18.7123 23.3213C18.6831 23.2924 16.7975 21.3552 16.8197 18.4396L16.8197 18.4396Z" fill="white"/>
<path d="M21.8334 7.32674C22.3926 9.09931 22.3687 11.5635 20.1736 14.3853C18.4272 16.6297 18.3773 18.5663 18.7561 19.9503C19.1392 21.35 19.9704 22.2157 20.0287 22.275L20.0965 22.351C20.4096 22.7439 20.3351 23.2957 19.9237 23.6072L19.8433 23.6624C19.4311 23.9169 18.8631 23.8666 18.516 23.5203L18.5155 23.5208C18.4708 23.4765 16.7726 21.7293 16.562 19.0375L16.5352 19.061L16.5396 18.4382C16.5512 16.9239 17.0561 15.1757 18.5056 13.3128C20.2456 11.0765 20.2953 9.2289 19.9264 7.9387C19.5533 6.6341 18.7397 5.85608 18.6801 5.80041L18.6795 5.80096C18.2741 5.42591 18.2935 4.81909 18.7173 4.46604L18.7178 4.46549C19.1198 4.13247 19.743 4.14183 20.1298 4.49448L20.1298 4.49502C20.1876 4.54787 21.2851 5.58898 21.8334 7.32674ZM19.7317 14.0413C21.8124 11.3666 21.8041 9.09437 21.2996 7.49518C21.0449 6.68788 20.6602 6.04216 20.336 5.59588C20.0165 5.1561 19.7596 4.91524 19.7536 4.90955L19.7525 4.90846C19.5752 4.74689 19.2659 4.73866 19.0755 4.89588L19.0755 4.89643C18.909 5.03533 18.9053 5.24658 19.0601 5.38971L19.0607 5.3908C19.1482 5.4723 20.0504 6.33483 20.4651 7.78502C20.8853 9.25468 20.7922 11.2859 18.9475 13.6568C17.5684 15.4292 17.1102 17.0596 17.0996 18.4425C17.089 19.8389 17.5353 21.0047 17.9916 21.8282C18.4483 22.6525 18.9092 23.1233 18.9092 23.1232L18.9103 23.1243C19.0761 23.2902 19.3851 23.313 19.5857 23.161C19.7633 23.0265 19.7743 22.8146 19.63 22.6682L19.6294 22.6677C19.5418 22.5785 18.6353 21.6307 18.2158 20.0979C17.7913 18.5469 17.875 16.4275 19.7317 14.0413Z" fill="white"/>
<path d="M11.7797 18.4397C11.7894 16.9914 12.2178 15.3023 13.4748 13.4847C16.683 8.84555 13.6352 5.62944 13.6035 5.59733C13.3517 5.33951 13.3609 4.92936 13.6233 4.68231C13.8856 4.43459 14.3023 4.44311 14.5543 4.70133C14.5923 4.74061 18.3653 8.71613 14.5644 14.2125C11.3618 18.8436 14.3274 22.325 14.4552 22.4709C14.6922 22.7411 14.6624 23.1497 14.3882 23.3833C14.1145 23.6169 13.7002 23.5896 13.4619 23.3212C13.4359 23.2925 11.7601 21.3552 11.7797 18.4397L11.7797 18.4397Z" fill="white"/>
<path d="M16.2683 7.33521C16.7626 9.09733 16.7447 11.5524 14.7945 14.3724C13.2415 16.6183 13.1937 18.5635 13.5329 19.9576C13.8751 21.3641 14.6174 22.2313 14.666 22.2868L14.7251 22.3617C14.9992 22.7471 14.9381 23.2833 14.5698 23.5971L14.5698 23.5965C14.1811 23.9282 13.5928 23.8907 13.2523 23.5074L13.2529 23.5068C13.1735 23.4169 11.4808 21.4256 11.5001 18.44L11.4996 18.4384L11.5067 18.1529C11.5688 16.7138 12.0371 15.0719 13.2447 13.3257C14.8015 11.0744 14.8277 9.1948 14.4833 7.88482C14.1392 6.57593 13.4168 5.80793 13.4044 5.79466L13.4033 5.79357C13.0418 5.42338 13.0552 4.83298 13.4312 4.47888L13.4317 4.47942C13.8051 4.12696 14.3959 4.13875 14.7546 4.50622L14.7557 4.50677C14.7926 4.54483 15.7782 5.58812 16.2683 7.33521ZM14.334 14.0536C16.1847 11.3773 16.1811 9.09622 15.7297 7.48669C15.5024 6.67653 15.1592 6.02972 14.8711 5.58357C14.5844 5.13958 14.3545 4.8981 14.3532 4.89669C14.2079 4.74856 13.9665 4.74378 13.8156 4.8863L13.8151 4.88685C13.6666 5.02687 13.6622 5.25667 13.8041 5.402C13.8531 5.45239 14.6465 6.30376 15.0248 7.74263C15.4101 9.20847 15.3564 11.2567 13.7051 13.6445C12.4794 15.4169 12.0689 17.0516 12.0596 18.4422C12.0502 19.8455 12.4488 21.0157 12.8548 21.84C13.2605 22.6638 13.6696 23.1339 13.6696 23.1339L13.6712 23.1355C13.7906 23.2699 13.9896 23.2998 14.1437 23.2143L14.2066 23.1705C14.3427 23.0546 14.3723 22.8645 14.2881 22.7166L14.2449 22.6559C14.1657 22.5655 13.3607 21.6189 12.9887 20.0905C12.6139 18.5498 12.6847 16.4385 14.334 14.0536Z" fill="white"/>
<path d="M6.17986 18.4398C6.19095 16.9916 6.67319 15.302 8.08671 13.4845C11.6964 8.8456 8.26671 5.62939 8.23193 5.59738C7.94836 5.33957 7.95838 4.92951 8.25369 4.68219C8.54921 4.43472 9.01799 4.44299 9.3015 4.70142C9.34463 4.7407 13.5884 8.71618 9.31239 14.2128C5.70968 18.8435 9.0456 22.3251 9.18913 22.4709C9.45647 22.7412 9.42333 23.1497 9.11478 23.3833C8.80626 23.6169 8.34075 23.5895 8.07184 23.3213C8.04336 23.2922 6.15806 21.3553 6.17979 18.4399L6.17986 18.4398Z" fill="white"/>
<path d="M11.1938 7.32734C11.7529 9.09982 11.7284 11.5637 9.5335 14.3853C7.7874 16.6296 7.73734 18.5664 8.116 19.9503C8.49942 21.3514 9.33187 22.2175 9.38858 22.2751C9.77836 22.6697 9.72254 23.2749 9.28358 23.6073C8.86725 23.9224 8.24518 23.8901 7.87428 23.5203L7.87155 23.5181C7.8318 23.4775 5.99748 21.5932 5.90335 18.7198L5.89952 18.4388L5.90116 18.2796L5.90444 18.2774C5.94979 16.801 6.46803 15.1103 7.86553 13.3134C9.61629 11.0635 9.64167 9.19265 9.25733 7.89336C8.86764 6.5762 8.04397 5.80598 8.04217 5.8043C7.63279 5.43084 7.6505 4.82288 8.07389 4.46828C8.47575 4.1318 9.10219 4.1413 9.4903 4.49508L9.4903 4.49562C9.53634 4.53777 10.6428 5.58055 11.1938 7.32734ZM9.09108 14.0413C11.1718 11.3667 11.164 9.09493 10.6595 7.49578C10.4048 6.68849 10.0201 6.04277 9.69592 5.59648C9.3723 5.15094 9.11289 4.90903 9.11296 4.90906C8.93406 4.74599 8.62238 4.73916 8.43319 4.89758C8.26653 5.03723 8.26376 5.24862 8.42007 5.39086L8.42171 5.39195C8.45763 5.42503 9.36362 6.27862 9.79436 7.73477C10.2311 9.21131 10.1663 11.2685 8.30741 13.6574C7.01531 15.3189 6.53136 16.8559 6.46717 18.1806L6.45952 18.4426L6.4628 18.7023C6.55024 21.3539 8.2519 23.1056 8.27186 23.126C8.43925 23.2904 8.74584 23.3122 8.94561 23.161C9.12362 23.0262 9.13441 22.8144 8.98991 22.6683L8.98936 22.6683C8.90221 22.5798 7.99537 21.632 7.57569 20.0985C7.15125 18.5475 7.23455 16.4276 9.09108 14.0413Z" fill="white"/>
</svg>
