<svg width="28" height="28" viewBox="0 0 28 28" fill="none" xmlns="http://www.w3.org/2000/svg">
<path d="M14 6.82422C21.3454 6.82422 27.3 12.7788 27.3 20.1242C27.3 20.4027 27.1893 20.6698 26.9924 20.8667C26.7955 21.0636 26.5284 21.1742 26.25 21.1742C25.9715 21.1742 25.7044 21.0636 25.5075 20.8667C25.3106 20.6698 25.2 20.4027 25.2 20.1242C25.2 13.9387 20.1855 8.92422 14 8.92422C7.8144 8.92422 2.79995 13.9387 2.79995 20.1242C2.79995 20.4027 2.68933 20.6698 2.49241 20.8667C2.2955 21.0636 2.02843 21.1742 1.74995 21.1742C1.47147 21.1742 1.2044 21.0636 1.00749 20.8667C0.810576 20.6698 0.699951 20.4027 0.699951 20.1242C0.699951 12.7788 6.6545 6.82422 14 6.82422ZM14 11.0242C16.4454 11.0242 18.7397 11.9946 20.4347 13.6895C22.1296 15.3845 23.1 17.6788 23.1 20.1242C23.1 20.4027 22.9893 20.6698 22.7924 20.8667C22.5955 21.0636 22.3284 21.1742 22.05 21.1742C21.7715 21.1742 21.5044 21.0636 21.3075 20.8667C21.1106 20.6698 21 20.4027 21 20.1242C21 18.2416 20.2546 16.4795 18.9496 15.1745C17.6447 13.8695 15.8826 13.1242 14 13.1242C12.1173 13.1242 10.3552 13.8695 9.05025 15.1745C7.74528 16.4795 6.99995 18.2416 6.99995 20.1242C6.99995 20.4027 6.88933 20.6698 6.69241 20.8667C6.4955 21.0636 6.22843 21.1742 5.94995 21.1742C5.67147 21.1742 5.4044 21.0636 5.20749 20.8667C5.01058 20.6698 4.89995 20.4027 4.89995 20.1242C4.89995 17.6788 5.87033 15.3845 7.5652 13.6895C9.26025 11.9946 11.5545 11.0242 14 11.0242ZM14.0105 15.2242L14.1008 15.2253C15.3655 15.2498 16.5714 15.7638 17.465 16.6592C17.9205 17.1138 18.2818 17.654 18.5281 18.2486C18.7743 18.8432 18.9007 19.4806 18.9 20.1242C18.9 20.4027 18.7893 20.6698 18.5924 20.8667C18.3955 21.0636 18.1284 21.1742 17.85 21.1742C17.5715 21.1742 17.3044 21.0636 17.1075 20.8667C16.9106 20.6698 16.8 20.4027 16.8 20.1242C16.8 19.3705 16.5023 18.6666 15.9799 18.1443C15.4714 17.6357 14.7899 17.3396 14.0689 17.3249L14 17.3242C13.6321 17.3235 13.2678 17.3956 12.928 17.5364C12.5882 17.6771 12.2796 17.8837 12.02 18.1443C11.7594 18.4039 11.5528 18.7125 11.4121 19.0523C11.2713 19.3921 11.1992 19.7564 11.2 20.1242C11.2 20.4027 11.0893 20.6698 10.8924 20.8667C10.6955 21.0636 10.4284 21.1742 10.15 21.1742C9.87147 21.1742 9.6044 21.0636 9.40749 20.8667C9.21058 20.6698 9.09995 20.4027 9.09995 20.1242C9.09924 19.4806 9.22566 18.8433 9.47195 18.2487C9.71824 17.6541 10.0795 17.114 10.5351 16.6594C11.4474 15.7471 12.6836 15.2244 14.0106 15.2244L14.0105 15.2242Z" fill="white"/>
</svg>
