<svg width="28" height="28" viewBox="0 0 28 28" fill="none" xmlns="http://www.w3.org/2000/svg">
<path d="M23.2077 16.4807C22.6197 18.6578 21.2775 20.5535 19.4209 21.8294C17.5642 23.1053 15.3137 23.6783 13.0713 23.4461C8.59737 23.0991 4.63797 20.1893 2.97941 15.9106C2.84013 15.5511 2.71822 15.1851 2.61411 14.8139L2.59285 14.737C2.22295 13.3847 2.09451 11.978 2.21346 10.5819C2.71767 12.0858 3.51287 13.476 4.55358 14.6731C4.47548 13.6366 4.56833 12.5947 4.8284 11.589C5.44146 9.20988 6.95092 7.16224 9.04054 5.87512C11.1301 4.58801 13.6378 4.1613 16.038 4.68438C18.3442 5.09462 20.4781 6.18092 22.1691 7.80556C23.8601 9.43019 25.0321 11.52 25.5364 13.81C25.7991 14.9891 25.8806 16.2022 25.7783 17.407C25.2872 15.9428 24.5203 14.586 23.5192 13.4101C23.5314 13.6033 23.5369 13.7968 23.5375 13.9898L23.5366 14.0423C23.533 14.866 23.4228 15.6853 23.2077 16.4807ZM6.52766 13.9742C6.522 14.9649 6.71215 15.9473 7.08716 16.8648C7.46216 17.7823 8.01462 18.6169 8.71272 19.3204C9.41082 20.0239 10.2408 20.5825 11.1548 20.964C12.0688 21.3455 13.0489 21.5424 14.0385 21.5433C15.0282 21.5442 16.0079 21.3492 16.9212 20.9694C17.8345 20.5896 18.6635 20.0326 19.3603 19.3304C20.0571 18.6282 20.608 17.7947 20.9813 16.8779C21.3547 15.9611 21.543 14.9791 21.5355 13.9884C21.5206 12.0047 20.7225 10.106 19.3153 8.70664C17.9082 7.30728 16.0064 6.52086 14.0248 6.51899C12.0432 6.51712 10.1427 7.29997 8.73819 8.69668C7.33363 10.0934 6.53899 11.9906 6.52766 13.9742ZM8.99311 13.9765C8.98934 14.6369 9.1161 15.2918 9.3661 15.9035C9.61611 16.5152 9.98441 17.0716 10.4498 17.5406C10.9152 18.0096 11.4685 18.382 12.0779 18.6363C12.6872 18.8906 13.3406 19.0219 14.0003 19.0225C14.6601 19.0231 15.3132 18.8931 15.9221 18.6399C16.531 18.3867 17.0836 18.0154 17.5482 17.5473C18.0127 17.0791 18.38 16.5235 18.6289 15.9123C18.8778 15.301 19.0033 14.6464 18.9984 13.9859C18.9884 12.6635 18.4563 11.3977 17.5182 10.4647C16.5802 9.53184 15.3122 9.00755 13.9912 9.00631C12.6701 9.00506 11.4032 9.52696 10.4668 10.4581C9.53042 11.3892 9.00066 12.654 8.99311 13.9765ZM16.9973 13.984C17.0003 14.3803 16.925 14.7731 16.7756 15.1398C16.6263 15.5066 16.4059 15.84 16.1272 16.1208C15.8485 16.4017 15.5169 16.6245 15.1516 16.7764C14.7862 16.9283 14.3944 17.0064 13.9985 17.006C13.6026 17.0056 13.2106 16.9269 12.845 16.7743C12.4794 16.6217 12.1474 16.3982 11.8682 16.1168C11.5889 15.8354 11.368 15.5016 11.218 15.1346C11.068 14.7676 10.9919 14.3746 10.9942 13.9784C10.9987 13.1849 11.3165 12.426 11.8784 11.8673C12.4402 11.3087 13.2004 10.9955 13.993 10.9963C14.7856 10.997 15.5464 11.3116 16.1092 11.8713C16.6721 12.4311 16.9913 13.1905 16.9973 13.984Z" fill="white"/>
</svg>
