<svg width="28" height="28" viewBox="0 0 28 28" fill="none" xmlns="http://www.w3.org/2000/svg">
<path d="M8.01139 15.2215H4.22153C3.54499 15.2215 3 14.6734 3 14C3 13.3266 3.54812 12.7785 4.22153 12.7785H8.01139C8.50313 10.3793 10.3793 8.50313 12.7785 8.01139V4.22153C12.7785 3.54499 13.3266 3 14 3C14.6765 3 15.2215 3.54812 15.2215 4.22153V8.01139C17.6207 8.50313 19.4969 10.3793 19.9886 12.7785H23.7785C24.455 12.7785 25 13.3266 25 14C25 14.6765 24.4519 15.2215 23.7785 15.2215H19.9886C19.4969 17.6207 17.6207 19.4969 15.2215 19.9886V23.7785C15.2215 24.455 14.6734 25 14 25C13.3266 25 12.7785 24.4519 12.7785 23.7785V19.9886C10.3793 19.4969 8.50313 17.6207 8.01139 15.2215ZM14 10.3323C11.9767 10.3323 10.3323 11.9735 10.3323 14C10.3323 16.0265 11.9735 17.6677 14 17.6677C16.0265 17.6677 17.6677 16.0265 17.6677 14C17.6677 11.9735 16.0265 10.3323 14 10.3323ZM21.3323 7.88924C20.8374 7.89237 20.3864 7.59482 20.1953 7.1344C20.0043 6.67711 20.1108 6.14778 20.4647 5.79698L21.6862 4.57546C21.9838 4.22779 22.4536 4.07432 22.9015 4.18081C23.3494 4.2873 23.697 4.6381 23.8035 5.08286C23.91 5.53075 23.7597 5.99744 23.4089 6.29812L22.1874 7.51965C21.9618 7.75142 21.6549 7.88297 21.3323 7.88924ZM5.44618 23.7753C4.95131 23.7785 4.50028 23.4809 4.30923 23.0205C4.11817 22.5632 4.22466 22.0339 4.57859 21.6831L5.80011 20.4616C6.09766 20.1139 6.56748 19.9604 7.01538 20.0669C7.46327 20.1734 7.81093 20.5242 7.91743 20.969C8.02392 21.4169 7.87358 21.8835 7.52278 22.1842L6.30125 23.4058C6.07574 23.6407 5.76879 23.7722 5.44618 23.7753ZM22.5538 23.7753C22.2281 23.7785 21.918 23.6501 21.6862 23.4214L20.4647 22.1999C20.0481 21.7144 20.0763 20.9909 20.5273 20.5399C20.9784 20.0888 21.7019 20.0606 22.1874 20.4772L23.4089 21.6987C23.7503 22.0464 23.8536 22.5663 23.6657 23.0205C23.4809 23.4715 23.0456 23.7691 22.5538 23.7753ZM6.66771 7.88924C6.34197 7.89237 6.03189 7.76395 5.80011 7.53531L4.57859 6.31378C4.16202 5.8283 4.1902 5.10478 4.64123 4.65376C5.09225 4.20273 5.81577 4.17454 6.30125 4.59112L7.52278 5.81264C7.86418 6.16344 7.96754 6.68024 7.77961 7.1344C7.59482 7.58229 7.15632 7.88297 6.66771 7.88924Z" fill="white"/>
</svg>
