<svg width="41" height="30" viewBox="0 0 41 30" fill="none" xmlns="http://www.w3.org/2000/svg">
<mask id="mask0_2156_4455" style="mask-type:alpha" maskUnits="userSpaceOnUse" x="0" y="0" width="41" height="30">
<rect width="41" height="30" fill="#D9D9D9"/>
</mask>
<g mask="url(#mask0_2156_4455)">
<rect width="41" height="30" fill="#004692"/>
<path d="M24.3659 13.2023L23.1579 14.4751L39.5077 31.7022L40.7157 30.4294L24.3659 13.2023Z" fill="#F5F7F8"/>
<path d="M21.1446 16.5965L19.1314 18.7178L35.4811 35.9448L37.4944 33.8235L21.1446 16.5965Z" fill="#F5F7F8"/>
<path d="M21.1446 16.5965L23.1579 14.4751L39.5077 31.7022L37.4944 33.8235L21.1446 16.5965Z" fill="#DD2033"/>
<path d="M21.778 18.7156L20.57 17.4428L3.99118 34.9113L5.19916 36.1841L21.778 18.7156Z" fill="#F5F7F8"/>
<path d="M18.5567 15.3215L16.5435 13.2002L-0.035398 30.6686L1.97789 32.79L18.5567 15.3215Z" fill="#F5F7F8"/>
<path d="M18.5567 15.3215L20.57 17.4428L3.99118 34.9113L1.97789 32.79L18.5567 15.3215Z" fill="#DD2033"/>
<path d="M17.1155 17.7889L18.3235 16.5161L1.35183 -1.36629L0.143856 -0.0934934L17.1155 17.7889Z" fill="#F5F7F8"/>
<path d="M20.3368 14.3948L22.3501 12.2734L5.37841 -5.60893L3.36512 -3.48761L20.3368 14.3948Z" fill="#F5F7F8"/>
<path d="M20.3368 14.3948L18.3235 16.5161L1.35183 -1.36629L3.36512 -3.48761L20.3368 14.3948Z" fill="#DD2033"/>
<path d="M18.5643 12.2756L19.7722 13.5484L36.9995 -4.60328L35.7915 -5.87607L18.5643 12.2756Z" fill="#F5F7F8"/>
<path d="M21.7855 15.6697L23.7988 17.791L41.0261 -0.360641L39.0128 -2.48196L21.7855 15.6697Z" fill="#F5F7F8"/>
<path d="M21.7855 15.6697L19.7722 13.5484L36.9995 -4.60328L39.0128 -2.48196L21.7855 15.6697Z" fill="#DD2033"/>
<path fill-rule="evenodd" clip-rule="evenodd" d="M17.0833 36.6004H14.2361L14.2361 21.6004H0V18.6004H14.2361L14.2361 11.4004L0 11.4004V8.40039L14.2361 8.40039L14.2361 -6.59961H17.0833L17.0833 8.40039H23.9167L23.9167 -6.59961H26.7639L26.7639 8.40039L41 8.40039V11.4004L26.7639 11.4004V18.6004L41 18.6004V21.6004L26.7639 21.6004L26.7639 36.6004H23.9167L23.9167 21.6004H17.0833L17.0833 36.6004ZM23.9167 11.4004H17.0833L17.0833 18.6004H23.9167V11.4004Z" fill="#F5F7F8"/>
<path d="M17.0833 36.6004H23.9167L23.9167 18.6004H41V11.4004L23.9167 11.4004L23.9167 -6.59961H17.0833L17.0833 11.4004L0 11.4004V18.6004H17.0833L17.0833 36.6004Z" fill="#DD2033"/>
</g>
</svg>
