<svg width="41" height="30" viewBox="0 0 41 30" fill="none" xmlns="http://www.w3.org/2000/svg">
<g clip-path="url(#clip0_208_795)">
<path d="M40.97 25.035C40.97 26.24 40.49 27.4 39.635 28.255C38.78 29.11 37.625 29.59 36.415 29.59H4.555C3.35 29.59 2.19 29.11 1.335 28.255C0.480001 27.4 0 26.245 0 25.035V4.555C0 3.35 0.480001 2.19 1.335 1.335C2.19 0.480001 3.345 0 4.555 0H36.415C37.62 0 38.78 0.480001 39.635 1.335C40.49 2.19 40.97 3.345 40.97 4.555V25.035Z" fill="#F5F7F8"/>
<circle cx="20.5" cy="15.5" r="7.5" fill="#DD2033"/>
</g>
<defs>
<clipPath id="clip0_208_795">
<rect width="41" height="30" fill="white"/>
</clipPath>
</defs>
</svg>
