<svg xmlns="http://www.w3.org/2000/svg"  viewBox="0 0 64 64" width="256px" height="256px"><rect width="62" height="40" x="1" y="15" fill="#c2cde7" rx="2" ry="2"/><rect width="26" height="6" x="19" y="42.95" fill="#faefde" rx="1" ry="1" transform="rotate(-180 32 45.95)"/><rect width="8" height="6" x="7" y="42.95" fill="#faefde" rx="1" ry="1" transform="rotate(-180 11 45.95)"/><rect width="8" height="6" x="49" y="42.95" fill="#faefde" rx="1" ry="1" transform="rotate(-180 53 45.95)"/><path fill="#ced8ed" d="M5,15H59a4,4,0,0,1,4,4v1a1,1,0,0,1-1,1H2a1,1,0,0,1-1-1V19a4,4,0,0,1,4-4Z" transform="rotate(180 32 18)"/><rect width="6" height="6" x="7" y="32.95" fill="#faefde" rx="1" ry="1" transform="rotate(-180 10 35.95)"/><rect width="6" height="6" x="17" y="32.95" fill="#faefde" rx="1" ry="1" transform="rotate(-180 20 35.95)"/><rect width="6" height="6" x="27" y="32.95" fill="#faefde" rx="1" ry="1" transform="rotate(-180 30 35.95)"/><rect width="6" height="6" x="37" y="32.95" fill="#faefde" rx="1" ry="1" transform="rotate(-180 40 35.95)"/><rect width="6" height="4" x="7" y="24.95" fill="#faefde" rx="1" ry="1"/><path fill="#faefde" d="M56,27H52a1,1,0,0,0-1,1v5H48a1,1,0,0,0-1,1v4a1,1,0,0,0,1,1h8a1,1,0,0,0,1-1V28A1,1,0,0,0,56,27Z"/><path fill="#8d6c9f" d="M61,14H34V11a4,4,0,0,0-4-4,2,2,0,0,1-2-2V1a1,1,0,0,0-2,0V5a4,4,0,0,0,4,4,2,2,0,0,1,2,2v3H3a3,3,0,0,0-3,3V53a3,3,0,0,0,3,3H61a3,3,0,0,0,3-3V17A3,3,0,0,0,61,14Zm1,39a1,1,0,0,1-1,1H3a1,1,0,0,1-1-1V17a1,1,0,0,1,1-1H61a1,1,0,0,1,1,1Z"/><path fill="#fc6d74" d="M16,26v2a1,1,0,0,0,2,0V26a1,1,0,0,0-2,0Z"/><path fill="#34c695" d="M21,26v2a1,1,0,0,0,2,0V26a1,1,0,0,0-2,0Z"/><path fill="#5eb0dd" d="M28,28V26a1,1,0,0,0-2,0v2a1,1,0,0,0,2,0Z"/><path fill="#8d6c9f" d="M33 28V26a1 1 0 0 0-2 0v2a1 1 0 0 0 2 0zM38 28V26a1 1 0 0 0-2 0v2a1 1 0 0 0 2 0zM43 28V26a1 1 0 0 0-2 0v2a1 1 0 0 0 2 0zM46 26v2a1 1 0 0 0 2 0V26a1 1 0 0 0-2 0zM8 40h4a2 2 0 0 0 2-2V34a2 2 0 0 0-2-2H8a2 2 0 0 0-2 2v4A2 2 0 0 0 8 40zm0-6h4v4H8V34zM22 40a2 2 0 0 0 2-2V34a2 2 0 0 0-2-2H18a2 2 0 0 0-2 2v4a2 2 0 0 0 2 2zm-4-6h4v4H18V34zM26 38a2 2 0 0 0 2 2h4a2 2 0 0 0 2-2V34a2 2 0 0 0-2-2H28a2 2 0 0 0-2 2zm2-4h4v4H28V34zM36 38a2 2 0 0 0 2 2h4a2 2 0 0 0 2-2V34a2 2 0 0 0-2-2H38a2 2 0 0 0-2 2zm2-4h4v4H38V34zM44 42H20a2 2 0 0 0-2 2v4a2 2 0 0 0 2 2H44a2 2 0 0 0 2-2V44A2 2 0 0 0 44 42zm0 6H20V44H44zM8 30h4a2 2 0 0 0 2-2V26a2 2 0 0 0-2-2H8a2 2 0 0 0-2 2v2A2 2 0 0 0 8 30zm0-4h4v2H8V26zM56 26H52a2 2 0 0 0-2 2v4H48a2 2 0 0 0-2 2v4a2 2 0 0 0 2 2h8a2 2 0 0 0 2-2V28A2 2 0 0 0 56 26zm0 12H48V34h3a1 1 0 0 0 1-1V28h4zM14 42H8a2 2 0 0 0-2 2v4a2 2 0 0 0 2 2h6a2 2 0 0 0 2-2V44A2 2 0 0 0 14 42zm0 6H8V44h6zM56 42H50a2 2 0 0 0-2 2v4a2 2 0 0 0 2 2h6a2 2 0 0 0 2-2V44A2 2 0 0 0 56 42zm0 6H50V44h6zM7 22H50a1 1 0 0 0 0-2H7a1 1 0 0 0 0 2zM57 20H53a1 1 0 0 0 0 2h4a1 1 0 0 0 0-2z"/></svg>