<svg width="1096" height="386" viewBox="0 0 1096 386" fill="none" xmlns="http://www.w3.org/2000/svg">
<rect x="4.44385" y="4" width="1087.11" height="378" rx="12" fill="#383838" stroke="#606060" stroke-width="8"/>
<rect x="18.7925" y="18.3486" width="63.0562" height="63.0562" rx="9" fill="#383838" stroke="#616161" stroke-width="2"/>
<rect x="90.354" y="18.3486" width="63.0562" height="63.0562" rx="9" fill="#383838" stroke="#616161" stroke-width="2"/>
<rect x="161.916" y="18.3486" width="63.0562" height="63.0562" rx="9" fill="#383838" stroke="#616161" stroke-width="2"/>
<rect x="233.478" y="18.3486" width="63.0562" height="63.0562" rx="9" fill="#383838" stroke="#616161" stroke-width="2"/>
<rect x="305.04" y="18.3486" width="63.0562" height="63.0562" rx="9" fill="#383838" stroke="#616161" stroke-width="2"/>
<rect x="376.602" y="18.3486" width="63.0562" height="63.0562" rx="9" fill="#383838" stroke="#616161" stroke-width="2"/>
<rect x="448.163" y="18.3486" width="63.0562" height="63.0562" rx="9" fill="#383838" stroke="#616161" stroke-width="2"/>
<rect x="519.725" y="18.3486" width="63.0562" height="63.0562" rx="9" fill="#383838" stroke="#616161" stroke-width="2"/>
<rect x="591.287" y="18.3486" width="63.0562" height="63.0562" rx="9" fill="#383838" stroke="#616161" stroke-width="2"/>
<rect x="662.849" y="18.3486" width="63.0562" height="63.0562" rx="9" fill="#383838" stroke="#616161" stroke-width="2"/>
<rect x="734.41" y="18.3486" width="63.0562" height="63.0562" rx="9" fill="#383838" stroke="#616161" stroke-width="2"/>
<rect x="805.972" y="18.3486" width="63.0562" height="63.0562" rx="9" fill="#383838" stroke="#616161" stroke-width="2"/>
<rect x="877.534" y="18.3486" width="63.0562" height="63.0562" rx="9" fill="#383838" stroke="#616161" stroke-width="2"/>
<rect x="949.096" y="18.3486" width="128.112" height="63.0562" rx="9" fill="#383838" stroke="#616161" stroke-width="2"/>
<g clip-path="url(#clip0_1684_22326)">
<rect x="18.7925" y="89.9102" width="95.5843" height="63.0562" rx="9" fill="#383838" stroke="#616161" stroke-width="2"/>
</g>
<rect x="122.882" y="89.9102" width="63.0562" height="63.0562" rx="9" fill="#383838" stroke="#616161" stroke-width="2"/>
<rect x="194.444" y="89.9102" width="63.0562" height="63.0562" rx="9" fill="#383838" stroke="#616161" stroke-width="2"/>
<rect x="266.006" y="89.9102" width="63.0562" height="63.0562" rx="9" fill="#383838" stroke="#616161" stroke-width="2"/>
<rect x="337.568" y="89.9102" width="63.0562" height="63.0562" rx="9" fill="#383838" stroke="#616161" stroke-width="2"/>
<rect x="409.129" y="89.9102" width="63.0562" height="63.0562" rx="9" fill="#383838" stroke="#616161" stroke-width="2"/>
<rect x="480.691" y="89.9102" width="63.0562" height="63.0562" rx="9" fill="#383838" stroke="#616161" stroke-width="2"/>
<rect x="552.253" y="89.9102" width="63.0562" height="63.0562" rx="9" fill="#383838" stroke="#616161" stroke-width="2"/>
<rect x="623.815" y="89.9102" width="63.0562" height="63.0562" rx="9" fill="#383838" stroke="#616161" stroke-width="2"/>
<rect x="695.376" y="89.9102" width="63.0562" height="63.0562" rx="9" fill="#383838" stroke="#616161" stroke-width="2"/>
<rect x="766.938" y="89.9102" width="63.0562" height="63.0562" rx="9" fill="#383838" stroke="#616161" stroke-width="2"/>
<rect x="838.5" y="89.9102" width="63.0562" height="63.0562" rx="9" fill="#383838" stroke="#616161" stroke-width="2"/>
<rect x="910.062" y="89.9102" width="63.0562" height="63.0562" rx="9" fill="#383838" stroke="#616161" stroke-width="2"/>
<g clip-path="url(#clip1_1684_22326)">
<rect x="981.624" y="89.9102" width="95.5843" height="63.0562" rx="9" fill="#383838" stroke="#616161" stroke-width="2"/>
</g>
<rect x="18.7925" y="161.472" width="111.848" height="63.0562" rx="9" fill="#383838" stroke="#616161" stroke-width="2"/>
<rect x="139.146" y="161.472" width="63.0562" height="63.0562" rx="9" fill="#383838" stroke="#616161" stroke-width="2"/>
<rect x="210.708" y="161.472" width="63.0562" height="63.0562" rx="9" fill="#383838" stroke="#616161" stroke-width="2"/>
<rect x="282.27" y="161.472" width="63.0562" height="63.0562" rx="9" fill="#383838" stroke="#616161" stroke-width="2"/>
<rect x="353.832" y="161.472" width="63.0562" height="63.0562" rx="9" fill="#383838" stroke="#616161" stroke-width="2"/>
<rect x="425.394" y="161.472" width="63.0562" height="63.0562" rx="9" fill="#383838" stroke="#616161" stroke-width="2"/>
<rect x="496.955" y="161.472" width="63.0562" height="63.0562" rx="9" fill="#383838" stroke="#616161" stroke-width="2"/>
<rect x="568.517" y="161.472" width="63.0562" height="63.0562" rx="9" fill="#383838" stroke="#616161" stroke-width="2"/>
<rect x="640.079" y="161.472" width="63.0562" height="63.0562" rx="9" fill="#383838" stroke="#616161" stroke-width="2"/>
<rect x="711.641" y="161.472" width="63.0562" height="63.0562" rx="9" fill="#383838" stroke="#616161" stroke-width="2"/>
<rect x="783.203" y="161.472" width="63.0562" height="63.0562" rx="9" fill="#383838" stroke="#616161" stroke-width="2"/>
<rect x="854.764" y="161.472" width="63.0562" height="63.0562" rx="9" fill="#383838" stroke="#616161" stroke-width="2"/>
<rect x="926.326" y="161.472" width="150.882" height="63.0562" rx="9" fill="#383838" stroke="#616161" stroke-width="2"/>
<rect x="18.7925" y="233.034" width="149.798" height="63.0562" rx="9" fill="#383838" stroke="#616161" stroke-width="2"/>
<rect x="177.096" y="233.034" width="63.0562" height="63.0562" rx="9" fill="#383838" stroke="#616161" stroke-width="2"/>
<rect x="247.573" y="233.034" width="63.0562" height="63.0562" rx="9" fill="#383838" stroke="#616161" stroke-width="2"/>
<rect x="319.135" y="233.034" width="63.0562" height="63.0562" rx="9" fill="#383838" stroke="#616161" stroke-width="2"/>
<rect x="390.697" y="233.034" width="63.0562" height="63.0562" rx="9" fill="#383838" stroke="#616161" stroke-width="2"/>
<rect x="462.259" y="233.034" width="63.0562" height="63.0562" rx="9" fill="#383838" stroke="#616161" stroke-width="2"/>
<rect x="532.736" y="233.034" width="63.0562" height="63.0562" rx="9" fill="#383838" stroke="#616161" stroke-width="2"/>
<rect x="604.298" y="233.034" width="63.0562" height="63.0562" rx="9" fill="#383838" stroke="#616161" stroke-width="2"/>
<rect x="675.86" y="233.034" width="63.0562" height="63.0562" rx="9" fill="#383838" stroke="#616161" stroke-width="2"/>
<rect x="747.422" y="233.034" width="63.0562" height="63.0562" rx="9" fill="#383838" stroke="#616161" stroke-width="2"/>
<rect x="817.899" y="233.034" width="63.0562" height="63.0562" rx="9" fill="#383838" stroke="#616161" stroke-width="2"/>
<rect x="889.461" y="233.034" width="187.747" height="63.0562" rx="9" fill="#383838" stroke="#616161" stroke-width="2"/>
<rect x="18.7925" y="304.596" width="79.3202" height="63.0562" rx="9" fill="#383838" stroke="#616161" stroke-width="2"/>
<rect x="106.618" y="304.596" width="79.3202" height="63.0562" rx="9" fill="#383838" stroke="#616161" stroke-width="2"/>
<rect x="194.444" y="305.68" width="78.236" height="61.9719" rx="9" fill="#383838" stroke="#616161" stroke-width="2"/>
<rect x="281.186" y="304.596" width="444.719" height="63.0562" rx="9" fill="#383838" stroke="#616161" stroke-width="2"/>
<rect x="734.41" y="305.68" width="77.9649" height="61.9719" rx="9" fill="#383838" stroke="#616161" stroke-width="2"/>
<rect x="822.236" y="304.596" width="79.3202" height="63.0562" rx="9" fill="#383838" stroke="#616161" stroke-width="2"/>
<rect x="910.062" y="304.596" width="79.3202" height="63.0562" rx="9" fill="#383838" stroke="#616161" stroke-width="2"/>
<rect x="997.888" y="304.596" width="79.3202" height="63.0562" rx="9" fill="#383838" stroke="#616161" stroke-width="2"/>
<defs>
<clipPath id="clip0_1684_22326">
<rect width="97.5843" height="65.0562" fill="white" transform="translate(17.7925 88.9102)"/>
</clipPath>
<clipPath id="clip1_1684_22326">
<rect width="97.5843" height="65.0562" fill="white" transform="translate(980.624 88.9102)"/>
</clipPath>
</defs>
</svg>
