<svg width="100" height="56" viewBox="0 0 100 56" fill="none" xmlns="http://www.w3.org/2000/svg">
<rect x="1" y="1" width="98" height="54" rx="4" stroke="#525252" stroke-width="2"/>
<rect x="9.09082" y="9" width="12.1212" height="8" rx="2" fill="#525252"/>
<rect x="9.09082" y="24" width="12.1212" height="8" rx="2" fill="#525252"/>
<rect x="9.09082" y="39" width="12.1212" height="8" rx="2" fill="#525252"/>
<rect x="26.7676" y="9" width="12.1212" height="8" rx="2" fill="#525252"/>
<rect x="26.7676" y="24" width="12.1212" height="8" rx="2" fill="#525252"/>
<rect x="26.7676" y="39" width="47.4747" height="8" rx="2" fill="#525252"/>
<rect x="44.4443" y="9" width="12.1212" height="8" rx="2" fill="#525252"/>
<rect x="44.4443" y="24" width="12.1212" height="8" rx="2" fill="#525252"/>
<rect x="62.1211" y="9" width="12.1212" height="8" rx="2" fill="#525252"/>
<rect x="62.1211" y="24" width="12.1212" height="8" rx="2" fill="#525252"/>
<rect x="79.7979" y="9" width="12.1212" height="8" rx="2" fill="#525252"/>
<rect x="79.7979" y="24" width="12.1212" height="8" rx="2" fill="#525252"/>
<rect x="79.7979" y="39" width="12.1212" height="8" rx="2" fill="#525252"/>
</svg>
