<svg width="1182" height="394" viewBox="0 0 1182 394" fill="none" xmlns="http://www.w3.org/2000/svg">
<rect x="4" y="4" width="1173.53" height="386" rx="16" fill="#383838" stroke="#606060" stroke-width="8"/>
<rect x="20.5287" y="20.5288" width="53.4598" height="53.4598" rx="7" fill="#383838" stroke="#606060" stroke-width="2"/>
<rect x="20.5287" y="80.4253" width="53.4598" height="53.4598" rx="7" fill="#383838" stroke="#606060" stroke-width="2"/>
<rect x="20.5287" y="140.322" width="83.408" height="53.4598" rx="7" fill="#383838" stroke="#606060" stroke-width="2"/>
<rect x="20.5287" y="200.218" width="122.23" height="53.4598" rx="7" fill="#383838" stroke="#606060" stroke-width="2"/>
<rect x="20.5287" y="260.115" width="113.356" height="53.4598" rx="7" fill="#383838" stroke="#606060" stroke-width="2"/>
<rect x="20.5287" y="320.011" width="53.4598" height="53.4598" rx="7" fill="#383838" stroke="#606060" stroke-width="2"/>
<rect x="140.322" y="20.5288" width="53.4598" height="53.4598" rx="7" fill="#383838" stroke="#606060" stroke-width="2"/>
<rect x="140.322" y="80.4253" width="53.4598" height="53.4598" rx="7" fill="#383838" stroke="#606060" stroke-width="2"/>
<rect x="170.27" y="140.322" width="53.4598" height="53.4598" rx="7" fill="#383838" stroke="#606060" stroke-width="2"/>
<rect x="140.322" y="260.115" width="53.4598" height="53.4598" rx="7" fill="#383838" stroke="#606060" stroke-width="2"/>
<rect x="140.322" y="320.011" width="53.4598" height="53.4598" rx="7" fill="#383838" stroke="#606060" stroke-width="2"/>
<rect x="260.115" y="20.5288" width="53.4598" height="53.4598" rx="7" fill="#383838" stroke="#606060" stroke-width="2"/>
<rect x="260.115" y="80.4253" width="53.4598" height="53.4598" rx="7" fill="#383838" stroke="#606060" stroke-width="2"/>
<rect x="290.063" y="140.322" width="53.4598" height="53.4598" rx="7" fill="#383838" stroke="#606060" stroke-width="2"/>
<rect x="260.115" y="260.115" width="53.4598" height="53.4598" rx="7" fill="#383838" stroke="#606060" stroke-width="2"/>
<rect x="379.908" y="20.5288" width="53.4598" height="53.4598" rx="7" fill="#383838" stroke="#606060" stroke-width="2"/>
<rect x="379.908" y="80.4253" width="53.4598" height="53.4598" rx="7" fill="#383838" stroke="#606060" stroke-width="2"/>
<rect x="409.856" y="140.322" width="53.4598" height="53.4598" rx="7" fill="#383838" stroke="#606060" stroke-width="2"/>
<rect x="379.908" y="260.115" width="53.4598" height="53.4598" rx="7" fill="#383838" stroke="#606060" stroke-width="2"/>
<rect x="499.701" y="20.5288" width="53.4598" height="53.4598" rx="7" fill="#383838" stroke="#606060" stroke-width="2"/>
<rect x="499.701" y="80.4253" width="53.4598" height="53.4598" rx="7" fill="#383838" stroke="#606060" stroke-width="2"/>
<rect x="529.649" y="140.322" width="53.4598" height="53.4598" rx="7" fill="#383838" stroke="#606060" stroke-width="2"/>
<rect x="499.701" y="260.115" width="53.4598" height="53.4598" rx="7" fill="#383838" stroke="#606060" stroke-width="2"/>
<rect x="619.494" y="20.5288" width="53.4598" height="53.4598" rx="7" fill="#383838" stroke="#606060" stroke-width="2"/>
<rect x="619.494" y="80.4253" width="53.4598" height="53.4598" rx="7" fill="#383838" stroke="#606060" stroke-width="2"/>
<rect x="649.443" y="140.322" width="53.4598" height="53.4598" rx="7" fill="#383838" stroke="#606060" stroke-width="2"/>
<rect x="619.494" y="260.115" width="53.4598" height="53.4598" rx="7" fill="#383838" stroke="#606060" stroke-width="2"/>
<rect x="619.494" y="320.011" width="53.4598" height="53.4598" rx="7" fill="#383838" stroke="#606060" stroke-width="2"/>
<rect x="739.287" y="20.5288" width="53.4598" height="53.4598" rx="7" fill="#383838" stroke="#606060" stroke-width="2"/>
<rect x="739.287" y="80.4253" width="53.4598" height="53.4598" rx="7" fill="#383838" stroke="#606060" stroke-width="2"/>
<rect x="769.236" y="140.322" width="53.4598" height="53.4598" rx="7" fill="#383838" stroke="#606060" stroke-width="2"/>
<rect x="739.287" y="260.115" width="53.4598" height="53.4598" rx="7" fill="#383838" stroke="#606060" stroke-width="2"/>
<rect x="739.287" y="320.011" width="53.4598" height="53.4598" rx="7" fill="#383838" stroke="#606060" stroke-width="2"/>
<rect x="859.08" y="20.5288" width="53.4598" height="53.4598" rx="7" fill="#383838" stroke="#606060" stroke-width="2"/>
<rect x="799.184" y="80.4253" width="113.356" height="53.4598" rx="7" fill="#383838" stroke="#606060" stroke-width="2"/>
<rect x="829.132" y="140.322" width="83.408" height="53.4598" rx="7" fill="#383838" stroke="#606060" stroke-width="2"/>
<rect x="808.057" y="200.218" width="104.483" height="53.4598" rx="7" fill="#383838" stroke="#606060" stroke-width="2"/>
<rect x="859.08" y="260.115" width="53.4598" height="53.4598" rx="7" fill="#383838" stroke="#606060" stroke-width="2"/>
<rect x="859.08" y="320.011" width="53.4598" height="53.4598" rx="7" fill="#383838" stroke="#606060" stroke-width="2"/>
<rect x="1047.64" y="20.5288" width="53.4598" height="53.4598" rx="7" fill="#383838" stroke="#606060" stroke-width="2"/>
<rect x="1047.64" y="80.4253" width="53.4598" height="53.4598" rx="7" fill="#383838" stroke="#606060" stroke-width="2"/>
<rect x="1047.64" y="140.322" width="53.4598" height="53.4598" rx="7" fill="#383838" stroke="#606060" stroke-width="2"/>
<rect x="1047.64" y="200.218" width="53.4598" height="53.4598" rx="7" fill="#383838" stroke="#606060" stroke-width="2"/>
<rect x="1047.64" y="260.115" width="53.4598" height="53.4598" rx="7" fill="#383838" stroke="#606060" stroke-width="2"/>
<rect x="1047.64" y="320.011" width="53.4598" height="53.4598" rx="7" fill="#383838" stroke="#606060" stroke-width="2"/>
<rect x="80.4253" y="20.5288" width="53.4598" height="53.4598" rx="7" fill="#383838" stroke="#606060" stroke-width="2"/>
<rect x="80.4253" y="80.4253" width="53.4598" height="53.4598" rx="7" fill="#383838" stroke="#606060" stroke-width="2"/>
<rect x="110.374" y="140.322" width="53.4598" height="53.4598" rx="7" fill="#383838" stroke="#606060" stroke-width="2"/>
<rect x="80.4253" y="320.011" width="53.4598" height="53.4598" rx="7" fill="#383838" stroke="#606060" stroke-width="2"/>
<rect x="200.218" y="20.5288" width="53.4598" height="53.4598" rx="7" fill="#383838" stroke="#606060" stroke-width="2"/>
<rect x="200.218" y="80.4253" width="53.4598" height="53.4598" rx="7" fill="#383838" stroke="#606060" stroke-width="2"/>
<rect x="230.167" y="140.322" width="53.4598" height="53.4598" rx="7" fill="#383838" stroke="#606060" stroke-width="2"/>
<rect x="200.218" y="260.115" width="53.4598" height="53.4598" rx="7" fill="#383838" stroke="#606060" stroke-width="2"/>
<rect x="320.011" y="20.5288" width="53.4598" height="53.4598" rx="7" fill="#383838" stroke="#606060" stroke-width="2"/>
<rect x="320.011" y="80.4253" width="53.4598" height="53.4598" rx="7" fill="#383838" stroke="#606060" stroke-width="2"/>
<rect x="349.96" y="140.322" width="53.4598" height="53.4598" rx="7" fill="#383838" stroke="#606060" stroke-width="2"/>
<rect x="320.011" y="260.115" width="53.4598" height="53.4598" rx="7" fill="#383838" stroke="#606060" stroke-width="2"/>
<rect x="439.805" y="20.5288" width="53.4598" height="53.4598" rx="7" fill="#383838" stroke="#606060" stroke-width="2"/>
<rect x="439.805" y="80.4253" width="53.4598" height="53.4598" rx="7" fill="#383838" stroke="#606060" stroke-width="2"/>
<rect x="469.753" y="140.322" width="53.4598" height="53.4598" rx="7" fill="#383838" stroke="#606060" stroke-width="2"/>
<rect x="439.805" y="260.115" width="53.4598" height="53.4598" rx="7" fill="#383838" stroke="#606060" stroke-width="2"/>
<rect x="559.598" y="20.5288" width="53.4598" height="53.4598" rx="7" fill="#383838" stroke="#606060" stroke-width="2"/>
<rect x="559.598" y="80.4253" width="53.4598" height="53.4598" rx="7" fill="#383838" stroke="#606060" stroke-width="2"/>
<rect x="589.546" y="140.322" width="53.4598" height="53.4598" rx="7" fill="#383838" stroke="#606060" stroke-width="2"/>
<rect x="559.598" y="260.115" width="53.4598" height="53.4598" rx="7" fill="#383838" stroke="#606060" stroke-width="2"/>
<rect x="200.218" y="320.011" width="412.839" height="53.4598" rx="7" fill="#383838" stroke="#606060" stroke-width="2"/>
<rect x="679.391" y="20.5288" width="53.4598" height="53.4598" rx="7" fill="#383838" stroke="#606060" stroke-width="2"/>
<rect x="679.391" y="80.4253" width="53.4598" height="53.4598" rx="7" fill="#383838" stroke="#606060" stroke-width="2"/>
<rect x="709.339" y="140.322" width="53.4598" height="53.4598" rx="7" fill="#383838" stroke="#606060" stroke-width="2"/>
<rect x="209.092" y="200.219" width="53.4598" height="53.4598" rx="7" fill="#383838" stroke="#606060" stroke-width="2"/>
<rect x="328.885" y="200.219" width="53.4598" height="53.4598" rx="7" fill="#383838" stroke="#606060" stroke-width="2"/>
<rect x="448.678" y="200.219" width="53.4598" height="53.4598" rx="7" fill="#383838" stroke="#606060" stroke-width="2"/>
<rect x="568.471" y="200.219" width="53.4598" height="53.4598" rx="7" fill="#383838" stroke="#606060" stroke-width="2"/>
<rect x="688.264" y="200.219" width="53.4598" height="53.4598" rx="7" fill="#383838" stroke="#606060" stroke-width="2"/>
<rect x="149.195" y="200.218" width="53.4598" height="53.4598" rx="7" fill="#383838" stroke="#606060" stroke-width="2"/>
<rect x="268.989" y="200.219" width="53.4598" height="53.4598" rx="7" fill="#383838" stroke="#606060" stroke-width="2"/>
<rect x="388.782" y="200.219" width="53.4598" height="53.4598" rx="7" fill="#383838" stroke="#606060" stroke-width="2"/>
<rect x="508.575" y="200.219" width="53.4598" height="53.4598" rx="7" fill="#383838" stroke="#606060" stroke-width="2"/>
<rect x="628.368" y="200.219" width="53.4598" height="53.4598" rx="7" fill="#383838" stroke="#606060" stroke-width="2"/>
<rect x="748.161" y="200.219" width="53.4598" height="53.4598" rx="7" fill="#383838" stroke="#606060" stroke-width="2"/>
<rect x="679.391" y="260.115" width="53.4598" height="53.4598" rx="7" fill="#383838" stroke="#606060" stroke-width="2"/>
<rect x="679.391" y="320.011" width="53.4598" height="53.4598" rx="7" fill="#383838" stroke="#606060" stroke-width="2"/>
<rect x="799.184" y="20.5288" width="53.4598" height="53.4598" rx="7" fill="#383838" stroke="#606060" stroke-width="2"/>
<rect x="799.184" y="260.115" width="53.4598" height="53.4598" rx="7" fill="#383838" stroke="#606060" stroke-width="2"/>
<rect x="799.184" y="320.011" width="53.4598" height="53.4598" rx="7" fill="#383838" stroke="#606060" stroke-width="2"/>
<rect x="987.747" y="20.5288" width="53.4598" height="53.4598" rx="7" fill="#383838" stroke="#606060" stroke-width="2"/>
<rect x="987.747" y="80.4253" width="53.4598" height="53.4598" rx="7" fill="#383838" stroke="#606060" stroke-width="2"/>
<rect x="987.747" y="140.322" width="53.4598" height="53.4598" rx="7" fill="#383838" stroke="#606060" stroke-width="2"/>
<rect x="987.747" y="200.218" width="53.4598" height="53.4598" rx="7" fill="#383838" stroke="#606060" stroke-width="2"/>
<rect x="987.747" y="260.115" width="53.4598" height="53.4598" rx="7" fill="#383838" stroke="#606060" stroke-width="2"/>
<rect x="927.851" y="20.5288" width="53.4598" height="53.4598" rx="7" fill="#383838" stroke="#606060" stroke-width="2"/>
<rect x="927.851" y="80.4253" width="53.4598" height="53.4598" rx="7" fill="#383838" stroke="#606060" stroke-width="2"/>
<rect x="927.851" y="140.322" width="53.4598" height="53.4598" rx="7" fill="#383838" stroke="#606060" stroke-width="2"/>
<rect x="927.851" y="200.218" width="53.4598" height="53.4598" rx="7" fill="#383838" stroke="#606060" stroke-width="2"/>
<rect x="927.851" y="260.115" width="53.4598" height="53.4598" rx="7" fill="#383838" stroke="#606060" stroke-width="2"/>
<rect x="927.851" y="320.011" width="113.356" height="53.4598" rx="7" fill="#383838" stroke="#606060" stroke-width="2"/>
<rect x="1107.54" y="20.5288" width="53.4598" height="53.4598" rx="7" fill="#383838" stroke="#606060" stroke-width="2"/>
<rect x="1107.54" y="80.4253" width="53.4598" height="53.4598" rx="7" fill="#383838" stroke="#606060" stroke-width="2"/>
<rect x="1107.54" y="140.322" width="53.4598" height="113.356" rx="7" fill="#383838" stroke="#606060" stroke-width="2"/>
<rect x="1107.54" y="260.115" width="53.4598" height="113.356" rx="7" fill="#383838" stroke="#606060" stroke-width="2"/>
</svg>
