<svg width="30" height="30" viewBox="0 0 30 30" fill="none" xmlns="http://www.w3.org/2000/svg">
<path fill-rule="evenodd" clip-rule="evenodd" d="M15 27.5C21.9036 27.5 27.5 21.9036 27.5 15C27.5 8.09644 21.9036 2.5 15 2.5C8.09644 2.5 2.5 8.09644 2.5 15C2.5 21.9036 8.09644 27.5 15 27.5Z" stroke="white" stroke-width="2" stroke-linecap="round" stroke-linejoin="round"/>
<path d="M2.5 15H27.5" stroke="white" stroke-width="2" stroke-linecap="round" stroke-linejoin="round"/>
<path fill-rule="evenodd" clip-rule="evenodd" d="M15 27.5C17.7614 27.5 20 21.9036 20 15C20 8.09644 17.7614 2.5 15 2.5C12.2386 2.5 10 8.09644 10 15C10 21.9036 12.2386 27.5 15 27.5Z" stroke="white" stroke-width="2" stroke-linecap="round" stroke-linejoin="round"/>
<path d="M6.16113 6.33887C8.42319 8.60093 11.5482 10.0001 14.9999 10.0001C18.4518 10.0001 21.5768 8.60093 23.8388 6.33887" stroke="white" stroke-width="2" stroke-linecap="round" stroke-linejoin="round"/>
<path d="M23.8388 23.6612C21.5768 21.3991 18.4518 20 14.9999 20C11.5482 20 8.42319 21.3991 6.16113 23.6612" stroke="white" stroke-width="2" stroke-linecap="round" stroke-linejoin="round"/>
</svg>
