<svg width="260" height="18" viewBox="0 0 260 18" fill="none" xmlns="http://www.w3.org/2000/svg">
<path d="M0 17L-7.43093e-07 1.33514e-05L260 1.98648e-06L260 17L0 17Z" fill="#373737"/>
<path d="M0.999999 1L259 0.999989L259 17L1 17L0.999999 1Z" stroke="#515151" stroke-width="2"/>
<path d="M6 0V2H2V6H0V0H6Z" fill="#B3B3B3"/>
<path d="M6 18V16H2V12H0V18H6Z" fill="#B3B3B3"/>
<path d="M254 0V2H258V6H260V0H254Z" fill="#B3B3B3"/>
<path d="M254 18V16H258V12H260V18H254Z" fill="#B3B3B3"/>
<path d="M4 4H24L34 14H4V4Z" fill="#515151"/>
<path d="M30 4H50L60 14H40L30 4Z" fill="#515151"/>
<path d="M56 4H76L86 14H66L56 4Z" fill="#515151"/>
<path d="M82 4H102L112 14H92L82 4Z" fill="#515151"/>
<path d="M108 4H128L138 14H118L108 4Z" fill="#515151"/>
<path d="M134 4H154L164 14H144L134 4Z" fill="#515151"/>
<path d="M160 4H180L190 14H170L160 4Z" fill="#515151"/>
<path d="M186 4H206L216 14H196L186 4Z" fill="#515151"/>
<path d="M212 4H232L242 14H222L212 4Z" fill="#515151"/>
<path d="M238 4H256V14H248L238 4Z" fill="#515151"/>
</svg>
