<svg width="24" height="24" viewBox="0 0 24 24" fill="none" xmlns="http://www.w3.org/2000/svg">
<path d="M3.28516 13.5801H8.68359C9.09781 13.5801 9.43359 13.9159 9.43359 14.3301V18.3418C9.43344 18.8038 9.01953 19.156 8.56348 19.082L3.16504 18.2031C2.80217 18.1441 2.53524 17.8305 2.53516 17.4629V14.3301C2.53516 13.9159 2.87094 13.5801 3.28516 13.5801ZM8.56055 4.9541C9.01745 4.87813 9.43331 5.23026 9.43359 5.69336V9.66992C9.43359 10.0841 9.09781 10.4199 8.68359 10.4199H3.28516C2.87094 10.4199 2.53516 10.0841 2.53516 9.66992V6.5918C2.53516 6.22506 2.80035 5.91172 3.16211 5.85156L8.56055 4.9541ZM20.5918 3.03027C21.0487 2.95434 21.4647 3.30637 21.4648 3.76953V9.66992C21.4648 10.0841 21.1291 10.4199 20.7148 10.4199H13.7832C13.369 10.4199 13.0332 10.0841 13.0332 9.66992V4.92188C13.0332 4.55513 13.2984 4.24179 13.6602 4.18164L20.5918 3.03027Z" stroke="white" stroke-width="1.5"/>
<path d="M22.81 19.6276L23.1401 19.5812L22.81 19.6276ZM21.987 18.8962L22.0017 18.5632L21.987 18.8962ZM21.987 21.9599L22.0017 22.2929L21.987 21.9599ZM22.81 21.2285L22.4799 21.1821L22.81 21.2285ZM19.7669 18.8962L19.7815 19.2292L19.7669 18.8962ZM18.9439 19.6276L19.274 19.674L18.9439 19.6276ZM19.7669 21.9599L19.7522 22.2929L19.7669 21.9599ZM18.9439 21.2285L19.274 21.1821L18.9439 21.2285ZM19.4325 18.8725C19.4325 19.0566 19.5817 19.2058 19.7658 19.2058C19.9499 19.2058 20.0992 19.0566 20.0992 18.8725H19.4325ZM21.6547 18.8725C21.6547 19.0566 21.804 19.2058 21.9881 19.2058C22.1722 19.2058 22.3214 19.0566 22.3214 18.8725H21.6547ZM20.877 21.9836V21.6503C20.4855 21.6503 20.1307 21.6423 19.7815 21.6269L19.7669 21.9599L19.7522 22.2929C20.1114 22.3087 20.476 22.3169 20.877 22.3169V21.9836ZM21.987 21.9599L21.9724 21.6269C21.6233 21.6423 21.2684 21.6503 20.877 21.6503V21.9836V22.3169C21.2779 22.3169 21.6425 22.3087 22.0017 22.2929L21.987 21.9599ZM22.81 21.2285L23.1401 21.2749C23.1774 21.0093 23.2103 20.7238 23.2103 20.4281H22.877H22.5436C22.5436 20.6769 22.5159 20.926 22.4799 21.1821L22.81 21.2285ZM22.877 20.4281H23.2103C23.2103 20.1323 23.1774 19.8468 23.1401 19.5812L22.81 19.6276L22.4799 19.674C22.5159 19.9301 22.5436 20.1793 22.5436 20.4281H22.877ZM20.877 18.8725V19.2058C21.2684 19.2058 21.6233 19.2139 21.9724 19.2292L21.987 18.8962L22.0017 18.5632C21.6425 18.5474 21.2779 18.5392 20.877 18.5392V18.8725ZM19.7669 18.8962L19.7815 19.2292C20.1306 19.2139 20.4855 19.2058 20.877 19.2058V18.8725V18.5392C20.476 18.5392 20.1114 18.5474 19.7522 18.5632L19.7669 18.8962ZM18.9439 19.6276L18.6138 19.5812C18.5765 19.8468 18.5436 20.1323 18.5436 20.4281H18.877H19.2103C19.2103 20.1793 19.238 19.9301 19.274 19.674L18.9439 19.6276ZM18.877 20.4281H18.5436C18.5436 20.7238 18.5765 21.0093 18.6138 21.2749L18.9439 21.2285L19.274 21.1821C19.238 20.926 19.2103 20.6769 19.2103 20.4281H18.877ZM22.81 19.6276L23.1401 19.5812C23.0608 19.0177 22.5783 18.5886 22.0017 18.5632L21.987 18.8962L21.9724 19.2292C22.2376 19.2409 22.4467 19.438 22.4799 19.674L22.81 19.6276ZM21.987 21.9599L22.0017 22.2929C22.5783 22.2675 23.0608 21.8384 23.1401 21.2749L22.81 21.2285L22.4799 21.1821C22.4467 21.4181 22.2376 21.6152 21.9724 21.6269L21.987 21.9599ZM19.7669 18.8962L19.7522 18.5632C19.1756 18.5886 18.6931 19.0177 18.6138 19.5812L18.9439 19.6276L19.274 19.674C19.3072 19.438 19.5163 19.2409 19.7815 19.2292L19.7669 18.8962ZM19.7669 21.9599L19.7815 21.6269C19.5163 21.6152 19.3072 21.4181 19.274 21.1821L18.9439 21.2285L18.6138 21.2749C18.6931 21.8384 19.1756 22.2675 19.7522 22.2929L19.7669 21.9599ZM19.7658 18.8725H20.0992V18.2058H19.7658H19.4325V18.8725H19.7658ZM21.9881 18.2058H21.6547V18.8725H21.9881H22.3214V18.2058H21.9881ZM21.9881 18.2058H22.3214C22.3214 17.4081 21.6747 16.7614 20.877 16.7614V17.0947V17.4281C21.3065 17.4281 21.6547 17.7763 21.6547 18.2058H21.9881ZM19.7658 18.2058H20.0992C20.0992 17.7763 20.4474 17.4281 20.877 17.4281V17.0947V16.7614C20.0792 16.7614 19.4325 17.4081 19.4325 18.2058H19.7658Z" fill="white"/>
<rect x="18.877" y="19.0947" width="4" height="2.66667" rx="1.33333" fill="white"/>
<path d="M17.248 20.9253L13.5956 20.1557C13.1329 20.0582 12.8018 19.65 12.8018 19.1772V14.264C12.8018 13.7118 13.2495 13.264 13.8018 13.264H20.6943C21.2466 13.264 21.6943 13.7118 21.6943 14.264V15.4136" stroke="white" stroke-width="1.5" stroke-linecap="round"/>
</svg>
