<svg width="75" height="32" viewBox="0 0 75 32" fill="none" xmlns="http://www.w3.org/2000/svg">
<g clip-path="url(#clip0_1302_16596)">
<path fill-rule="evenodd" clip-rule="evenodd" d="M21.5169 16.4062C21.4557 12.9248 19.7372 9.84933 17.1123 7.93066H4.40459C1.78519 9.84933 0.0667362 12.9248 0 16.4062H6.56239V31.8945H14.96V16.4062H21.5224H21.5169Z" fill="#1C529C"/>
<path fill-rule="evenodd" clip-rule="evenodd" d="M44.3184 16.4062C44.2516 12.9248 42.5332 9.84933 39.9138 7.93066H27.2061C24.5867 9.84933 22.8683 12.9248 22.8015 16.4062H29.3639V31.8945H37.7616V16.4062H44.3239H44.3184Z" fill="#1C529C"/>
<path fill-rule="evenodd" clip-rule="evenodd" d="M53.5669 20.0321V19.9932C53.5669 18.7752 53.7782 17.5962 54.1508 16.5062H66.853C66.7862 13.0248 65.0678 9.94937 62.4428 8.02515H49.7351C48.4171 8.99282 47.3271 10.2497 46.5596 11.7068C45.6142 13.2639 44.869 16.3894 44.869 20.0099C44.869 23.6303 45.6142 26.7613 46.5596 28.3129C47.3271 29.7645 48.4171 31.0324 49.7351 31.9946H62.4484C65.0678 30.0703 66.7862 26.9949 66.853 23.5135H54.1508C53.7782 22.4235 53.5669 21.25 53.5669 20.0321Z" fill="#1C529C"/>
<path fill-rule="evenodd" clip-rule="evenodd" d="M74.244 1.90217C73.9048 1.29042 73.432 0.817708 72.8147 0.489589C72.2085 0.161469 71.5801 -0.00537109 70.9406 -0.00537109C70.301 -0.00537109 69.6781 0.155908 69.0719 0.489589C68.4602 0.817708 67.9819 1.29042 67.6427 1.90217C67.2979 2.51392 67.131 3.15347 67.131 3.81528C67.131 4.47708 67.2979 5.10551 67.6371 5.7117C67.9764 6.31788 68.4435 6.7906 69.0497 7.12428C69.6559 7.45796 70.2843 7.6248 70.9461 7.6248C71.6079 7.6248 72.2419 7.45796 72.8481 7.12428C73.4543 6.7906 73.9214 6.31788 74.2551 5.7117C74.5888 5.10551 74.7556 4.47151 74.7556 3.81528C74.7556 3.15904 74.5888 2.51392 74.244 1.90217ZM73.7046 5.3947C73.4265 5.90078 73.0316 6.29007 72.5311 6.5737C72.025 6.85733 71.4967 6.99637 70.9461 6.99637C70.3955 6.99637 69.8728 6.85733 69.3667 6.5737C68.8662 6.29007 68.4713 5.90078 68.1877 5.3947C67.9041 4.89418 67.765 4.36585 67.765 3.81528C67.765 3.2647 67.9041 2.73081 68.1933 2.21917C68.4824 1.70752 68.8773 1.31823 69.3834 1.04016C69.8895 0.767656 70.4067 0.628623 70.9461 0.628623C71.4856 0.628623 72.0028 0.767656 72.5089 1.04016C73.0205 1.31267 73.4154 1.70752 73.699 2.21917C73.9826 2.73081 74.1272 3.25914 74.1272 3.81528C74.1272 4.37141 73.9826 4.88862 73.7046 5.3947Z" fill="#1C529C"/>
<path fill-rule="evenodd" clip-rule="evenodd" d="M72.2141 5.12204C71.9805 4.74387 71.7748 4.47137 71.6079 4.30453C71.5189 4.22111 71.4021 4.14881 71.2576 4.08763C71.6135 4.05983 71.8971 3.93192 72.1084 3.71502C72.3253 3.49257 72.4366 3.23675 72.4366 2.93087C72.4366 2.71954 72.3698 2.51933 72.2419 2.33581C72.114 2.14672 71.9416 2.01325 71.7303 1.93539C71.5134 1.85753 71.1686 1.8186 70.6847 1.8186H69.2777V5.92844H69.9339V4.18218H70.3232C70.5568 4.18218 70.7348 4.23223 70.8516 4.32677C71.024 4.45468 71.2575 4.76612 71.5467 5.27776L71.9082 5.92844H72.7146L72.2141 5.12204ZM70.7348 3.61492H69.9284V2.37474H70.6792C71.0017 2.37474 71.2242 2.39698 71.3465 2.44704C71.4689 2.49153 71.5579 2.56382 71.6246 2.66393C71.6913 2.75847 71.7247 2.8697 71.7247 2.98649C71.7247 3.17557 71.6524 3.32573 71.5134 3.44252C71.3743 3.55374 71.113 3.60936 70.7292 3.60936" fill="#1C529C"/>
</g>
<defs>
<clipPath id="clip0_1302_16596">
<rect width="74.7501" height="32" fill="white"/>
</clipPath>
</defs>
</svg>
