<svg width="66" height="28" viewBox="0 0 66 28" fill="none" xmlns="http://www.w3.org/2000/svg">
<g clip-path="url(#clip0_1254_20227)">
<path fill-rule="evenodd" clip-rule="evenodd" d="M18.9981 14.3553C18.9441 11.309 17.4268 8.61804 15.1091 6.93921H3.889C1.57622 8.61804 0.0589242 11.309 0 14.3553H5.79421V27.9076H13.2088V14.3553H19.003H18.9981Z" fill="white"/>
<path fill-rule="evenodd" clip-rule="evenodd" d="M39.1306 14.3553C39.0716 11.309 37.5543 8.61804 35.2416 6.93921H24.0214C21.7087 8.61804 20.1914 11.309 20.1324 14.3553H25.9266V27.9076H33.3413V14.3553H39.1355H39.1306Z" fill="white"/>
<path fill-rule="evenodd" clip-rule="evenodd" d="M47.2965 17.5281V17.494C47.2965 16.4283 47.4831 15.3967 47.8121 14.4429H59.0273C58.9684 11.3967 57.4511 8.70567 55.1334 7.02197H43.9133C42.7495 7.86869 41.7871 8.96844 41.1094 10.2434C40.2747 11.6059 39.6167 14.3407 39.6167 17.5086C39.6167 20.6765 40.2747 23.4161 41.1094 24.7738C41.7871 26.0439 42.7495 27.1534 43.9133 27.9952H55.1383C57.4511 26.3115 58.9684 23.6205 59.0273 20.5743H47.8121C47.4831 19.6205 47.2965 18.5937 47.2965 17.5281Z" fill="white"/>
<path fill-rule="evenodd" clip-rule="evenodd" d="M65.5532 1.66422C65.2536 1.12894 64.8362 0.715312 64.2912 0.428207C63.756 0.141103 63.2011 -0.00488281 62.6364 -0.00488281C62.0717 -0.00488281 61.5218 0.136236 60.9865 0.428207C60.4464 0.715312 60.0241 1.12894 59.7246 1.66422C59.4201 2.1995 59.2728 2.75911 59.2728 3.33818C59.2728 3.91726 59.4201 4.46714 59.7197 4.99755C60.0192 5.52796 60.4317 5.94159 60.9669 6.23356C61.5021 6.52553 62.057 6.67152 62.6413 6.67152C63.2257 6.67152 63.7854 6.52553 64.3207 6.23356C64.8559 5.94159 65.2684 5.52796 65.563 4.99755C65.8576 4.46714 66.0049 3.91239 66.0049 3.33818C66.0049 2.76397 65.8576 2.1995 65.5532 1.66422ZM65.0769 4.72018C64.8313 5.163 64.4827 5.50363 64.0408 5.75181C63.5939 5.99998 63.1275 6.12164 62.6413 6.12164C62.1552 6.12164 61.6936 5.99998 61.2468 5.75181C60.8049 5.50363 60.4562 5.163 60.2058 4.72018C59.9554 4.28222 59.8326 3.81993 59.8326 3.33818C59.8326 2.85643 59.9554 2.38928 60.2107 1.94159C60.466 1.4939 60.8147 1.15327 61.2615 0.909959C61.7084 0.671516 62.165 0.549862 62.6413 0.549862C63.1176 0.549862 63.5743 0.671516 64.0211 0.909959C64.4729 1.1484 64.8215 1.4939 65.072 1.94159C65.3224 2.38928 65.45 2.85156 65.45 3.33818C65.45 3.8248 65.3224 4.27736 65.0769 4.72018Z" fill="white"/>
<path fill-rule="evenodd" clip-rule="evenodd" d="M63.7609 4.48182C63.5546 4.15092 63.373 3.91248 63.2256 3.76649C63.1471 3.6935 63.044 3.63024 62.9163 3.57671C63.2306 3.55238 63.481 3.44046 63.6676 3.25068C63.8591 3.05603 63.9573 2.83218 63.9573 2.56454C63.9573 2.37963 63.8984 2.20445 63.7854 2.04386C63.6725 1.87841 63.5203 1.76162 63.3337 1.6935C63.1422 1.62537 62.8377 1.59131 62.4105 1.59131H61.1682V5.18742H61.7476V3.65944H62.0914C62.2976 3.65944 62.4547 3.70323 62.5578 3.78596C62.7101 3.89788 62.9163 4.17038 63.1716 4.61807L63.4908 5.18742H64.2028L63.7609 4.48182ZM62.4547 3.16308H61.7427V2.07793H62.4056C62.6904 2.07793 62.8868 2.09739 62.9949 2.14119C63.1029 2.18012 63.1815 2.24338 63.2404 2.33097C63.2993 2.41369 63.3288 2.51102 63.3288 2.61321C63.3288 2.77866 63.2649 2.91004 63.1422 3.01223C63.0194 3.10956 62.7886 3.15822 62.4498 3.15822" fill="white"/>
</g>
<defs>
<clipPath id="clip0_1254_20227">
<rect width="66" height="28" fill="white"/>
</clipPath>
</defs>
</svg>
