<svg xmlns="http://www.w3.org/2000/svg"  viewBox="0 0 40 40" width="50px" height="50px" baseProfile="basic"><path fill="#ffeda2" d="M35.5,21.766C35.5,30.179,28.504,37,19.873,37c-8.631,0-15.627-6.821-15.627-15.234	c0-8.414,6.996-15.234,15.627-15.234C28.504,6.531,35.5,13.352,35.5,21.766"/><circle cx="20" cy="22" r="15.5" fill="none" stroke="#b99a48" stroke-miterlimit="10"/><path fill="#8ab6ef" d="M33,21.849c0,7.329-5.932,13.268-13.251,13.268c-7.317,0-13.249-5.94-13.249-13.268	c0-7.329,5.932-13.268,13.249-13.268C27.068,8.581,33,14.52,33,21.849"/><ellipse cx="20" cy="21.846" fill="none" stroke="#4e7ab4" stroke-miterlimit="10" rx="13.5" ry="13.482"/><path fill="none" stroke="#4e7ab4" stroke-linecap="square" stroke-linejoin="round" stroke-miterlimit="10" d="M12.367,31.86	c0,0,7.055-9.848,20.486-9.379"/><path fill="none" stroke="#4e7ab4" stroke-linecap="square" stroke-linejoin="round" stroke-miterlimit="10" d="M7.888,16.527	c0,0,3.331-0.152,6.627-0.636 M22.5,13.5c2.52,0.031,3.91-2.09,4-3"/><ellipse cx="26.069" cy="28" fill="none" stroke="#4e7ab4" stroke-linecap="square" stroke-linejoin="round" stroke-miterlimit="10" rx="4.505" ry="4.5"/><circle cx="18.089" cy="12.911" r="4.411" fill="none" stroke="#4e7ab4" stroke-linecap="square" stroke-linejoin="round" stroke-miterlimit="10"/><polygon fill="#ffeda2" points="9.732,2.247 19.232,2.247 19.232,32.247 33.752,32.247 30.232,37.247 9.6,37.278 11.232,35.247 11.232,4.247"/><polygon fill="none" stroke="#b99a48" stroke-miterlimit="10" points="10,2.5 19.5,2.5 19.5,32.5 34.02,32.5 30.5,37.5 9.868,37.531 11.5,35.5 11.5,4.5"/></svg>