<svg width="24" height="24" viewBox="0 0 24 24" fill="none" xmlns="http://www.w3.org/2000/svg">
<rect x="5.9126" y="10.5391" width="13.8547" height="1.58824" fill="white"/>
<path d="M5.42822 7.57112C5.42822 5.46266 7.13746 3.75342 9.24592 3.75342H16.4341C18.5425 3.75342 20.2518 5.46266 20.2518 7.57112V14.3417C20.2518 18.4351 16.9334 21.7534 12.84 21.7534V21.7534C8.74658 21.7534 5.42822 18.4351 5.42822 14.3417V7.57112Z" stroke="white" stroke-width="1.58824"/>
<path d="M12.3105 1.63574C13.1426 2.13836 13.5389 2.53318 13.3011 3.75339" stroke="white" stroke-width="1.58824" stroke-linecap="round"/>
<rect x="12.0459" y="6.21069" width="1.58824" height="3.17647" rx="0.794118" fill="white"/>
<path d="M2.25171 8.51817C2.25171 7.76947 2.25171 7.39512 2.4843 7.16252C2.71689 6.92993 3.09124 6.92993 3.83994 6.92993H4.89877V12.224H3.83994C3.09124 12.224 2.71689 12.224 2.4843 11.9915C2.25171 11.7589 2.25171 11.3845 2.25171 10.6358V8.51817Z" fill="white"/>
<path d="M4.0813 13.3887C4.0813 13.0892 4.0813 12.9395 4.17434 12.8465C4.26737 12.7534 4.41711 12.7534 4.71659 12.7534H5.14012V14.8711H4.71659C4.41711 14.8711 4.26737 14.8711 4.17434 14.778C4.0813 14.685 4.0813 14.5353 4.0813 14.2358V13.3887Z" fill="white"/>
<path d="M6.03833 11.5735H19.7674V15.6994C19.7674 18.6233 17.3971 20.9936 14.4732 20.9936H11.3324C8.40859 20.9936 6.03833 18.6233 6.03833 15.6994V11.5735Z" fill="white"/>
</svg>
