<svg width="24" height="24" viewBox="0 0 24 24" fill="none" xmlns="http://www.w3.org/2000/svg">
<path d="M2.5 12.0264H4" stroke="white" stroke-width="1.5" stroke-linecap="round"/>
<path d="M19.6113 12.0264H21.1113" stroke="white" stroke-width="1.5" stroke-linecap="round"/>
<path d="M17.6719 6.35303L18.7325 5.29237" stroke="white" stroke-width="1.5" stroke-linecap="round"/>
<path d="M11.9961 4.41663L11.9961 2.91663" stroke="white" stroke-width="1.5" stroke-linecap="round"/>
<path d="M6.32422 6.35596L5.26356 5.2953" stroke="white" stroke-width="1.5" stroke-linecap="round"/>
<path d="M9.16699 21.4708H14.8337" stroke="white" stroke-width="1.5" stroke-linecap="round"/>
<path d="M11.9996 8.1283C9.39155 8.1283 7.27734 10.2425 7.27734 12.8505C7.27734 14.2491 7.88533 15.5056 8.85142 16.3703V18.6374H15.1477V16.3703C16.1138 15.5056 16.7218 14.2491 16.7218 12.8505C16.7218 10.2425 14.6076 8.1283 11.9996 8.1283Z" stroke="white" stroke-width="1.5" stroke-linejoin="round"/>
<path d="M11.999 11.0833L11.999 14.861" stroke="white" stroke-linecap="round"/>
<path d="M13.8887 12.9722L10.1109 12.9722" stroke="white" stroke-linecap="round"/>
</svg>
