<svg width="24" height="24" viewBox="0 0 24 24" fill="none" xmlns="http://www.w3.org/2000/svg">
<rect x="5.85889" y="10.8445" width="13.8547" height="1.58824" fill="white"/>
<path d="M5.37451 7.87654C5.37451 5.76808 7.08375 4.05884 9.19221 4.05884H16.3803C18.4888 4.05884 20.198 5.76808 20.198 7.87654V14.6471C20.198 18.7405 16.8797 22.0588 12.7863 22.0588V22.0588C8.69287 22.0588 5.37451 18.7405 5.37451 14.6471V7.87654Z" stroke="white" stroke-width="1.58824"/>
<path d="M12.2568 1.94116C13.0889 2.44378 13.4852 2.8386 13.2474 4.05881" stroke="white" stroke-width="1.58824" stroke-linecap="round"/>
<rect x="11.9922" y="6.51611" width="1.58824" height="3.17647" rx="0.794118" fill="white"/>
<path d="M4.02759 8.92948C4.02759 8.63 4.02759 8.48026 4.12062 8.38723C4.21366 8.29419 4.3634 8.29419 4.66288 8.29419H5.08641V10.4118H4.66288C4.3634 10.4118 4.21366 10.4118 4.12062 10.3188C4.02759 10.2258 4.02759 10.076 4.02759 9.77654V8.92948Z" fill="white"/>
<path d="M2.198 12.5294C2.198 11.7807 2.198 11.4063 2.43059 11.1738C2.66318 10.9412 3.03753 10.9412 3.78623 10.9412H4.84506V16.2353H3.78623C3.03753 16.2353 2.66318 16.2353 2.43059 16.0027C2.198 15.7701 2.198 15.3957 2.198 14.647V12.5294Z" fill="white"/>
<path d="M5.98462 11.8789H19.7137V16.0049C19.7137 18.9287 17.3434 21.299 14.4195 21.299H11.2787C8.35488 21.299 5.98462 18.9287 5.98462 16.0049V11.8789Z" fill="white"/>
</svg>
