<svg width="24" height="24" viewBox="0 0 24 24" fill="none" xmlns="http://www.w3.org/2000/svg">
<rect x="4.78931" y="10.7852" width="14.5655" height="1.66973" fill="white"/>
<path d="M4.28003 7.66494C4.28003 5.4483 6.07697 3.65137 8.29361 3.65137H15.8506C18.0672 3.65137 19.8641 5.44831 19.8641 7.66495V14.7829C19.8641 19.0863 16.3755 22.5749 12.0721 22.5749V22.5749C7.76865 22.5749 4.28003 19.0863 4.28003 14.7829V7.66494Z" stroke="white" stroke-width="1.66973"/>
<path d="M11.5154 1.42505C12.3902 1.95345 12.8067 2.36853 12.5568 3.65135" stroke="white" stroke-width="1.66973" stroke-linecap="round"/>
<rect x="11.2371" y="6.23486" width="1.66973" height="3.33945" rx="0.834863" fill="white"/>
<path d="M2.86401 9.88493C2.86401 9.57008 2.86401 9.41266 2.96182 9.31485C3.05963 9.21704 3.21706 9.21704 3.5319 9.21704H3.97716V11.4433H3.5319C3.21706 11.4433 3.05963 11.4433 2.96182 11.3455C2.86401 11.2477 2.86401 11.0903 2.86401 10.7755V9.88493Z" fill="white"/>
<path d="M2.86401 13.2245C2.86401 12.9097 2.86401 12.7523 2.96182 12.6545C3.05963 12.5566 3.21706 12.5566 3.5319 12.5566H3.97716V14.7829H3.5319C3.21706 14.7829 3.05963 14.7829 2.96182 14.6851C2.86401 14.5873 2.86401 14.4299 2.86401 14.1151V13.2245Z" fill="white"/>
<path d="M4.92139 11.8728H19.3548V16.2104C19.3548 19.2843 16.863 21.7762 13.7891 21.7762H10.4871C7.41326 21.7762 4.92139 19.2843 4.92139 16.2104V11.8728Z" fill="white"/>
</svg>
