<svg width="24" height="24" viewBox="0 0 24 24" fill="none" xmlns="http://www.w3.org/2000/svg">
<g clip-path="url(#clip0_737_4100)">
<rect x="5.74243" y="10.7246" width="14.792" height="1.69569" fill="white"/>
<path d="M5.33862 7.55573C5.33862 5.30462 7.16351 3.47974 9.41462 3.47974H17.0891C19.3402 3.47974 21.1651 5.30462 21.1651 7.55573V14.7843C21.1651 19.1547 17.6222 22.6976 13.2519 22.6976V22.6976C8.8815 22.6976 5.33862 19.1547 5.33862 14.7843V7.55573Z" stroke="white" stroke-width="1.69569"/>
<path d="M12.1213 1.21875C13.0097 1.75537 13.4328 2.17691 13.179 3.47967" stroke="white" stroke-width="1.69569" stroke-linecap="round"/>
<rect x="12.6072" y="6.10327" width="1.69569" height="3.39138" rx="0.847846" fill="white"/>
<path d="M3.74878 9.81036C3.74878 9.49061 3.74878 9.33074 3.84811 9.23141C3.94744 9.13208 4.10731 9.13208 4.42706 9.13208H4.87924V11.393H4.42706C4.10731 11.393 3.94744 11.393 3.84811 11.2937C3.74878 11.1943 3.74878 11.0345 3.74878 10.7147V9.81036Z" fill="white"/>
<path d="M3.74878 13.2017C3.74878 12.882 3.74878 12.7221 3.84811 12.6228C3.94744 12.5234 4.10731 12.5234 4.42706 12.5234H4.87924V14.7844H4.42706C4.10731 14.7844 3.94744 14.7844 3.84811 14.685C3.74878 14.5857 3.74878 14.4258 3.74878 14.1061V13.2017Z" fill="white"/>
<g filter="url(#filter0_d_737_4100)">
<path d="M1.16504 5.04724C1.16504 2.54989 3.18954 0.525391 5.68689 0.525391H10.2087V9.56908H1.16504V5.04724Z" fill="white"/>
</g>
<path d="M5.92285 11.8291H20.5808V16.2342C20.5808 19.3559 18.0501 21.8865 14.9285 21.8865H11.5752C8.45348 21.8865 5.92285 19.3559 5.92285 16.2342V11.8291Z" fill="white"/>
</g>
<defs>
<filter id="filter0_d_737_4100" x="0.235026" y="-0.404622" width="12.7638" height="12.7638" filterUnits="userSpaceOnUse" color-interpolation-filters="sRGB">
<feFlood flood-opacity="0" result="BackgroundImageFix"/>
<feColorMatrix in="SourceAlpha" type="matrix" values="0 0 0 0 0 0 0 0 0 0 0 0 0 0 0 0 0 0 127 0" result="hardAlpha"/>
<feOffset dx="0.930013" dy="0.930013"/>
<feGaussianBlur stdDeviation="0.930013"/>
<feComposite in2="hardAlpha" operator="out"/>
<feColorMatrix type="matrix" values="0 0 0 0 0 0 0 0 0 0 0 0 0 0 0 0 0 0 0.8 0"/>
<feBlend mode="normal" in2="BackgroundImageFix" result="effect1_dropShadow_737_4100"/>
<feBlend mode="normal" in="SourceGraphic" in2="effect1_dropShadow_737_4100" result="shape"/>
</filter>
<clipPath id="clip0_737_4100">
<rect width="24" height="24" fill="white"/>
</clipPath>
</defs>
</svg>
