<svg width="25" height="24" viewBox="0 0 25 24" fill="none" xmlns="http://www.w3.org/2000/svg">
<rect x="5.28931" y="10.3601" width="14.5655" height="1.66973" fill="white"/>
<path d="M4.78003 7.23989C4.78003 5.02326 6.57697 3.22632 8.79361 3.22632H16.3506C18.5672 3.22632 20.3641 5.02326 20.3641 7.2399V14.3578C20.3641 18.6613 16.8755 22.1499 12.5721 22.1499V22.1499C8.26865 22.1499 4.78003 18.6613 4.78003 14.3578V7.23989Z" stroke="white" stroke-width="1.66973"/>
<path d="M12.0154 1C12.8902 1.5284 13.3067 1.94348 13.0568 3.2263" stroke="white" stroke-width="1.66973" stroke-linecap="round"/>
<rect x="11.7371" y="5.80981" width="1.66973" height="3.33945" rx="0.834863" fill="white"/>
<path d="M3.36401 9.45988C3.36401 9.14504 3.36401 8.98761 3.46182 8.8898C3.55963 8.79199 3.71706 8.79199 4.0319 8.79199H4.47716V11.0183H4.0319C3.71706 11.0183 3.55963 11.0183 3.46182 10.9205C3.36401 10.8227 3.36401 10.6652 3.36401 10.3504V9.45988Z" fill="white"/>
<path d="M3.36401 12.7995C3.36401 12.4846 3.36401 12.3272 3.46182 12.2294C3.55963 12.1316 3.71706 12.1316 4.0319 12.1316H4.47716V14.3579H4.0319C3.71706 14.3579 3.55963 14.3579 3.46182 14.2601C3.36401 14.1623 3.36401 14.0048 3.36401 13.69V12.7995Z" fill="white"/>
<path d="M5.42139 11.4478H19.8548V15.7854C19.8548 18.8593 17.363 21.3511 14.2891 21.3511H10.9871C7.91326 21.3511 5.42139 18.8593 5.42139 15.7854V11.4478Z" fill="white"/>
<g clip-path="url(#clip0_737_4144)">
<path d="M14.52 15.4709L10.3457 15.4709" stroke="black" stroke-width="1.11315" stroke-linecap="round" stroke-linejoin="round"/>
<path d="M13.4069 14.0796L14.6016 15.2742C14.6943 15.367 14.7407 15.4134 14.7407 15.471C14.7407 15.5287 14.6943 15.575 14.6016 15.6678L13.4069 16.8625" stroke="black" stroke-width="1.11315" stroke-linecap="round" stroke-linejoin="round"/>
</g>
<defs>
<clipPath id="clip0_737_4144">
<rect width="6.6789" height="6.6789" fill="white" transform="translate(15.9114 12.1316) rotate(90)"/>
</clipPath>
</defs>
</svg>
