<svg width="24" height="24" viewBox="0 0 24 24" fill="none" xmlns="http://www.w3.org/2000/svg">
<rect x="4.78931" y="10.3601" width="14.5655" height="1.66973" fill="white"/>
<path d="M4.28003 7.23989C4.28003 5.02326 6.07697 3.22632 8.29361 3.22632H15.8506C18.0672 3.22632 19.8641 5.02326 19.8641 7.2399V14.3578C19.8641 18.6613 16.3755 22.1499 12.0721 22.1499V22.1499C7.76865 22.1499 4.28003 18.6613 4.28003 14.3578V7.23989Z" stroke="white" stroke-width="1.66973"/>
<path d="M11.5154 1C12.3902 1.5284 12.8067 1.94348 12.5568 3.2263" stroke="white" stroke-width="1.66973" stroke-linecap="round"/>
<rect x="11.2371" y="5.80981" width="1.66973" height="3.33945" rx="0.834863" fill="white"/>
<path d="M2.86401 9.45988C2.86401 9.14504 2.86401 8.98761 2.96182 8.8898C3.05963 8.79199 3.21706 8.79199 3.5319 8.79199H3.97716V11.0183H3.5319C3.21706 11.0183 3.05963 11.0183 2.96182 10.9205C2.86401 10.8227 2.86401 10.6652 2.86401 10.3504V9.45988Z" fill="white"/>
<path d="M2.86401 12.7995C2.86401 12.4846 2.86401 12.3272 2.96182 12.2294C3.05963 12.1316 3.21706 12.1316 3.5319 12.1316H3.97716V14.3579H3.5319C3.21706 14.3579 3.05963 14.3579 2.96182 14.2601C2.86401 14.1623 2.86401 14.0048 2.86401 13.69V12.7995Z" fill="white"/>
<path d="M4.92139 11.4478H19.3548V15.7854C19.3548 18.8593 16.863 21.3511 13.7891 21.3511H10.4871C7.41326 21.3511 4.92139 18.8593 4.92139 15.7854V11.4478Z" fill="white"/>
<g clip-path="url(#clip0_737_4117)">
<path d="M12.0718 13.5229L12.0718 17.6973" stroke="black" stroke-width="1.11315" stroke-linecap="round" stroke-linejoin="round"/>
<path d="M10.6804 14.6361L11.8751 13.4414C11.9678 13.3486 12.0142 13.3023 12.0719 13.3023C12.1295 13.3023 12.1759 13.3486 12.2686 13.4414L13.4633 14.6361" stroke="black" stroke-width="1.11315" stroke-linecap="round" stroke-linejoin="round"/>
</g>
<defs>
<clipPath id="clip0_737_4117">
<rect width="6.6789" height="6.6789" fill="white" transform="translate(8.73242 12.1316)"/>
</clipPath>
</defs>
</svg>
