<svg width="24" height="24" viewBox="0 0 24 24" fill="none" xmlns="http://www.w3.org/2000/svg">
<path d="M12.5 9H4.65856C3.65277 9 3.14987 9 3.02472 8.69134C2.89957 8.38268 3.25517 8.01942 3.96637 7.29289L6.21091 5" stroke="white" stroke-width="1.5" stroke-linecap="round" stroke-linejoin="round"/>
<path d="M3 15H15.3414C16.3472 15 16.8501 15 16.9753 15.3087C17.1004 15.6173 16.7448 15.9806 16.0336 16.7071L13.7891 19" stroke="white" stroke-width="1.5" stroke-linecap="round" stroke-linejoin="round"/>
<g clip-path="url(#clip0_1283_6575)">
<path d="M19.3332 8.99996C19.3332 9.73634 18.7362 10.3333 17.9998 10.3333C17.2635 10.3333 16.6665 9.73634 16.6665 8.99996C16.6665 8.26358 17.2635 7.66663 17.9998 7.66663C18.7362 7.66663 19.3332 8.26358 19.3332 8.99996Z" stroke="white"/>
<path d="M17.9998 5.66663V6.16663M17.9998 11.8333V12.3333M20.3568 11.3571L20.0032 11.0035M15.9963 6.99638L15.6427 6.64283M21.3332 8.99996H20.8332M15.1665 8.99996H14.6665M20.3569 6.64286L20.0034 6.99642M15.9964 11.0035L15.6429 11.3571" stroke="white" stroke-linecap="round"/>
</g>
<defs>
<clipPath id="clip0_1283_6575">
<rect width="8" height="8" fill="white" transform="translate(14 5)"/>
</clipPath>
</defs>
</svg>
