<svg width="24" height="24" viewBox="0 0 24 24" fill="none" xmlns="http://www.w3.org/2000/svg">
<path d="M22 22L2 2" stroke="white" stroke-width="1.5" stroke-linecap="round" stroke-linejoin="round"/>
<path d="M8.88232 16.9781L9.41815 16.4533L9.41815 16.4533L8.88232 16.9781ZM2.89675 8.77259L3.31945 9.39213L3.31945 9.39213L2.89675 8.77259ZM2.89675 15.2274L3.31945 14.6078L3.31945 14.6078L2.89675 15.2274ZM13.0747 19.9227L13.3668 20.6134H13.3668L13.0747 19.9227ZM14.75 14C14.75 13.5858 14.4142 13.25 14 13.25C13.5858 13.25 13.25 13.5858 13.25 14H14.75ZM8.42957 8.53566C8.75136 8.27485 8.80079 7.80255 8.53998 7.48076C8.27917 7.15897 7.80687 7.10954 7.48508 7.37035L8.42957 8.53566ZM5.50604 8.42866V7.67866C4.82024 7.67866 4.24825 7.67772 3.78664 7.72567C3.31169 7.775 2.87073 7.88241 2.47406 8.15305L2.89675 8.77259L3.31945 9.39213C3.42687 9.31884 3.58882 9.25429 3.94162 9.21764C4.30776 9.17961 4.78837 9.17866 5.50604 9.17866V8.42866ZM5.50604 15.5713V14.8213C4.78837 14.8213 4.30776 14.8203 3.94162 14.7823C3.58882 14.7457 3.42687 14.6811 3.31945 14.6078L2.89675 15.2274L2.47406 15.8469C2.87073 16.1175 3.31169 16.2249 3.78664 16.2743C4.24825 16.3222 4.82024 16.3213 5.50604 16.3213V15.5713ZM14 14.8135H13.25C13.25 16.4108 13.2482 17.5267 13.1414 18.2979C13.0299 19.1032 12.8446 19.2057 12.7825 19.2319L13.0747 19.9227L13.3668 20.6134C14.2301 20.2483 14.5074 19.3688 14.6272 18.5037C14.7518 17.6044 14.75 16.3615 14.75 14.8135H14ZM8.88232 16.9781L8.34648 17.5028C9.41778 18.5967 10.2788 19.4785 10.9914 20.0259C11.6783 20.5535 12.4956 20.9819 13.3668 20.6134L13.0747 19.9227L12.7825 19.2319C12.7285 19.2548 12.5386 19.3229 11.9051 18.8363C11.2974 18.3696 10.5249 17.5834 9.41815 16.4533L8.88232 16.9781ZM14 14H13.25V14.8135H14H14.75V14H14ZM2.00852 12H2.75852C2.75852 11.3725 2.72201 10.8522 2.80106 10.3517C2.87398 9.89001 3.02886 9.59039 3.31945 9.39213L2.89675 8.77259L2.47406 8.15305C1.71825 8.66872 1.42901 9.4238 1.31942 10.1178C1.21595 10.773 1.25852 11.5094 1.25852 12H2.00852ZM2.00852 12H1.25852C1.25852 12.4905 1.21595 13.227 1.31942 13.8822C1.42901 14.5762 1.71825 15.3312 2.47406 15.8469L2.89675 15.2274L3.31945 14.6078C3.02886 14.4096 2.87398 14.1099 2.80106 13.6482C2.72201 13.1477 2.75852 12.6275 2.75852 12H2.00852ZM8.88232 16.9781L9.41815 16.4533C8.82969 15.8524 8.30191 15.4152 7.65954 15.1497C7.019 14.8849 6.3379 14.8213 5.50604 14.8213V15.5713V16.3213C6.27899 16.3213 6.72206 16.3852 7.08647 16.5359C7.44906 16.6858 7.80702 16.952 8.34648 17.5028L8.88232 16.9781ZM5.50604 8.42866V9.17866C5.87851 9.17866 6.40303 9.20621 6.87312 9.15355C7.38093 9.09667 7.92743 8.94264 8.42957 8.53566L7.95732 7.953L7.48508 7.37035C7.272 7.54305 7.02773 7.62685 6.70614 7.66287C6.34683 7.70312 6.00331 7.67866 5.50604 7.67866V8.42866Z" fill="white"/>
<path d="M13.0746 4.06614L12.7819 4.75668L13.0746 4.06614ZM9.47154 5.46064C9.17762 5.7525 9.17595 6.22737 9.4678 6.52129C9.75966 6.81522 10.2345 6.81689 10.5285 6.52503L9.47154 5.46064ZM13.2499 9.5C13.2499 9.91421 13.5857 10.25 13.9999 10.25C14.4141 10.25 14.7499 9.91421 14.7499 9.5H13.2499ZM13.9999 9.18575H14.7499C14.7499 7.63454 14.7517 6.38929 14.6272 5.48847C14.5075 4.62217 14.2304 3.74143 13.3673 3.3756L13.0746 4.06614L12.7819 4.75668C12.8441 4.78302 13.0297 4.88627 13.1413 5.69382C13.2482 6.46687 13.2499 7.58534 13.2499 9.18575H13.9999ZM10 5.99284L10.5285 6.52503C11.2504 5.8082 11.7862 5.2987 12.2196 4.99927C12.4323 4.8523 12.5784 4.78639 12.6724 4.7617C12.7506 4.74119 12.7734 4.75305 12.7819 4.75668L13.0746 4.06614L13.3673 3.3756C12.6217 3.05962 11.9114 3.38898 11.3669 3.76517C10.8036 4.15438 10.1721 4.76503 9.47154 5.46064L10 5.99284ZM13.9999 9.18575H13.2499V9.5H13.9999H14.7499V9.18575H13.9999Z" fill="white"/>
<path d="M17 10C17.6296 10.7667 18 11.7054 18 12.7195C18 13.1635 17.929 13.593 17.7963 14" stroke="white" stroke-width="1.5" stroke-linecap="round" stroke-linejoin="round"/>
<path d="M20 8C21.2508 9.22951 22 10.7952 22 12.5C22 13.9164 21.4829 15.2367 20.5906 16.348" stroke="white" stroke-width="1.5" stroke-linecap="round" stroke-linejoin="round"/>
</svg>
