<svg xmlns="http://www.w3.org/2000/svg"  viewBox="0 0 48 48" width="48px" height="48px"><circle cx="28" cy="28" r="18" fill="#f48fb1"/><path fill="none" stroke="#18193f" stroke-linecap="round" stroke-linejoin="round" stroke-miterlimit="10" stroke-width="3" d="M24,42.638C13.706,42.638,5.362,34.294,5.362,24c0-5.28,2.195-10.047,5.723-13.438"/><path fill="none" stroke="#18193f" stroke-linecap="round" stroke-linejoin="round" stroke-miterlimit="10" stroke-width="3" d="M18.132,6.304C19.977,5.693,21.95,5.362,24,5.362c10.294,0,18.638,8.345,18.638,18.638c0,7.543-4.481,14.04-10.927,16.973"/><path fill="#18193f" d="M13.627,29.113c-1.355-0.35-2.183-1.306-2.458-2.843c-0.349-1.94,0.41-3.688,1.9-4.371 c0.613-0.281,2.002-0.357,2.721-0.151c0.951,0.274,1.698,0.996,2.101,2.035c0.23,0.591,0.317,1.998,0.168,2.708 c-0.234,1.116-1.045,2.127-1.985,2.474C15.477,29.187,14.21,29.263,13.627,29.113L13.627,29.113z M15.266,27.602 c0.656-0.336,0.887-1.005,0.837-2.431c-0.027-0.775-0.065-0.979-0.241-1.319c-0.267-0.512-0.627-0.715-1.271-0.715 c-0.861,0-1.284,0.478-1.448,1.635c-0.109,0.765,0.006,1.79,0.251,2.26c0.244,0.468,0.627,0.693,1.18,0.693 C14.821,27.724,15.134,27.669,15.266,27.602L15.266,27.602z"/><path fill="#18193f" d="M20.752,29.175c-0.116-0.02-0.468-0.1-0.784-0.178c-0.571-0.139-0.573-0.141-0.521-0.395 c0.099-0.492,0.296-1.122,0.363-1.164c0.037-0.023,0.254,0.013,0.479,0.08c0.597,0.178,1.459,0.238,1.863,0.129 c0.548-0.146,0.791-0.38,0.791-0.759c0-0.429-0.234-0.604-1.218-0.908c-1.536-0.475-1.989-0.865-2.117-1.825 c-0.073-0.548,0.077-1.165,0.389-1.584c0.346-0.465,1.118-0.854,1.834-0.924c0.674-0.066,1.85,0.026,2.378,0.187 c0.37,0.112,0.379,0.123,0.359,0.436c-0.011,0.177-0.079,0.495-0.151,0.706l-0.129,0.386l-0.567-0.159 c-0.386-0.109-0.759-0.151-1.17-0.133c-0.739,0.033-0.956,0.182-0.956,0.66c0,0.382,0.112,0.453,1.383,0.877 c0.976,0.326,1.303,0.525,1.599,0.977c0.406,0.62,0.402,1.64-0.01,2.299c-0.517,0.827-1.435,1.26-2.761,1.303 C21.342,29.2,20.867,29.196,20.752,29.175L20.752,29.175z"/><path fill="#18193f" d="M28.822,29.14c-1.033-0.162-1.735-0.66-2.135-1.52l-0.244-0.522l-0.026-2.689l-0.026-2.689h1.94 l0.026,2.44c0.024,2.244,0.039,2.465,0.194,2.771c0.255,0.501,0.617,0.669,1.448,0.669c0.379,0,0.706-0.019,0.728-0.042 c0.063-0.069,0.141-2.338,0.142-4.149l0.001-1.689h1.83l0.055,0.814c0.03,0.448,0.055,2.039,0.055,3.537v2.725l-0.779,0.182 C31.149,29.18,29.595,29.261,28.822,29.14L28.822,29.14z"/><path fill="#18193f" d="M34.885,24.866c-0.026-0.517-0.07-2.068-0.098-3.45l-0.05-2.511l0.195-0.052 c0.25-0.066,1.569-0.067,1.815-0.001c0.182,0.049,0.187,0.075,0.148,0.937c-0.022,0.488-0.063,2.042-0.092,3.453l-0.052,2.564 h-1.82L34.885,24.866z"/><path fill="#18193f" d="M35.044,29.073l-0.253-0.057l-0.024-0.904c-0.016-0.596,0.009-0.944,0.073-1.02 c0.073-0.086,0.333-0.116,1.017-0.116c0.796,0,0.928,0.02,0.98,0.146c0.082,0.197,0.077,1.825-0.004,1.907 C36.747,29.111,35.367,29.147,35.044,29.073L35.044,29.073z"/></svg>