<svg width="40" height="40" viewBox="0 0 40 40" fill="none" xmlns="http://www.w3.org/2000/svg">
<path d="M5.00001 13.7501C4.99983 12.2998 5.36016 10.8722 6.04858 9.59565C6.73701 8.31913 7.73194 7.23375 8.94389 6.43714C10.1558 5.64052 11.5468 5.15765 12.9917 5.03195C14.4365 4.90625 15.89 5.14167 17.2213 5.71704C18.5526 6.2924 19.72 7.18967 20.6185 8.32813C21.517 9.46658 22.1185 10.8105 22.3687 12.2391C22.619 13.6677 22.5103 15.136 22.0523 16.5121C21.5943 17.8882 20.8014 19.1289 19.745 20.1226C21.7368 21.0896 23.4661 22.5224 24.7865 24.2998C26.1068 26.0771 26.9793 28.1465 27.33 30.3326C27.3686 30.5759 27.3589 30.8244 27.3014 31.0639C27.244 31.3034 27.1399 31.5293 26.9951 31.7286C26.8504 31.9279 26.6678 32.0967 26.4578 32.2254C26.2478 32.3542 26.0145 32.4403 25.7713 32.4788C25.528 32.5174 25.2795 32.5077 25.04 32.4502C24.8005 32.3928 24.5746 32.2887 24.3753 32.144C24.176 31.9992 24.0072 31.8167 23.8784 31.6067C23.7497 31.3967 23.6636 31.1634 23.625 30.9201C23.25 28.5709 22.0498 26.4323 20.2399 24.8883C18.43 23.3444 16.129 22.4963 13.75 22.4963C11.371 22.4963 9.07 23.3444 7.26009 24.8883C5.45018 26.4323 4.24998 28.5709 3.87501 30.9201C3.83627 31.1634 3.74999 31.3966 3.6211 31.6066C3.49222 31.8165 3.32324 31.999 3.12383 32.1436C2.92441 32.2882 2.69847 32.3922 2.45889 32.4495C2.2193 32.5068 1.97078 32.5163 1.72751 32.4776C1.48424 32.4389 1.25097 32.3526 1.04104 32.2237C0.831113 32.0948 0.648624 31.9258 0.503997 31.7264C0.35937 31.527 0.255436 31.3011 0.198131 31.0615C0.140825 30.8219 0.131269 30.5734 0.170009 30.3301C0.51944 28.1441 1.39149 26.0749 2.71205 24.2982C4.0326 22.5215 5.7626 21.0899 7.75501 20.1251C6.88501 19.3068 6.19176 18.319 5.71795 17.2226C5.24415 16.1263 4.99981 14.9445 5.00001 13.7501ZM27.5 10.0001C28.9525 10.0011 30.3735 10.4238 31.5905 11.2167C32.8075 12.0097 33.7682 13.1389 34.3558 14.4672C34.9435 15.7956 35.1329 17.2659 34.9011 18.6999C34.6693 20.1338 34.0263 21.4696 33.05 22.5451C34.5726 23.2994 35.9254 24.3561 37.0257 25.6508C38.1261 26.9455 38.951 28.4509 39.45 30.0751C39.5491 30.3903 39.5631 30.7261 39.4904 31.0484C39.4178 31.3707 39.2612 31.668 39.0365 31.9102C38.8118 32.1524 38.527 32.3309 38.2111 32.4275C37.8951 32.524 37.5592 32.5353 37.2375 32.4601C36.9159 32.3857 36.6196 32.2277 36.3786 32.0021C36.1376 31.7764 35.9604 31.4912 35.865 31.1751C35.4163 29.726 34.5996 28.4179 33.4945 27.3786C32.3895 26.3393 31.0339 25.6042 29.56 25.2451C29.1506 25.1463 28.7864 24.9125 28.5261 24.5814C28.2658 24.2503 28.1245 23.8413 28.125 23.4201V22.5401C28.1248 22.191 28.222 21.8488 28.4058 21.552C28.5895 21.2552 28.8525 21.0156 29.165 20.8601C29.9229 20.4845 30.5316 19.8637 30.8921 19.0985C31.2526 18.3333 31.3439 17.4687 31.151 16.6451C30.9582 15.8215 30.4925 15.0873 29.8297 14.5617C29.1669 14.0362 28.3459 13.7501 27.5 13.7501C27.0027 13.7501 26.5258 13.5526 26.1742 13.2009C25.8226 12.8493 25.625 12.3724 25.625 11.8751C25.625 11.3778 25.8226 10.9009 26.1742 10.5493C26.5258 10.1976 27.0027 10.0001 27.5 10.0001ZM13.75 8.7501C13.0842 8.73504 12.422 8.85317 11.8024 9.09753C11.1829 9.3419 10.6184 9.70758 10.1421 10.1731C9.66578 10.6386 9.28729 11.1946 9.02883 11.8085C8.77036 12.4223 8.63714 13.0816 8.63697 13.7476C8.6368 14.4136 8.7697 15.0729 9.02785 15.6869C9.28601 16.3008 9.66422 16.857 10.1403 17.3228C10.6164 17.7886 11.1807 18.1545 11.8001 18.3992C12.4196 18.6439 13.0817 18.7623 13.7475 18.7476C15.0539 18.7187 16.2971 18.1795 17.2109 17.2455C18.1248 16.3115 18.6366 15.0568 18.637 13.7501C18.6373 12.4434 18.1261 11.1884 17.2127 10.2539C16.2993 9.31944 15.0564 8.77964 13.75 8.7501Z" fill="white"/>
</svg>
