<svg width="452" height="10" viewBox="0 0 452 10" fill="none" xmlns="http://www.w3.org/2000/svg">
<path d="M0 0H20L30 10H0V0Z" fill="url(#paint0_linear_770_1905)"/>
<path d="M26 0H46L56 10H36L26 0Z" fill="url(#paint1_linear_770_1905)"/>
<path d="M52 0H72L82 10H62L52 0Z" fill="url(#paint2_linear_770_1905)"/>
<path d="M78 0H98L108 10H88L78 0Z" fill="url(#paint3_linear_770_1905)"/>
<path d="M104 0H124L134 10H114L104 0Z" fill="url(#paint4_linear_770_1905)"/>
<path d="M130 0H150L160 10H140L130 0Z" fill="url(#paint5_linear_770_1905)"/>
<path d="M156 0H176L186 10H166L156 0Z" fill="url(#paint6_linear_770_1905)"/>
<path d="M182 0H202L212 10H192L182 0Z" fill="url(#paint7_linear_770_1905)"/>
<path d="M208 0H228L238 10H218L208 0Z" fill="url(#paint8_linear_770_1905)"/>
<path d="M234 0H254L264 10H244L234 0Z" fill="url(#paint9_linear_770_1905)"/>
<path d="M260 0H280L290 10H270L260 0Z" fill="url(#paint10_linear_770_1905)"/>
<path d="M286 0H306L316 10H296L286 0Z" fill="url(#paint11_linear_770_1905)"/>
<path d="M312 0H332L342 10H322L312 0Z" fill="url(#paint12_linear_770_1905)"/>
<path d="M338 0H358L368 10H348L338 0Z" fill="url(#paint13_linear_770_1905)"/>
<path d="M364 0H384L394 10H374L364 0Z" fill="url(#paint14_linear_770_1905)"/>
<path d="M390 0H410L420 10H400L390 0Z" fill="url(#paint15_linear_770_1905)"/>
<path d="M416 0H436L446 10H426L416 0Z" fill="url(#paint16_linear_770_1905)"/>
<path d="M442 0H452V10L442 0Z" fill="url(#paint17_linear_770_1905)"/>
<defs>
<linearGradient id="paint0_linear_770_1905" x1="0" y1="5" x2="452" y2="5" gradientUnits="userSpaceOnUse">
<stop stop-color="#007BFF"/>
<stop offset="0.8" stop-color="#09FBD3"/>
</linearGradient>
<linearGradient id="paint1_linear_770_1905" x1="0" y1="5" x2="452" y2="5" gradientUnits="userSpaceOnUse">
<stop stop-color="#007BFF"/>
<stop offset="0.8" stop-color="#09FBD3"/>
</linearGradient>
<linearGradient id="paint2_linear_770_1905" x1="0" y1="5" x2="452" y2="5" gradientUnits="userSpaceOnUse">
<stop stop-color="#007BFF"/>
<stop offset="0.8" stop-color="#09FBD3"/>
</linearGradient>
<linearGradient id="paint3_linear_770_1905" x1="0" y1="5" x2="452" y2="5" gradientUnits="userSpaceOnUse">
<stop stop-color="#007BFF"/>
<stop offset="0.8" stop-color="#09FBD3"/>
</linearGradient>
<linearGradient id="paint4_linear_770_1905" x1="0" y1="5" x2="452" y2="5" gradientUnits="userSpaceOnUse">
<stop stop-color="#007BFF"/>
<stop offset="0.8" stop-color="#09FBD3"/>
</linearGradient>
<linearGradient id="paint5_linear_770_1905" x1="0" y1="5" x2="452" y2="5" gradientUnits="userSpaceOnUse">
<stop stop-color="#007BFF"/>
<stop offset="0.8" stop-color="#09FBD3"/>
</linearGradient>
<linearGradient id="paint6_linear_770_1905" x1="0" y1="5" x2="452" y2="5" gradientUnits="userSpaceOnUse">
<stop stop-color="#007BFF"/>
<stop offset="0.8" stop-color="#09FBD3"/>
</linearGradient>
<linearGradient id="paint7_linear_770_1905" x1="0" y1="5" x2="452" y2="5" gradientUnits="userSpaceOnUse">
<stop stop-color="#007BFF"/>
<stop offset="0.8" stop-color="#09FBD3"/>
</linearGradient>
<linearGradient id="paint8_linear_770_1905" x1="0" y1="5" x2="452" y2="5" gradientUnits="userSpaceOnUse">
<stop stop-color="#007BFF"/>
<stop offset="0.8" stop-color="#09FBD3"/>
</linearGradient>
<linearGradient id="paint9_linear_770_1905" x1="0" y1="5" x2="452" y2="5" gradientUnits="userSpaceOnUse">
<stop stop-color="#007BFF"/>
<stop offset="0.8" stop-color="#09FBD3"/>
</linearGradient>
<linearGradient id="paint10_linear_770_1905" x1="0" y1="5" x2="452" y2="5" gradientUnits="userSpaceOnUse">
<stop stop-color="#007BFF"/>
<stop offset="0.8" stop-color="#09FBD3"/>
</linearGradient>
<linearGradient id="paint11_linear_770_1905" x1="0" y1="5" x2="452" y2="5" gradientUnits="userSpaceOnUse">
<stop stop-color="#007BFF"/>
<stop offset="0.8" stop-color="#09FBD3"/>
</linearGradient>
<linearGradient id="paint12_linear_770_1905" x1="0" y1="5" x2="452" y2="5" gradientUnits="userSpaceOnUse">
<stop stop-color="#007BFF"/>
<stop offset="0.8" stop-color="#09FBD3"/>
</linearGradient>
<linearGradient id="paint13_linear_770_1905" x1="0" y1="5" x2="452" y2="5" gradientUnits="userSpaceOnUse">
<stop stop-color="#007BFF"/>
<stop offset="0.8" stop-color="#09FBD3"/>
</linearGradient>
<linearGradient id="paint14_linear_770_1905" x1="0" y1="5" x2="452" y2="5" gradientUnits="userSpaceOnUse">
<stop stop-color="#007BFF"/>
<stop offset="0.8" stop-color="#09FBD3"/>
</linearGradient>
<linearGradient id="paint15_linear_770_1905" x1="0" y1="5" x2="452" y2="5" gradientUnits="userSpaceOnUse">
<stop stop-color="#007BFF"/>
<stop offset="0.8" stop-color="#09FBD3"/>
</linearGradient>
<linearGradient id="paint16_linear_770_1905" x1="0" y1="5" x2="452" y2="5" gradientUnits="userSpaceOnUse">
<stop stop-color="#007BFF"/>
<stop offset="0.8" stop-color="#09FBD3"/>
</linearGradient>
<linearGradient id="paint17_linear_770_1905" x1="0" y1="5" x2="452" y2="5" gradientUnits="userSpaceOnUse">
<stop stop-color="#007BFF"/>
<stop offset="0.8" stop-color="#09FBD3"/>
</linearGradient>
</defs>
</svg>
