<svg width="80" height="241" viewBox="0 0 80 241" fill="none" xmlns="http://www.w3.org/2000/svg">
<path d="M5.59 4.34C5.59 5.57333 5.36667 6.51333 4.92 7.16C4.47333 7.8 3.83667 8.12 3.01 8.12C2.18333 8.12 1.54333 7.8 1.09 7.16C0.643333 6.52 0.42 5.58 0.42 4.34C0.42 3.1 0.643333 2.15667 1.09 1.51C1.54333 0.863333 2.18333 0.539999 3.01 0.539999C3.83667 0.539999 4.47333 0.863333 4.92 1.51C5.36667 2.15667 5.59 3.1 5.59 4.34ZM1.96 4.34C1.96 5.16667 2.04333 5.78333 2.21 6.19C2.38333 6.59 2.65 6.79 3.01 6.79C3.36333 6.79 3.62333 6.59 3.79 6.19C3.96333 5.78333 4.05 5.16667 4.05 4.34C4.05 3.50667 3.96333 2.88667 3.79 2.48C3.62333 2.07333 3.36333 1.87 3.01 1.87C2.65 1.87 2.38333 2.07333 2.21 2.48C2.04333 2.88 1.96 3.5 1.96 4.34ZM7.31586 8.14C7.08919 8.14 6.89586 8.05667 6.73586 7.89C6.57586 7.72333 6.49586 7.52333 6.49586 7.29C6.49586 7.05667 6.57586 6.85667 6.73586 6.69C6.89586 6.52333 7.08919 6.44 7.31586 6.44C7.54253 6.44 7.73919 6.52333 7.90586 6.69C8.07253 6.85667 8.15586 7.05667 8.15586 7.29C8.15586 7.52333 8.07253 7.72333 7.90586 7.89C7.74586 8.05667 7.54919 8.14 7.31586 8.14ZM14.2228 4.34C14.2228 5.57333 13.9995 6.51333 13.5528 7.16C13.1061 7.8 12.4695 8.12 11.6428 8.12C10.8161 8.12 10.1761 7.8 9.72281 7.16C9.27615 6.52 9.05281 5.58 9.05281 4.34C9.05281 3.1 9.27615 2.15667 9.72281 1.51C10.1761 0.863333 10.8161 0.539999 11.6428 0.539999C12.4695 0.539999 13.1061 0.863333 13.5528 1.51C13.9995 2.15667 14.2228 3.1 14.2228 4.34ZM10.5928 4.34C10.5928 5.16667 10.6761 5.78333 10.8428 6.19C11.0161 6.59 11.2828 6.79 11.6428 6.79C11.9961 6.79 12.2561 6.59 12.4228 6.19C12.5961 5.78333 12.6828 5.16667 12.6828 4.34C12.6828 3.50667 12.5961 2.88667 12.4228 2.48C12.2561 2.07333 11.9961 1.87 11.6428 1.87C11.2828 1.87 11.0161 2.07333 10.8428 2.48C10.6761 2.88 10.5928 3.5 10.5928 4.34ZM20.2287 4.34C20.2287 5.57333 20.0053 6.51333 19.5587 7.16C19.112 7.8 18.4753 8.12 17.6487 8.12C16.822 8.12 16.182 7.8 15.7287 7.16C15.282 6.52 15.0587 5.58 15.0587 4.34C15.0587 3.1 15.282 2.15667 15.7287 1.51C16.182 0.863333 16.822 0.539999 17.6487 0.539999C18.4753 0.539999 19.112 0.863333 19.5587 1.51C20.0053 2.15667 20.2287 3.1 20.2287 4.34ZM16.5987 4.34C16.5987 5.16667 16.682 5.78333 16.8487 6.19C17.022 6.59 17.2887 6.79 17.6487 6.79C18.002 6.79 18.262 6.59 18.4287 6.19C18.602 5.78333 18.6887 5.16667 18.6887 4.34C18.6887 3.50667 18.602 2.88667 18.4287 2.48C18.262 2.07333 18.002 1.87 17.6487 1.87C17.2887 1.87 17.022 2.07333 16.8487 2.48C16.682 2.88 16.5987 3.5 16.5987 4.34Z" fill="#6C6C6C"/>
<path d="M5.59 39.34C5.59 40.5733 5.36667 41.5133 4.92 42.16C4.47333 42.8 3.83667 43.12 3.01 43.12C2.18333 43.12 1.54333 42.8 1.09 42.16C0.643333 41.52 0.42 40.58 0.42 39.34C0.42 38.1 0.643333 37.1567 1.09 36.51C1.54333 35.8633 2.18333 35.54 3.01 35.54C3.83667 35.54 4.47333 35.8633 4.92 36.51C5.36667 37.1567 5.59 38.1 5.59 39.34ZM1.96 39.34C1.96 40.1667 2.04333 40.7833 2.21 41.19C2.38333 41.59 2.65 41.79 3.01 41.79C3.36333 41.79 3.62333 41.59 3.79 41.19C3.96333 40.7833 4.05 40.1667 4.05 39.34C4.05 38.5067 3.96333 37.8867 3.79 37.48C3.62333 37.0733 3.36333 36.87 3.01 36.87C2.65 36.87 2.38333 37.0733 2.21 37.48C2.04333 37.88 1.96 38.5 1.96 39.34ZM7.31586 43.14C7.08919 43.14 6.89586 43.0567 6.73586 42.89C6.57586 42.7233 6.49586 42.5233 6.49586 42.29C6.49586 42.0567 6.57586 41.8567 6.73586 41.69C6.89586 41.5233 7.08919 41.44 7.31586 41.44C7.54253 41.44 7.73919 41.5233 7.90586 41.69C8.07253 41.8567 8.15586 42.0567 8.15586 42.29C8.15586 42.5233 8.07253 42.7233 7.90586 42.89C7.74586 43.0567 7.54919 43.14 7.31586 43.14ZM11.8428 38.24C12.2628 38.24 12.6461 38.34 12.9928 38.54C13.3395 38.74 13.6128 39.02 13.8128 39.38C14.0128 39.74 14.1128 40.1567 14.1128 40.63C14.1128 41.1367 13.9995 41.58 13.7728 41.96C13.5528 42.3333 13.2495 42.62 12.8628 42.82C12.4761 43.02 12.0495 43.12 11.5828 43.12C11.0295 43.12 10.5528 42.9933 10.1528 42.74C9.75281 42.4867 9.46615 42.1033 9.29281 41.59L10.4628 40.92C10.5495 41.2267 10.6861 41.4567 10.8728 41.61C11.0661 41.7567 11.2961 41.83 11.5628 41.83C11.7761 41.83 11.9595 41.78 12.1128 41.68C12.2728 41.5733 12.3895 41.4333 12.4628 41.26C12.5428 41.0867 12.5828 40.8933 12.5828 40.68C12.5828 40.4667 12.5428 40.2733 12.4628 40.1C12.3828 39.92 12.2628 39.7767 12.1028 39.67C11.9428 39.5633 11.7495 39.51 11.5228 39.51C11.0695 39.51 10.7195 39.7267 10.4728 40.16L9.43281 39.65L9.93281 35.67H13.7728V36.91H11.1528L10.9528 38.42C11.0861 38.36 11.2261 38.3167 11.3728 38.29C11.5195 38.2567 11.6761 38.24 11.8428 38.24ZM20.2287 39.34C20.2287 40.5733 20.0053 41.5133 19.5587 42.16C19.112 42.8 18.4753 43.12 17.6487 43.12C16.822 43.12 16.182 42.8 15.7287 42.16C15.282 41.52 15.0587 40.58 15.0587 39.34C15.0587 38.1 15.282 37.1567 15.7287 36.51C16.182 35.8633 16.822 35.54 17.6487 35.54C18.4753 35.54 19.112 35.8633 19.5587 36.51C20.0053 37.1567 20.2287 38.1 20.2287 39.34ZM16.5987 39.34C16.5987 40.1667 16.682 40.7833 16.8487 41.19C17.022 41.59 17.2887 41.79 17.6487 41.79C18.002 41.79 18.262 41.59 18.4287 41.19C18.602 40.7833 18.6887 40.1667 18.6887 39.34C18.6887 38.5067 18.602 37.8867 18.4287 37.48C18.262 37.0733 18.002 36.87 17.6487 36.87C17.2887 36.87 17.022 37.0733 16.8487 37.48C16.682 37.88 16.5987 38.5 16.5987 39.34Z" fill="#6C6C6C"/>
<path d="M0.88 71.94L3.12 70.67H4.25V78H2.78V72.27L0.88 73.33V71.94ZM7.31586 78.14C7.08919 78.14 6.89586 78.0567 6.73586 77.89C6.57586 77.7233 6.49586 77.5233 6.49586 77.29C6.49586 77.0567 6.57586 76.8567 6.73586 76.69C6.89586 76.5233 7.08919 76.44 7.31586 76.44C7.54253 76.44 7.73919 76.5233 7.90586 76.69C8.07253 76.8567 8.15586 77.0567 8.15586 77.29C8.15586 77.5233 8.07253 77.7233 7.90586 77.89C7.74586 78.0567 7.54919 78.14 7.31586 78.14ZM14.2228 74.34C14.2228 75.5733 13.9995 76.5133 13.5528 77.16C13.1061 77.8 12.4695 78.12 11.6428 78.12C10.8161 78.12 10.1761 77.8 9.72281 77.16C9.27615 76.52 9.05281 75.58 9.05281 74.34C9.05281 73.1 9.27615 72.1567 9.72281 71.51C10.1761 70.8633 10.8161 70.54 11.6428 70.54C12.4695 70.54 13.1061 70.8633 13.5528 71.51C13.9995 72.1567 14.2228 73.1 14.2228 74.34ZM10.5928 74.34C10.5928 75.1667 10.6761 75.7833 10.8428 76.19C11.0161 76.59 11.2828 76.79 11.6428 76.79C11.9961 76.79 12.2561 76.59 12.4228 76.19C12.5961 75.7833 12.6828 75.1667 12.6828 74.34C12.6828 73.5067 12.5961 72.8867 12.4228 72.48C12.2561 72.0733 11.9961 71.87 11.6428 71.87C11.2828 71.87 11.0161 72.0733 10.8428 72.48C10.6761 72.88 10.5928 73.5 10.5928 74.34ZM20.2287 74.34C20.2287 75.5733 20.0053 76.5133 19.5587 77.16C19.112 77.8 18.4753 78.12 17.6487 78.12C16.822 78.12 16.182 77.8 15.7287 77.16C15.282 76.52 15.0587 75.58 15.0587 74.34C15.0587 73.1 15.282 72.1567 15.7287 71.51C16.182 70.8633 16.822 70.54 17.6487 70.54C18.4753 70.54 19.112 70.8633 19.5587 71.51C20.0053 72.1567 20.2287 73.1 20.2287 74.34ZM16.5987 74.34C16.5987 75.1667 16.682 75.7833 16.8487 76.19C17.022 76.59 17.2887 76.79 17.6487 76.79C18.002 76.79 18.262 76.59 18.4287 76.19C18.602 75.7833 18.6887 75.1667 18.6887 74.34C18.6887 73.5067 18.602 72.8867 18.4287 72.48C18.262 72.0733 18.002 71.87 17.6487 71.87C17.2887 71.87 17.022 72.0733 16.8487 72.48C16.682 72.88 16.5987 73.5 16.5987 74.34Z" fill="#6C6C6C"/>
<path d="M0.88 106.94L3.12 105.67H4.25V113H2.78V107.27L0.88 108.33V106.94ZM7.31586 113.14C7.08919 113.14 6.89586 113.057 6.73586 112.89C6.57586 112.723 6.49586 112.523 6.49586 112.29C6.49586 112.057 6.57586 111.857 6.73586 111.69C6.89586 111.523 7.08919 111.44 7.31586 111.44C7.54253 111.44 7.73919 111.523 7.90586 111.69C8.07253 111.857 8.15586 112.057 8.15586 112.29C8.15586 112.523 8.07253 112.723 7.90586 112.89C7.74586 113.057 7.54919 113.14 7.31586 113.14ZM11.8428 108.24C12.2628 108.24 12.6461 108.34 12.9928 108.54C13.3395 108.74 13.6128 109.02 13.8128 109.38C14.0128 109.74 14.1128 110.157 14.1128 110.63C14.1128 111.137 13.9995 111.58 13.7728 111.96C13.5528 112.333 13.2495 112.62 12.8628 112.82C12.4761 113.02 12.0495 113.12 11.5828 113.12C11.0295 113.12 10.5528 112.993 10.1528 112.74C9.75281 112.487 9.46615 112.103 9.29281 111.59L10.4628 110.92C10.5495 111.227 10.6861 111.457 10.8728 111.61C11.0661 111.757 11.2961 111.83 11.5628 111.83C11.7761 111.83 11.9595 111.78 12.1128 111.68C12.2728 111.573 12.3895 111.433 12.4628 111.26C12.5428 111.087 12.5828 110.893 12.5828 110.68C12.5828 110.467 12.5428 110.273 12.4628 110.1C12.3828 109.92 12.2628 109.777 12.1028 109.67C11.9428 109.563 11.7495 109.51 11.5228 109.51C11.0695 109.51 10.7195 109.727 10.4728 110.16L9.43281 109.65L9.93281 105.67H13.7728V106.91H11.1528L10.9528 108.42C11.0861 108.36 11.2261 108.317 11.3728 108.29C11.5195 108.257 11.6761 108.24 11.8428 108.24ZM20.2287 109.34C20.2287 110.573 20.0053 111.513 19.5587 112.16C19.112 112.8 18.4753 113.12 17.6487 113.12C16.822 113.12 16.182 112.8 15.7287 112.16C15.282 111.52 15.0587 110.58 15.0587 109.34C15.0587 108.1 15.282 107.157 15.7287 106.51C16.182 105.863 16.822 105.54 17.6487 105.54C18.4753 105.54 19.112 105.863 19.5587 106.51C20.0053 107.157 20.2287 108.1 20.2287 109.34ZM16.5987 109.34C16.5987 110.167 16.682 110.783 16.8487 111.19C17.022 111.59 17.2887 111.79 17.6487 111.79C18.002 111.79 18.262 111.59 18.4287 111.19C18.602 110.783 18.6887 110.167 18.6887 109.34C18.6887 108.507 18.602 107.887 18.4287 107.48C18.262 107.073 18.002 106.87 17.6487 106.87C17.2887 106.87 17.022 107.073 16.8487 107.48C16.682 107.88 16.5987 108.5 16.5987 109.34Z" fill="#6C6C6C"/>
<path d="M2.61 146.73H5.54V148H0.49V147.06L2.7 144.58C3.08 144.16 3.34333 143.827 3.49 143.58C3.64333 143.333 3.72 143.08 3.72 142.82C3.72 142.533 3.64 142.303 3.48 142.13C3.32 141.957 3.10333 141.87 2.83 141.87C2.55667 141.87 2.31 141.973 2.09 142.18C1.87667 142.38 1.71333 142.667 1.6 143.04L0.46 142.38C0.64 141.787 0.953333 141.333 1.4 141.02C1.85333 140.7 2.37667 140.54 2.97 140.54C3.43 140.54 3.83333 140.637 4.18 140.83C4.52667 141.017 4.79 141.277 4.97 141.61C5.15667 141.943 5.25 142.323 5.25 142.75C5.25 143.17 5.14667 143.563 4.94 143.93C4.74 144.297 4.38 144.767 3.86 145.34L2.61 146.73ZM7.31586 148.14C7.08919 148.14 6.89586 148.057 6.73586 147.89C6.57586 147.723 6.49586 147.523 6.49586 147.29C6.49586 147.057 6.57586 146.857 6.73586 146.69C6.89586 146.523 7.08919 146.44 7.31586 146.44C7.54253 146.44 7.73919 146.523 7.90586 146.69C8.07253 146.857 8.15586 147.057 8.15586 147.29C8.15586 147.523 8.07253 147.723 7.90586 147.89C7.74586 148.057 7.54919 148.14 7.31586 148.14ZM14.2228 144.34C14.2228 145.573 13.9995 146.513 13.5528 147.16C13.1061 147.8 12.4695 148.12 11.6428 148.12C10.8161 148.12 10.1761 147.8 9.72281 147.16C9.27615 146.52 9.05281 145.58 9.05281 144.34C9.05281 143.1 9.27615 142.157 9.72281 141.51C10.1761 140.863 10.8161 140.54 11.6428 140.54C12.4695 140.54 13.1061 140.863 13.5528 141.51C13.9995 142.157 14.2228 143.1 14.2228 144.34ZM10.5928 144.34C10.5928 145.167 10.6761 145.783 10.8428 146.19C11.0161 146.59 11.2828 146.79 11.6428 146.79C11.9961 146.79 12.2561 146.59 12.4228 146.19C12.5961 145.783 12.6828 145.167 12.6828 144.34C12.6828 143.507 12.5961 142.887 12.4228 142.48C12.2561 142.073 11.9961 141.87 11.6428 141.87C11.2828 141.87 11.0161 142.073 10.8428 142.48C10.6761 142.88 10.5928 143.5 10.5928 144.34ZM20.2287 144.34C20.2287 145.573 20.0053 146.513 19.5587 147.16C19.112 147.8 18.4753 148.12 17.6487 148.12C16.822 148.12 16.182 147.8 15.7287 147.16C15.282 146.52 15.0587 145.58 15.0587 144.34C15.0587 143.1 15.282 142.157 15.7287 141.51C16.182 140.863 16.822 140.54 17.6487 140.54C18.4753 140.54 19.112 140.863 19.5587 141.51C20.0053 142.157 20.2287 143.1 20.2287 144.34ZM16.5987 144.34C16.5987 145.167 16.682 145.783 16.8487 146.19C17.022 146.59 17.2887 146.79 17.6487 146.79C18.002 146.79 18.262 146.59 18.4287 146.19C18.602 145.783 18.6887 145.167 18.6887 144.34C18.6887 143.507 18.602 142.887 18.4287 142.48C18.262 142.073 18.002 141.87 17.6487 141.87C17.2887 141.87 17.022 142.073 16.8487 142.48C16.682 142.88 16.5987 143.5 16.5987 144.34Z" fill="#6C6C6C"/>
<path d="M2.61 181.73H5.54V183H0.49V182.06L2.7 179.58C3.08 179.16 3.34333 178.827 3.49 178.58C3.64333 178.333 3.72 178.08 3.72 177.82C3.72 177.533 3.64 177.303 3.48 177.13C3.32 176.957 3.10333 176.87 2.83 176.87C2.55667 176.87 2.31 176.973 2.09 177.18C1.87667 177.38 1.71333 177.667 1.6 178.04L0.46 177.38C0.64 176.787 0.953333 176.333 1.4 176.02C1.85333 175.7 2.37667 175.54 2.97 175.54C3.43 175.54 3.83333 175.637 4.18 175.83C4.52667 176.017 4.79 176.277 4.97 176.61C5.15667 176.943 5.25 177.323 5.25 177.75C5.25 178.17 5.14667 178.563 4.94 178.93C4.74 179.297 4.38 179.767 3.86 180.34L2.61 181.73ZM7.31586 183.14C7.08919 183.14 6.89586 183.057 6.73586 182.89C6.57586 182.723 6.49586 182.523 6.49586 182.29C6.49586 182.057 6.57586 181.857 6.73586 181.69C6.89586 181.523 7.08919 181.44 7.31586 181.44C7.54253 181.44 7.73919 181.523 7.90586 181.69C8.07253 181.857 8.15586 182.057 8.15586 182.29C8.15586 182.523 8.07253 182.723 7.90586 182.89C7.74586 183.057 7.54919 183.14 7.31586 183.14ZM11.8428 178.24C12.2628 178.24 12.6461 178.34 12.9928 178.54C13.3395 178.74 13.6128 179.02 13.8128 179.38C14.0128 179.74 14.1128 180.157 14.1128 180.63C14.1128 181.137 13.9995 181.58 13.7728 181.96C13.5528 182.333 13.2495 182.62 12.8628 182.82C12.4761 183.02 12.0495 183.12 11.5828 183.12C11.0295 183.12 10.5528 182.993 10.1528 182.74C9.75281 182.487 9.46615 182.103 9.29281 181.59L10.4628 180.92C10.5495 181.227 10.6861 181.457 10.8728 181.61C11.0661 181.757 11.2961 181.83 11.5628 181.83C11.7761 181.83 11.9595 181.78 12.1128 181.68C12.2728 181.573 12.3895 181.433 12.4628 181.26C12.5428 181.087 12.5828 180.893 12.5828 180.68C12.5828 180.467 12.5428 180.273 12.4628 180.1C12.3828 179.92 12.2628 179.777 12.1028 179.67C11.9428 179.563 11.7495 179.51 11.5228 179.51C11.0695 179.51 10.7195 179.727 10.4728 180.16L9.43281 179.65L9.93281 175.67H13.7728V176.91H11.1528L10.9528 178.42C11.0861 178.36 11.2261 178.317 11.3728 178.29C11.5195 178.257 11.6761 178.24 11.8428 178.24ZM20.2287 179.34C20.2287 180.573 20.0053 181.513 19.5587 182.16C19.112 182.8 18.4753 183.12 17.6487 183.12C16.822 183.12 16.182 182.8 15.7287 182.16C15.282 181.52 15.0587 180.58 15.0587 179.34C15.0587 178.1 15.282 177.157 15.7287 176.51C16.182 175.863 16.822 175.54 17.6487 175.54C18.4753 175.54 19.112 175.863 19.5587 176.51C20.0053 177.157 20.2287 178.1 20.2287 179.34ZM16.5987 179.34C16.5987 180.167 16.682 180.783 16.8487 181.19C17.022 181.59 17.2887 181.79 17.6487 181.79C18.002 181.79 18.262 181.59 18.4287 181.19C18.602 180.783 18.6887 180.167 18.6887 179.34C18.6887 178.507 18.602 177.887 18.4287 177.48C18.262 177.073 18.002 176.87 17.6487 176.87C17.2887 176.87 17.022 177.073 16.8487 177.48C16.682 177.88 16.5987 178.5 16.5987 179.34Z" fill="#6C6C6C"/>
<path d="M4.23 214.18C4.63667 214.327 4.94667 214.55 5.16 214.85C5.37333 215.15 5.48 215.52 5.48 215.96C5.48 216.413 5.36333 216.803 5.13 217.13C4.90333 217.457 4.59333 217.703 4.2 217.87C3.81333 218.037 3.38333 218.12 2.91 218.12C2.30333 218.12 1.77333 217.98 1.32 217.7C0.873333 217.413 0.556667 216.993 0.37 216.44L1.52 215.78C1.62667 216.12 1.80333 216.38 2.05 216.56C2.29667 216.74 2.57333 216.83 2.88 216.83C3.07333 216.83 3.25 216.793 3.41 216.72C3.57 216.64 3.69667 216.527 3.79 216.38C3.89 216.227 3.94 216.05 3.94 215.85C3.94 215.517 3.81 215.267 3.55 215.1C3.29667 214.927 2.91333 214.84 2.4 214.84H2.13V213.64H2.52C2.89333 213.64 3.18333 213.55 3.39 213.37C3.59667 213.183 3.7 212.953 3.7 212.68C3.7 212.42 3.61667 212.217 3.45 212.07C3.28333 211.917 3.06667 211.84 2.8 211.84C2.50667 211.84 2.25667 211.933 2.05 212.12C1.84333 212.307 1.68333 212.567 1.57 212.9L0.47 212.27C0.643333 211.71 0.946667 211.283 1.38 210.99C1.81333 210.69 2.32667 210.54 2.92 210.54C3.38 210.54 3.78667 210.627 4.14 210.8C4.49333 210.967 4.76333 211.203 4.95 211.51C5.14333 211.817 5.24 212.17 5.24 212.57C5.24 212.937 5.15333 213.26 4.98 213.54C4.81333 213.813 4.56333 214.027 4.23 214.18ZM7.31586 218.14C7.08919 218.14 6.89586 218.057 6.73586 217.89C6.57586 217.723 6.49586 217.523 6.49586 217.29C6.49586 217.057 6.57586 216.857 6.73586 216.69C6.89586 216.523 7.08919 216.44 7.31586 216.44C7.54253 216.44 7.73919 216.523 7.90586 216.69C8.07253 216.857 8.15586 217.057 8.15586 217.29C8.15586 217.523 8.07253 217.723 7.90586 217.89C7.74586 218.057 7.54919 218.14 7.31586 218.14ZM14.2228 214.34C14.2228 215.573 13.9995 216.513 13.5528 217.16C13.1061 217.8 12.4695 218.12 11.6428 218.12C10.8161 218.12 10.1761 217.8 9.72281 217.16C9.27615 216.52 9.05281 215.58 9.05281 214.34C9.05281 213.1 9.27615 212.157 9.72281 211.51C10.1761 210.863 10.8161 210.54 11.6428 210.54C12.4695 210.54 13.1061 210.863 13.5528 211.51C13.9995 212.157 14.2228 213.1 14.2228 214.34ZM10.5928 214.34C10.5928 215.167 10.6761 215.783 10.8428 216.19C11.0161 216.59 11.2828 216.79 11.6428 216.79C11.9961 216.79 12.2561 216.59 12.4228 216.19C12.5961 215.783 12.6828 215.167 12.6828 214.34C12.6828 213.507 12.5961 212.887 12.4228 212.48C12.2561 212.073 11.9961 211.87 11.6428 211.87C11.2828 211.87 11.0161 212.073 10.8428 212.48C10.6761 212.88 10.5928 213.5 10.5928 214.34ZM20.2287 214.34C20.2287 215.573 20.0053 216.513 19.5587 217.16C19.112 217.8 18.4753 218.12 17.6487 218.12C16.822 218.12 16.182 217.8 15.7287 217.16C15.282 216.52 15.0587 215.58 15.0587 214.34C15.0587 213.1 15.282 212.157 15.7287 211.51C16.182 210.863 16.822 210.54 17.6487 210.54C18.4753 210.54 19.112 210.863 19.5587 211.51C20.0053 212.157 20.2287 213.1 20.2287 214.34ZM16.5987 214.34C16.5987 215.167 16.682 215.783 16.8487 216.19C17.022 216.59 17.2887 216.79 17.6487 216.79C18.002 216.79 18.262 216.59 18.4287 216.19C18.602 215.783 18.6887 215.167 18.6887 214.34C18.6887 213.507 18.602 212.887 18.4287 212.48C18.262 212.073 18.002 211.87 17.6487 211.87C17.2887 211.87 17.022 212.073 16.8487 212.48C16.682 212.88 16.5987 213.5 16.5987 214.34Z" fill="#6C6C6C"/>
<path d="M4.23 235.18C4.63667 235.327 4.94667 235.55 5.16 235.85C5.37333 236.15 5.48 236.52 5.48 236.96C5.48 237.413 5.36333 237.803 5.13 238.13C4.90333 238.457 4.59333 238.703 4.2 238.87C3.81333 239.037 3.38333 239.12 2.91 239.12C2.30333 239.12 1.77333 238.98 1.32 238.7C0.873333 238.413 0.556667 237.993 0.37 237.44L1.52 236.78C1.62667 237.12 1.80333 237.38 2.05 237.56C2.29667 237.74 2.57333 237.83 2.88 237.83C3.07333 237.83 3.25 237.793 3.41 237.72C3.57 237.64 3.69667 237.527 3.79 237.38C3.89 237.227 3.94 237.05 3.94 236.85C3.94 236.517 3.81 236.267 3.55 236.1C3.29667 235.927 2.91333 235.84 2.4 235.84H2.13V234.64H2.52C2.89333 234.64 3.18333 234.55 3.39 234.37C3.59667 234.183 3.7 233.953 3.7 233.68C3.7 233.42 3.61667 233.217 3.45 233.07C3.28333 232.917 3.06667 232.84 2.8 232.84C2.50667 232.84 2.25667 232.933 2.05 233.12C1.84333 233.307 1.68333 233.567 1.57 233.9L0.47 233.27C0.643333 232.71 0.946667 232.283 1.38 231.99C1.81333 231.69 2.32667 231.54 2.92 231.54C3.38 231.54 3.78667 231.627 4.14 231.8C4.49333 231.967 4.76333 232.203 4.95 232.51C5.14333 232.817 5.24 233.17 5.24 233.57C5.24 233.937 5.15333 234.26 4.98 234.54C4.81333 234.813 4.56333 235.027 4.23 235.18ZM7.31586 239.14C7.08919 239.14 6.89586 239.057 6.73586 238.89C6.57586 238.723 6.49586 238.523 6.49586 238.29C6.49586 238.057 6.57586 237.857 6.73586 237.69C6.89586 237.523 7.08919 237.44 7.31586 237.44C7.54253 237.44 7.73919 237.523 7.90586 237.69C8.07253 237.857 8.15586 238.057 8.15586 238.29C8.15586 238.523 8.07253 238.723 7.90586 238.89C7.74586 239.057 7.54919 239.14 7.31586 239.14ZM12.8628 235.18C13.2695 235.327 13.5795 235.55 13.7928 235.85C14.0061 236.15 14.1128 236.52 14.1128 236.96C14.1128 237.413 13.9961 237.803 13.7628 238.13C13.5361 238.457 13.2261 238.703 12.8328 238.87C12.4461 239.037 12.0161 239.12 11.5428 239.12C10.9361 239.12 10.4061 238.98 9.95281 238.7C9.50615 238.413 9.18948 237.993 9.00281 237.44L10.1528 236.78C10.2595 237.12 10.4361 237.38 10.6828 237.56C10.9295 237.74 11.2061 237.83 11.5128 237.83C11.7061 237.83 11.8828 237.793 12.0428 237.72C12.2028 237.64 12.3295 237.527 12.4228 237.38C12.5228 237.227 12.5728 237.05 12.5728 236.85C12.5728 236.517 12.4428 236.267 12.1828 236.1C11.9295 235.927 11.5461 235.84 11.0328 235.84H10.7628V234.64H11.1528C11.5261 234.64 11.8161 234.55 12.0228 234.37C12.2295 234.183 12.3328 233.953 12.3328 233.68C12.3328 233.42 12.2495 233.217 12.0828 233.07C11.9161 232.917 11.6995 232.84 11.4328 232.84C11.1395 232.84 10.8895 232.933 10.6828 233.12C10.4761 233.307 10.3161 233.567 10.2028 233.9L9.10281 233.27C9.27615 232.71 9.57948 232.283 10.0128 231.99C10.4461 231.69 10.9595 231.54 11.5528 231.54C12.0128 231.54 12.4195 231.627 12.7728 231.8C13.1261 231.967 13.3961 232.203 13.5828 232.51C13.7761 232.817 13.8728 233.17 13.8728 233.57C13.8728 233.937 13.7861 234.26 13.6128 234.54C13.4461 234.813 13.1961 235.027 12.8628 235.18ZM20.2287 235.34C20.2287 236.573 20.0053 237.513 19.5587 238.16C19.112 238.8 18.4753 239.12 17.6487 239.12C16.822 239.12 16.182 238.8 15.7287 238.16C15.282 237.52 15.0587 236.58 15.0587 235.34C15.0587 234.1 15.282 233.157 15.7287 232.51C16.182 231.863 16.822 231.54 17.6487 231.54C18.4753 231.54 19.112 231.863 19.5587 232.51C20.0053 233.157 20.2287 234.1 20.2287 235.34ZM16.5987 235.34C16.5987 236.167 16.682 236.783 16.8487 237.19C17.022 237.59 17.2887 237.79 17.6487 237.79C18.002 237.79 18.262 237.59 18.4287 237.19C18.602 236.783 18.6887 236.167 18.6887 235.34C18.6887 234.507 18.602 233.887 18.4287 233.48C18.262 233.073 18.002 232.87 17.6487 232.87C17.2887 232.87 17.022 233.073 16.8487 233.48C16.682 233.88 16.5987 234.5 16.5987 235.34Z" fill="#6C6C6C"/>
<rect x="38" y="4" width="30" height="233" fill="#373737"/>
<rect x="39" y="5" width="28" height="231" stroke="#515151" stroke-width="2"/>
<rect x="70" y="4" width="10" height="2" fill="#515151"/>
<rect x="70" y="11" width="5" height="2" fill="#515151"/>
<rect x="70" y="18" width="5" height="2" fill="#515151"/>
<rect x="70" y="25" width="5" height="2" fill="#515151"/>
<rect x="70" y="32" width="5" height="2" fill="#515151"/>
<rect x="70" y="39" width="10" height="2" fill="#515151"/>
<rect x="70" y="46" width="5" height="2" fill="#515151"/>
<rect x="70" y="53" width="5" height="2" fill="#515151"/>
<rect x="70" y="60" width="5" height="2" fill="#515151"/>
<rect x="70" y="67" width="5" height="2" fill="#515151"/>
<rect x="70" y="74" width="10" height="2" fill="#515151"/>
<rect x="70" y="81" width="5" height="2" fill="#515151"/>
<rect x="70" y="88" width="5" height="2" fill="#515151"/>
<rect x="70" y="95" width="5" height="2" fill="#515151"/>
<rect x="70" y="102" width="5" height="2" fill="#515151"/>
<rect x="70" y="109" width="10" height="2" fill="#515151"/>
<rect x="70" y="116" width="5" height="2" fill="#515151"/>
<rect x="70" y="123" width="5" height="2" fill="#515151"/>
<rect x="70" y="130" width="5" height="2" fill="#515151"/>
<rect x="70" y="137" width="5" height="2" fill="#515151"/>
<rect x="70" y="144" width="10" height="2" fill="#515151"/>
<rect x="70" y="151" width="5" height="2" fill="#515151"/>
<rect x="70" y="158" width="5" height="2" fill="#515151"/>
<rect x="70" y="165" width="5" height="2" fill="#515151"/>
<rect x="70" y="172" width="5" height="2" fill="#515151"/>
<rect x="70" y="179" width="10" height="2" fill="#515151"/>
<rect x="70" y="186" width="5" height="2" fill="#515151"/>
<rect x="70" y="193" width="5" height="2" fill="#515151"/>
<rect x="70" y="200" width="5" height="2" fill="#515151"/>
<rect x="70" y="207" width="5" height="2" fill="#515151"/>
<rect x="70" y="214" width="10" height="2" fill="#515151"/>
<rect x="70" y="221" width="5" height="2" fill="#515151"/>
<rect x="70" y="228" width="5" height="2" fill="#515151"/>
<rect x="70" y="235" width="5" height="2" fill="#515151"/>
<rect width="10" height="2" transform="matrix(-1 0 0 1 36 4)" fill="#515151"/>
<rect width="5" height="2" transform="matrix(-1 0 0 1 36 11)" fill="#515151"/>
<rect width="5" height="2" transform="matrix(-1 0 0 1 36 18)" fill="#515151"/>
<rect width="5" height="2" transform="matrix(-1 0 0 1 36 25)" fill="#515151"/>
<rect width="5" height="2" transform="matrix(-1 0 0 1 36 32)" fill="#515151"/>
<rect width="10" height="2" transform="matrix(-1 0 0 1 36 39)" fill="#515151"/>
<rect width="5" height="2" transform="matrix(-1 0 0 1 36 46)" fill="#515151"/>
<rect width="5" height="2" transform="matrix(-1 0 0 1 36 53)" fill="#515151"/>
<rect width="5" height="2" transform="matrix(-1 0 0 1 36 60)" fill="#515151"/>
<rect width="5" height="2" transform="matrix(-1 0 0 1 36 67)" fill="#515151"/>
<rect width="10" height="2" transform="matrix(-1 0 0 1 36 74)" fill="#515151"/>
<rect width="5" height="2" transform="matrix(-1 0 0 1 36 81)" fill="#515151"/>
<rect width="5" height="2" transform="matrix(-1 0 0 1 36 88)" fill="#515151"/>
<rect width="5" height="2" transform="matrix(-1 0 0 1 36 95)" fill="#515151"/>
<rect width="5" height="2" transform="matrix(-1 0 0 1 36 102)" fill="#515151"/>
<rect width="10" height="2" transform="matrix(-1 0 0 1 36 109)" fill="#515151"/>
<rect width="5" height="2" transform="matrix(-1 0 0 1 36 116)" fill="#515151"/>
<rect width="5" height="2" transform="matrix(-1 0 0 1 36 123)" fill="#515151"/>
<rect width="5" height="2" transform="matrix(-1 0 0 1 36 130)" fill="#515151"/>
<rect width="5" height="2" transform="matrix(-1 0 0 1 36 137)" fill="#515151"/>
<rect width="10" height="2" transform="matrix(-1 0 0 1 36 144)" fill="#515151"/>
<rect width="5" height="2" transform="matrix(-1 0 0 1 36 151)" fill="#515151"/>
<rect width="5" height="2" transform="matrix(-1 0 0 1 36 158)" fill="#515151"/>
<rect width="5" height="2" transform="matrix(-1 0 0 1 36 165)" fill="#515151"/>
<rect width="5" height="2" transform="matrix(-1 0 0 1 36 172)" fill="#515151"/>
<rect width="10" height="2" transform="matrix(-1 0 0 1 36 179)" fill="#515151"/>
<rect width="5" height="2" transform="matrix(-1 0 0 1 36 186)" fill="#515151"/>
<rect width="5" height="2" transform="matrix(-1 0 0 1 36 193)" fill="#515151"/>
<rect width="5" height="2" transform="matrix(-1 0 0 1 36 200)" fill="#515151"/>
<rect width="5" height="2" transform="matrix(-1 0 0 1 36 207)" fill="#515151"/>
<rect width="10" height="2" transform="matrix(-1 0 0 1 36 214)" fill="#515151"/>
<rect width="5" height="2" transform="matrix(-1 0 0 1 36 221)" fill="#515151"/>
<rect width="5" height="2" transform="matrix(-1 0 0 1 36 228)" fill="#515151"/>
<rect width="5" height="2" transform="matrix(-1 0 0 1 36 235)" fill="#515151"/>
<path d="M64 233H42V214L64 204V233ZM64 198L42 208V186L64 176V198ZM64 170L42 180V158L64 148V170ZM64 142L42 152V130L64 120V142ZM64 114L42 124V102L64 92V114ZM64 86L42 96V74L64 64V86ZM64 58L42 68V46L64 36V58ZM64 30L42 40V8H64V30Z" fill="#515151"/>
<path d="M68 5V13H66V7H60V5H68Z" fill="#B3B3B3"/>
<path d="M68 238V230H66V236H60V238H68Z" fill="#B3B3B3"/>
<path d="M46 5V7H40V13H38V5H46Z" fill="#B3B3B3"/>
<path d="M46 238V236H40V230H38V238H46Z" fill="#B3B3B3"/>
</svg>
