<svg width="469" height="40" viewBox="0 0 469 40" fill="none" xmlns="http://www.w3.org/2000/svg">
<path d="M5.59 4.34C5.59 5.57333 5.36667 6.51333 4.92 7.16C4.47333 7.8 3.83667 8.12 3.01 8.12C2.18333 8.12 1.54333 7.8 1.09 7.16C0.643333 6.52 0.42 5.58 0.42 4.34C0.42 3.1 0.643333 2.15667 1.09 1.51C1.54333 0.863333 2.18333 0.539999 3.01 0.539999C3.83667 0.539999 4.47333 0.863333 4.92 1.51C5.36667 2.15667 5.59 3.1 5.59 4.34ZM1.96 4.34C1.96 5.16667 2.04333 5.78333 2.21 6.19C2.38333 6.59 2.65 6.79 3.01 6.79C3.36333 6.79 3.62333 6.59 3.79 6.19C3.96333 5.78333 4.05 5.16667 4.05 4.34C4.05 3.50667 3.96333 2.88667 3.79 2.48C3.62333 2.07333 3.36333 1.87 3.01 1.87C2.65 1.87 2.38333 2.07333 2.21 2.48C2.04333 2.88 1.96 3.5 1.96 4.34ZM7.31586 8.14C7.08919 8.14 6.89586 8.05667 6.73586 7.89C6.57586 7.72333 6.49586 7.52333 6.49586 7.29C6.49586 7.05667 6.57586 6.85667 6.73586 6.69C6.89586 6.52333 7.08919 6.44 7.31586 6.44C7.54253 6.44 7.73919 6.52333 7.90586 6.69C8.07253 6.85667 8.15586 7.05667 8.15586 7.29C8.15586 7.52333 8.07253 7.72333 7.90586 7.89C7.74586 8.05667 7.54919 8.14 7.31586 8.14ZM9.51281 1.94L11.7528 0.67H12.8828V8H11.4128V2.27L9.51281 3.33V1.94ZM20.2287 4.34C20.2287 5.57333 20.0053 6.51333 19.5587 7.16C19.112 7.8 18.4753 8.12 17.6487 8.12C16.822 8.12 16.182 7.8 15.7287 7.16C15.282 6.52 15.0587 5.58 15.0587 4.34C15.0587 3.1 15.282 2.15667 15.7287 1.51C16.182 0.863333 16.822 0.539999 17.6487 0.539999C18.4753 0.539999 19.112 0.863333 19.5587 1.51C20.0053 2.15667 20.2287 3.1 20.2287 4.34ZM16.5987 4.34C16.5987 5.16667 16.682 5.78333 16.8487 6.19C17.022 6.59 17.2887 6.79 17.6487 6.79C18.002 6.79 18.262 6.59 18.4287 6.19C18.602 5.78333 18.6887 5.16667 18.6887 4.34C18.6887 3.50667 18.602 2.88667 18.4287 2.48C18.262 2.07333 18.002 1.87 17.6487 1.87C17.2887 1.87 17.022 2.07333 16.8487 2.48C16.682 2.88 16.5987 3.5 16.5987 4.34Z" fill="#515151"/>
<path d="M61.59 4.34C61.59 5.57333 61.3667 6.51333 60.92 7.16C60.4733 7.8 59.8367 8.12 59.01 8.12C58.1833 8.12 57.5433 7.8 57.09 7.16C56.6433 6.52 56.42 5.58 56.42 4.34C56.42 3.1 56.6433 2.15667 57.09 1.51C57.5433 0.863333 58.1833 0.539999 59.01 0.539999C59.8367 0.539999 60.4733 0.863333 60.92 1.51C61.3667 2.15667 61.59 3.1 61.59 4.34ZM57.96 4.34C57.96 5.16667 58.0433 5.78333 58.21 6.19C58.3833 6.59 58.65 6.79 59.01 6.79C59.3633 6.79 59.6233 6.59 59.79 6.19C59.9633 5.78333 60.05 5.16667 60.05 4.34C60.05 3.50667 59.9633 2.88667 59.79 2.48C59.6233 2.07333 59.3633 1.87 59.01 1.87C58.65 1.87 58.3833 2.07333 58.21 2.48C58.0433 2.88 57.96 3.5 57.96 4.34ZM63.3159 8.14C63.0892 8.14 62.8959 8.05667 62.7359 7.89C62.5759 7.72333 62.4959 7.52333 62.4959 7.29C62.4959 7.05667 62.5759 6.85667 62.7359 6.69C62.8959 6.52333 63.0892 6.44 63.3159 6.44C63.5425 6.44 63.7392 6.52333 63.9059 6.69C64.0725 6.85667 64.1559 7.05667 64.1559 7.29C64.1559 7.52333 64.0725 7.72333 63.9059 7.89C63.7459 8.05667 63.5492 8.14 63.3159 8.14ZM67.8428 3.24C68.2628 3.24 68.6461 3.34 68.9928 3.54C69.3395 3.74 69.6128 4.02 69.8128 4.38C70.0128 4.74 70.1128 5.15667 70.1128 5.63C70.1128 6.13667 69.9995 6.58 69.7728 6.96C69.5528 7.33333 69.2495 7.62 68.8628 7.82C68.4761 8.02 68.0495 8.12 67.5828 8.12C67.0295 8.12 66.5528 7.99333 66.1528 7.74C65.7528 7.48667 65.4661 7.10333 65.2928 6.59L66.4628 5.92C66.5495 6.22667 66.6861 6.45667 66.8728 6.61C67.0661 6.75667 67.2961 6.83 67.5628 6.83C67.7761 6.83 67.9595 6.78 68.1128 6.68C68.2728 6.57333 68.3895 6.43333 68.4628 6.26C68.5428 6.08667 68.5828 5.89333 68.5828 5.68C68.5828 5.46667 68.5428 5.27333 68.4628 5.1C68.3828 4.92 68.2628 4.77667 68.1028 4.67C67.9428 4.56333 67.7495 4.51 67.5228 4.51C67.0695 4.51 66.7195 4.72667 66.4728 5.16L65.4328 4.65L65.9328 0.67H69.7728V1.91H67.1528L66.9528 3.42C67.0861 3.36 67.2261 3.31667 67.3728 3.29C67.5195 3.25667 67.6761 3.24 67.8428 3.24ZM76.2287 4.34C76.2287 5.57333 76.0053 6.51333 75.5587 7.16C75.112 7.8 74.4753 8.12 73.6487 8.12C72.822 8.12 72.182 7.8 71.7287 7.16C71.282 6.52 71.0587 5.58 71.0587 4.34C71.0587 3.1 71.282 2.15667 71.7287 1.51C72.182 0.863333 72.822 0.539999 73.6487 0.539999C74.4753 0.539999 75.112 0.863333 75.5587 1.51C76.0053 2.15667 76.2287 3.1 76.2287 4.34ZM72.5987 4.34C72.5987 5.16667 72.682 5.78333 72.8487 6.19C73.022 6.59 73.2887 6.79 73.6487 6.79C74.002 6.79 74.262 6.59 74.4287 6.19C74.602 5.78333 74.6887 5.16667 74.6887 4.34C74.6887 3.50667 74.602 2.88667 74.4287 2.48C74.262 2.07333 74.002 1.87 73.6487 1.87C73.2887 1.87 73.022 2.07333 72.8487 2.48C72.682 2.88 72.5987 3.5 72.5987 4.34Z" fill="#515151"/>
<path d="M126.88 1.94L129.12 0.67H130.25V8H128.78V2.27L126.88 3.33V1.94ZM133.316 8.14C133.089 8.14 132.896 8.05667 132.736 7.89C132.576 7.72333 132.496 7.52333 132.496 7.29C132.496 7.05667 132.576 6.85667 132.736 6.69C132.896 6.52333 133.089 6.44 133.316 6.44C133.543 6.44 133.739 6.52333 133.906 6.69C134.073 6.85667 134.156 7.05667 134.156 7.29C134.156 7.52333 134.073 7.72333 133.906 7.89C133.746 8.05667 133.549 8.14 133.316 8.14ZM140.223 4.34C140.223 5.57333 139.999 6.51333 139.553 7.16C139.106 7.8 138.469 8.12 137.643 8.12C136.816 8.12 136.176 7.8 135.723 7.16C135.276 6.52 135.053 5.58 135.053 4.34C135.053 3.1 135.276 2.15667 135.723 1.51C136.176 0.863333 136.816 0.539999 137.643 0.539999C138.469 0.539999 139.106 0.863333 139.553 1.51C139.999 2.15667 140.223 3.1 140.223 4.34ZM136.593 4.34C136.593 5.16667 136.676 5.78333 136.843 6.19C137.016 6.59 137.283 6.79 137.643 6.79C137.996 6.79 138.256 6.59 138.423 6.19C138.596 5.78333 138.683 5.16667 138.683 4.34C138.683 3.50667 138.596 2.88667 138.423 2.48C138.256 2.07333 137.996 1.87 137.643 1.87C137.283 1.87 137.016 2.07333 136.843 2.48C136.676 2.88 136.593 3.5 136.593 4.34ZM146.229 4.34C146.229 5.57333 146.005 6.51333 145.559 7.16C145.112 7.8 144.475 8.12 143.649 8.12C142.822 8.12 142.182 7.8 141.729 7.16C141.282 6.52 141.059 5.58 141.059 4.34C141.059 3.1 141.282 2.15667 141.729 1.51C142.182 0.863333 142.822 0.539999 143.649 0.539999C144.475 0.539999 145.112 0.863333 145.559 1.51C146.005 2.15667 146.229 3.1 146.229 4.34ZM142.599 4.34C142.599 5.16667 142.682 5.78333 142.849 6.19C143.022 6.59 143.289 6.79 143.649 6.79C144.002 6.79 144.262 6.59 144.429 6.19C144.602 5.78333 144.689 5.16667 144.689 4.34C144.689 3.50667 144.602 2.88667 144.429 2.48C144.262 2.07333 144.002 1.87 143.649 1.87C143.289 1.87 143.022 2.07333 142.849 2.48C142.682 2.88 142.599 3.5 142.599 4.34Z" fill="#515151"/>
<path d="M196.88 1.94L199.12 0.67H200.25V8H198.78V2.27L196.88 3.33V1.94ZM203.316 8.14C203.089 8.14 202.896 8.05667 202.736 7.89C202.576 7.72333 202.496 7.52333 202.496 7.29C202.496 7.05667 202.576 6.85667 202.736 6.69C202.896 6.52333 203.089 6.44 203.316 6.44C203.543 6.44 203.739 6.52333 203.906 6.69C204.073 6.85667 204.156 7.05667 204.156 7.29C204.156 7.52333 204.073 7.72333 203.906 7.89C203.746 8.05667 203.549 8.14 203.316 8.14ZM207.843 3.24C208.263 3.24 208.646 3.34 208.993 3.54C209.339 3.74 209.613 4.02 209.813 4.38C210.013 4.74 210.113 5.15667 210.113 5.63C210.113 6.13667 209.999 6.58 209.773 6.96C209.553 7.33333 209.249 7.62 208.863 7.82C208.476 8.02 208.049 8.12 207.583 8.12C207.029 8.12 206.553 7.99333 206.153 7.74C205.753 7.48667 205.466 7.10333 205.293 6.59L206.463 5.92C206.549 6.22667 206.686 6.45667 206.873 6.61C207.066 6.75667 207.296 6.83 207.563 6.83C207.776 6.83 207.959 6.78 208.113 6.68C208.273 6.57333 208.389 6.43333 208.463 6.26C208.543 6.08667 208.583 5.89333 208.583 5.68C208.583 5.46667 208.543 5.27333 208.463 5.1C208.383 4.92 208.263 4.77667 208.103 4.67C207.943 4.56333 207.749 4.51 207.523 4.51C207.069 4.51 206.719 4.72667 206.473 5.16L205.433 4.65L205.933 0.67H209.773V1.91H207.153L206.953 3.42C207.086 3.36 207.226 3.31667 207.373 3.29C207.519 3.25667 207.676 3.24 207.843 3.24ZM216.229 4.34C216.229 5.57333 216.005 6.51333 215.559 7.16C215.112 7.8 214.475 8.12 213.649 8.12C212.822 8.12 212.182 7.8 211.729 7.16C211.282 6.52 211.059 5.58 211.059 4.34C211.059 3.1 211.282 2.15667 211.729 1.51C212.182 0.863333 212.822 0.539999 213.649 0.539999C214.475 0.539999 215.112 0.863333 215.559 1.51C216.005 2.15667 216.229 3.1 216.229 4.34ZM212.599 4.34C212.599 5.16667 212.682 5.78333 212.849 6.19C213.022 6.59 213.289 6.79 213.649 6.79C214.002 6.79 214.262 6.59 214.429 6.19C214.602 5.78333 214.689 5.16667 214.689 4.34C214.689 3.50667 214.602 2.88667 214.429 2.48C214.262 2.07333 214.002 1.87 213.649 1.87C213.289 1.87 213.022 2.07333 212.849 2.48C212.682 2.88 212.599 3.5 212.599 4.34Z" fill="#515151"/>
<path d="M268.61 6.73H271.54V8H266.49V7.06L268.7 4.58C269.08 4.16 269.343 3.82667 269.49 3.58C269.643 3.33333 269.72 3.08 269.72 2.82C269.72 2.53333 269.64 2.30333 269.48 2.13C269.32 1.95667 269.103 1.87 268.83 1.87C268.557 1.87 268.31 1.97333 268.09 2.18C267.877 2.38 267.713 2.66667 267.6 3.04L266.46 2.38C266.64 1.78667 266.953 1.33333 267.4 1.02C267.853 0.7 268.377 0.539999 268.97 0.539999C269.43 0.539999 269.833 0.636666 270.18 0.83C270.527 1.01667 270.79 1.27667 270.97 1.61C271.157 1.94333 271.25 2.32333 271.25 2.75C271.25 3.17 271.147 3.56333 270.94 3.93C270.74 4.29667 270.38 4.76667 269.86 5.34L268.61 6.73ZM273.316 8.14C273.089 8.14 272.896 8.05667 272.736 7.89C272.576 7.72333 272.496 7.52333 272.496 7.29C272.496 7.05667 272.576 6.85667 272.736 6.69C272.896 6.52333 273.089 6.44 273.316 6.44C273.543 6.44 273.739 6.52333 273.906 6.69C274.073 6.85667 274.156 7.05667 274.156 7.29C274.156 7.52333 274.073 7.72333 273.906 7.89C273.746 8.05667 273.549 8.14 273.316 8.14ZM280.223 4.34C280.223 5.57333 279.999 6.51333 279.553 7.16C279.106 7.8 278.469 8.12 277.643 8.12C276.816 8.12 276.176 7.8 275.723 7.16C275.276 6.52 275.053 5.58 275.053 4.34C275.053 3.1 275.276 2.15667 275.723 1.51C276.176 0.863333 276.816 0.539999 277.643 0.539999C278.469 0.539999 279.106 0.863333 279.553 1.51C279.999 2.15667 280.223 3.1 280.223 4.34ZM276.593 4.34C276.593 5.16667 276.676 5.78333 276.843 6.19C277.016 6.59 277.283 6.79 277.643 6.79C277.996 6.79 278.256 6.59 278.423 6.19C278.596 5.78333 278.683 5.16667 278.683 4.34C278.683 3.50667 278.596 2.88667 278.423 2.48C278.256 2.07333 277.996 1.87 277.643 1.87C277.283 1.87 277.016 2.07333 276.843 2.48C276.676 2.88 276.593 3.5 276.593 4.34ZM286.229 4.34C286.229 5.57333 286.005 6.51333 285.559 7.16C285.112 7.8 284.475 8.12 283.649 8.12C282.822 8.12 282.182 7.8 281.729 7.16C281.282 6.52 281.059 5.58 281.059 4.34C281.059 3.1 281.282 2.15667 281.729 1.51C282.182 0.863333 282.822 0.539999 283.649 0.539999C284.475 0.539999 285.112 0.863333 285.559 1.51C286.005 2.15667 286.229 3.1 286.229 4.34ZM282.599 4.34C282.599 5.16667 282.682 5.78333 282.849 6.19C283.022 6.59 283.289 6.79 283.649 6.79C284.002 6.79 284.262 6.59 284.429 6.19C284.602 5.78333 284.689 5.16667 284.689 4.34C284.689 3.50667 284.602 2.88667 284.429 2.48C284.262 2.07333 284.002 1.87 283.649 1.87C283.289 1.87 283.022 2.07333 282.849 2.48C282.682 2.88 282.599 3.5 282.599 4.34Z" fill="#515151"/>
<path d="M338.61 6.73H341.54V8H336.49V7.06L338.7 4.58C339.08 4.16 339.343 3.82667 339.49 3.58C339.643 3.33333 339.72 3.08 339.72 2.82C339.72 2.53333 339.64 2.30333 339.48 2.13C339.32 1.95667 339.103 1.87 338.83 1.87C338.557 1.87 338.31 1.97333 338.09 2.18C337.877 2.38 337.713 2.66667 337.6 3.04L336.46 2.38C336.64 1.78667 336.953 1.33333 337.4 1.02C337.853 0.7 338.377 0.539999 338.97 0.539999C339.43 0.539999 339.833 0.636666 340.18 0.83C340.527 1.01667 340.79 1.27667 340.97 1.61C341.157 1.94333 341.25 2.32333 341.25 2.75C341.25 3.17 341.147 3.56333 340.94 3.93C340.74 4.29667 340.38 4.76667 339.86 5.34L338.61 6.73ZM343.316 8.14C343.089 8.14 342.896 8.05667 342.736 7.89C342.576 7.72333 342.496 7.52333 342.496 7.29C342.496 7.05667 342.576 6.85667 342.736 6.69C342.896 6.52333 343.089 6.44 343.316 6.44C343.543 6.44 343.739 6.52333 343.906 6.69C344.073 6.85667 344.156 7.05667 344.156 7.29C344.156 7.52333 344.073 7.72333 343.906 7.89C343.746 8.05667 343.549 8.14 343.316 8.14ZM347.843 3.24C348.263 3.24 348.646 3.34 348.993 3.54C349.339 3.74 349.613 4.02 349.813 4.38C350.013 4.74 350.113 5.15667 350.113 5.63C350.113 6.13667 349.999 6.58 349.773 6.96C349.553 7.33333 349.249 7.62 348.863 7.82C348.476 8.02 348.049 8.12 347.583 8.12C347.029 8.12 346.553 7.99333 346.153 7.74C345.753 7.48667 345.466 7.10333 345.293 6.59L346.463 5.92C346.549 6.22667 346.686 6.45667 346.873 6.61C347.066 6.75667 347.296 6.83 347.563 6.83C347.776 6.83 347.959 6.78 348.113 6.68C348.273 6.57333 348.389 6.43333 348.463 6.26C348.543 6.08667 348.583 5.89333 348.583 5.68C348.583 5.46667 348.543 5.27333 348.463 5.1C348.383 4.92 348.263 4.77667 348.103 4.67C347.943 4.56333 347.749 4.51 347.523 4.51C347.069 4.51 346.719 4.72667 346.473 5.16L345.433 4.65L345.933 0.67H349.773V1.91H347.153L346.953 3.42C347.086 3.36 347.226 3.31667 347.373 3.29C347.519 3.25667 347.676 3.24 347.843 3.24ZM356.229 4.34C356.229 5.57333 356.005 6.51333 355.559 7.16C355.112 7.8 354.475 8.12 353.649 8.12C352.822 8.12 352.182 7.8 351.729 7.16C351.282 6.52 351.059 5.58 351.059 4.34C351.059 3.1 351.282 2.15667 351.729 1.51C352.182 0.863333 352.822 0.539999 353.649 0.539999C354.475 0.539999 355.112 0.863333 355.559 1.51C356.005 2.15667 356.229 3.1 356.229 4.34ZM352.599 4.34C352.599 5.16667 352.682 5.78333 352.849 6.19C353.022 6.59 353.289 6.79 353.649 6.79C354.002 6.79 354.262 6.59 354.429 6.19C354.602 5.78333 354.689 5.16667 354.689 4.34C354.689 3.50667 354.602 2.88667 354.429 2.48C354.262 2.07333 354.002 1.87 353.649 1.87C353.289 1.87 353.022 2.07333 352.849 2.48C352.682 2.88 352.599 3.5 352.599 4.34Z" fill="#515151"/>
<path d="M410.23 4.18C410.637 4.32667 410.947 4.55 411.16 4.85C411.373 5.15 411.48 5.52 411.48 5.96C411.48 6.41333 411.363 6.80333 411.13 7.13C410.903 7.45667 410.593 7.70333 410.2 7.87C409.813 8.03667 409.383 8.12 408.91 8.12C408.303 8.12 407.773 7.98 407.32 7.7C406.873 7.41333 406.557 6.99333 406.37 6.44L407.52 5.78C407.627 6.12 407.803 6.38 408.05 6.56C408.297 6.74 408.573 6.83 408.88 6.83C409.073 6.83 409.25 6.79333 409.41 6.72C409.57 6.64 409.697 6.52667 409.79 6.38C409.89 6.22667 409.94 6.05 409.94 5.85C409.94 5.51667 409.81 5.26667 409.55 5.1C409.297 4.92667 408.913 4.84 408.4 4.84H408.13V3.64H408.52C408.893 3.64 409.183 3.55 409.39 3.37C409.597 3.18333 409.7 2.95333 409.7 2.68C409.7 2.42 409.617 2.21667 409.45 2.07C409.283 1.91667 409.067 1.84 408.8 1.84C408.507 1.84 408.257 1.93333 408.05 2.12C407.843 2.30667 407.683 2.56667 407.57 2.9L406.47 2.27C406.643 1.71 406.947 1.28333 407.38 0.99C407.813 0.69 408.327 0.539999 408.92 0.539999C409.38 0.539999 409.787 0.626666 410.14 0.8C410.493 0.966666 410.763 1.20333 410.95 1.51C411.143 1.81667 411.24 2.17 411.24 2.57C411.24 2.93667 411.153 3.26 410.98 3.54C410.813 3.81333 410.563 4.02667 410.23 4.18ZM413.316 8.14C413.089 8.14 412.896 8.05667 412.736 7.89C412.576 7.72333 412.496 7.52333 412.496 7.29C412.496 7.05667 412.576 6.85667 412.736 6.69C412.896 6.52333 413.089 6.44 413.316 6.44C413.543 6.44 413.739 6.52333 413.906 6.69C414.073 6.85667 414.156 7.05667 414.156 7.29C414.156 7.52333 414.073 7.72333 413.906 7.89C413.746 8.05667 413.549 8.14 413.316 8.14ZM420.223 4.34C420.223 5.57333 419.999 6.51333 419.553 7.16C419.106 7.8 418.469 8.12 417.643 8.12C416.816 8.12 416.176 7.8 415.723 7.16C415.276 6.52 415.053 5.58 415.053 4.34C415.053 3.1 415.276 2.15667 415.723 1.51C416.176 0.863333 416.816 0.539999 417.643 0.539999C418.469 0.539999 419.106 0.863333 419.553 1.51C419.999 2.15667 420.223 3.1 420.223 4.34ZM416.593 4.34C416.593 5.16667 416.676 5.78333 416.843 6.19C417.016 6.59 417.283 6.79 417.643 6.79C417.996 6.79 418.256 6.59 418.423 6.19C418.596 5.78333 418.683 5.16667 418.683 4.34C418.683 3.50667 418.596 2.88667 418.423 2.48C418.256 2.07333 417.996 1.87 417.643 1.87C417.283 1.87 417.016 2.07333 416.843 2.48C416.676 2.88 416.593 3.5 416.593 4.34ZM426.229 4.34C426.229 5.57333 426.005 6.51333 425.559 7.16C425.112 7.8 424.475 8.12 423.649 8.12C422.822 8.12 422.182 7.8 421.729 7.16C421.282 6.52 421.059 5.58 421.059 4.34C421.059 3.1 421.282 2.15667 421.729 1.51C422.182 0.863333 422.822 0.539999 423.649 0.539999C424.475 0.539999 425.112 0.863333 425.559 1.51C426.005 2.15667 426.229 3.1 426.229 4.34ZM422.599 4.34C422.599 5.16667 422.682 5.78333 422.849 6.19C423.022 6.59 423.289 6.79 423.649 6.79C424.002 6.79 424.262 6.59 424.429 6.19C424.602 5.78333 424.689 5.16667 424.689 4.34C424.689 3.50667 424.602 2.88667 424.429 2.48C424.262 2.07333 424.002 1.87 423.649 1.87C423.289 1.87 423.022 2.07333 422.849 2.48C422.682 2.88 422.599 3.5 422.599 4.34Z" fill="#515151"/>
<path d="M452.23 4.18C452.637 4.32667 452.947 4.55 453.16 4.85C453.373 5.15 453.48 5.52 453.48 5.96C453.48 6.41333 453.363 6.80333 453.13 7.13C452.903 7.45667 452.593 7.70333 452.2 7.87C451.813 8.03667 451.383 8.12 450.91 8.12C450.303 8.12 449.773 7.98 449.32 7.7C448.873 7.41333 448.557 6.99333 448.37 6.44L449.52 5.78C449.627 6.12 449.803 6.38 450.05 6.56C450.297 6.74 450.573 6.83 450.88 6.83C451.073 6.83 451.25 6.79333 451.41 6.72C451.57 6.64 451.697 6.52667 451.79 6.38C451.89 6.22667 451.94 6.05 451.94 5.85C451.94 5.51667 451.81 5.26667 451.55 5.1C451.297 4.92667 450.913 4.84 450.4 4.84H450.13V3.64H450.52C450.893 3.64 451.183 3.55 451.39 3.37C451.597 3.18333 451.7 2.95333 451.7 2.68C451.7 2.42 451.617 2.21667 451.45 2.07C451.283 1.91667 451.067 1.84 450.8 1.84C450.507 1.84 450.257 1.93333 450.05 2.12C449.843 2.30667 449.683 2.56667 449.57 2.9L448.47 2.27C448.643 1.71 448.947 1.28333 449.38 0.99C449.813 0.69 450.327 0.539999 450.92 0.539999C451.38 0.539999 451.787 0.626666 452.14 0.8C452.493 0.966666 452.763 1.20333 452.95 1.51C453.143 1.81667 453.24 2.17 453.24 2.57C453.24 2.93667 453.153 3.26 452.98 3.54C452.813 3.81333 452.563 4.02667 452.23 4.18ZM455.316 8.14C455.089 8.14 454.896 8.05667 454.736 7.89C454.576 7.72333 454.496 7.52333 454.496 7.29C454.496 7.05667 454.576 6.85667 454.736 6.69C454.896 6.52333 455.089 6.44 455.316 6.44C455.543 6.44 455.739 6.52333 455.906 6.69C456.073 6.85667 456.156 7.05667 456.156 7.29C456.156 7.52333 456.073 7.72333 455.906 7.89C455.746 8.05667 455.549 8.14 455.316 8.14ZM460.863 4.18C461.269 4.32667 461.579 4.55 461.793 4.85C462.006 5.15 462.113 5.52 462.113 5.96C462.113 6.41333 461.996 6.80333 461.763 7.13C461.536 7.45667 461.226 7.70333 460.833 7.87C460.446 8.03667 460.016 8.12 459.543 8.12C458.936 8.12 458.406 7.98 457.953 7.7C457.506 7.41333 457.189 6.99333 457.003 6.44L458.153 5.78C458.259 6.12 458.436 6.38 458.683 6.56C458.929 6.74 459.206 6.83 459.513 6.83C459.706 6.83 459.883 6.79333 460.043 6.72C460.203 6.64 460.329 6.52667 460.423 6.38C460.523 6.22667 460.573 6.05 460.573 5.85C460.573 5.51667 460.443 5.26667 460.183 5.1C459.929 4.92667 459.546 4.84 459.033 4.84H458.763V3.64H459.153C459.526 3.64 459.816 3.55 460.023 3.37C460.229 3.18333 460.333 2.95333 460.333 2.68C460.333 2.42 460.249 2.21667 460.083 2.07C459.916 1.91667 459.699 1.84 459.433 1.84C459.139 1.84 458.889 1.93333 458.683 2.12C458.476 2.30667 458.316 2.56667 458.203 2.9L457.103 2.27C457.276 1.71 457.579 1.28333 458.013 0.99C458.446 0.69 458.959 0.539999 459.553 0.539999C460.013 0.539999 460.419 0.626666 460.773 0.8C461.126 0.966666 461.396 1.20333 461.583 1.51C461.776 1.81667 461.873 2.17 461.873 2.57C461.873 2.93667 461.786 3.26 461.613 3.54C461.446 3.81333 461.196 4.02667 460.863 4.18ZM468.229 4.34C468.229 5.57333 468.005 6.51333 467.559 7.16C467.112 7.8 466.475 8.12 465.649 8.12C464.822 8.12 464.182 7.8 463.729 7.16C463.282 6.52 463.059 5.58 463.059 4.34C463.059 3.1 463.282 2.15667 463.729 1.51C464.182 0.863333 464.822 0.539999 465.649 0.539999C466.475 0.539999 467.112 0.863333 467.559 1.51C468.005 2.15667 468.229 3.1 468.229 4.34ZM464.599 4.34C464.599 5.16667 464.682 5.78333 464.849 6.19C465.022 6.59 465.289 6.79 465.649 6.79C466.002 6.79 466.262 6.59 466.429 6.19C466.602 5.78333 466.689 5.16667 466.689 4.34C466.689 3.50667 466.602 2.88667 466.429 2.48C466.262 2.07333 466.002 1.87 465.649 1.87C465.289 1.87 465.022 2.07333 464.849 2.48C464.682 2.88 464.599 3.5 464.599 4.34Z" fill="#515151"/>
<rect x="9" y="39" width="17" height="460" transform="rotate(-90 9 39)" fill="#373737"/>
<rect x="10" y="39" width="16" height="458" transform="rotate(-90 10 39)" stroke="#515151" stroke-width="2"/>
<path d="M15 22V24H11V28H9V22H15Z" fill="#B3B3B3"/>
<path d="M15 40V38H11V34H9V40H15Z" fill="#B3B3B3"/>
<path d="M463 22V24H467V28H469V22H463Z" fill="#B3B3B3"/>
<path d="M463 40V38H467V34H469V40H463Z" fill="#B3B3B3"/>
<rect x="9" y="20" width="5" height="2" transform="rotate(-90 9 20)" fill="#515151"/>
<rect x="23" y="20" width="5" height="2" transform="rotate(-90 23 20)" fill="#515151"/>
<rect x="37" y="20" width="5" height="2" transform="rotate(-90 37 20)" fill="#515151"/>
<rect x="51" y="20" width="5" height="2" transform="rotate(-90 51 20)" fill="#515151"/>
<rect x="65" y="20" width="10" height="2" transform="rotate(-90 65 20)" fill="#515151"/>
<rect x="79" y="20" width="5" height="2" transform="rotate(-90 79 20)" fill="#515151"/>
<rect x="93" y="20" width="5" height="2" transform="rotate(-90 93 20)" fill="#515151"/>
<rect x="107" y="20" width="5" height="2" transform="rotate(-90 107 20)" fill="#515151"/>
<rect x="121" y="20" width="5" height="2" transform="rotate(-90 121 20)" fill="#515151"/>
<rect x="135" y="20" width="10" height="2" transform="rotate(-90 135 20)" fill="#515151"/>
<rect x="149" y="20" width="5" height="2" transform="rotate(-90 149 20)" fill="#515151"/>
<rect x="163" y="20" width="5" height="2" transform="rotate(-90 163 20)" fill="#515151"/>
<rect x="177" y="20" width="5" height="2" transform="rotate(-90 177 20)" fill="#515151"/>
<rect x="191" y="20" width="5" height="2" transform="rotate(-90 191 20)" fill="#515151"/>
<rect x="205" y="20" width="10" height="2" transform="rotate(-90 205 20)" fill="#515151"/>
<rect x="219" y="20" width="5" height="2" transform="rotate(-90 219 20)" fill="#515151"/>
<rect x="233" y="20" width="5" height="2" transform="rotate(-90 233 20)" fill="#515151"/>
<rect x="247" y="20" width="5" height="2" transform="rotate(-90 247 20)" fill="#515151"/>
<rect x="261" y="20" width="5" height="2" transform="rotate(-90 261 20)" fill="#515151"/>
<rect x="275" y="20" width="10" height="2" transform="rotate(-90 275 20)" fill="#515151"/>
<rect x="289" y="20" width="5" height="2" transform="rotate(-90 289 20)" fill="#515151"/>
<rect x="303" y="20" width="5" height="2" transform="rotate(-90 303 20)" fill="#515151"/>
<rect x="317" y="20" width="5" height="2" transform="rotate(-90 317 20)" fill="#515151"/>
<rect x="331" y="20" width="5" height="2" transform="rotate(-90 331 20)" fill="#515151"/>
<rect x="345" y="20" width="10" height="2" transform="rotate(-90 345 20)" fill="#515151"/>
<rect x="359" y="20" width="5" height="2" transform="rotate(-90 359 20)" fill="#515151"/>
<rect x="373" y="20" width="5" height="2" transform="rotate(-90 373 20)" fill="#515151"/>
<rect x="387" y="20" width="5" height="2" transform="rotate(-90 387 20)" fill="#515151"/>
<rect x="401" y="20" width="5" height="2" transform="rotate(-90 401 20)" fill="#515151"/>
<rect x="415" y="20" width="10" height="2" transform="rotate(-90 415 20)" fill="#515151"/>
<rect x="429" y="20" width="5" height="2" transform="rotate(-90 429 20)" fill="#515151"/>
<rect x="443" y="20" width="5" height="2" transform="rotate(-90 443 20)" fill="#515151"/>
<rect x="457" y="20" width="5" height="2" transform="rotate(-90 457 20)" fill="#515151"/>
<path d="M13 26H33L43 36H13V26Z" fill="#515151"/>
<path d="M39 26H59L69 36H49L39 26Z" fill="#515151"/>
<path d="M65 26H85L95 36H75L65 26Z" fill="#515151"/>
<path d="M91 26H111L121 36H101L91 26Z" fill="#515151"/>
<path d="M117 26H137L147 36H127L117 26Z" fill="#515151"/>
<path d="M143 26H163L173 36H153L143 26Z" fill="#515151"/>
<path d="M169 26H189L199 36H179L169 26Z" fill="#515151"/>
<path d="M195 26H215L225 36H205L195 26Z" fill="#515151"/>
<path d="M221 26H241L251 36H231L221 26Z" fill="#515151"/>
<path d="M247 26H267L277 36H257L247 26Z" fill="#515151"/>
<path d="M273 26H293L303 36H283L273 26Z" fill="#515151"/>
<path d="M299 26H319L329 36H309L299 26Z" fill="#515151"/>
<path d="M325 26H345L355 36H335L325 26Z" fill="#515151"/>
<path d="M351 26H371L381 36H361L351 26Z" fill="#515151"/>
<path d="M377 26H397L407 36H387L377 26Z" fill="#515151"/>
<path d="M403 26H423L433 36H413L403 26Z" fill="#515151"/>
<path d="M429 26H449L459 36H439L429 26Z" fill="#515151"/>
<path d="M455 26H465V36L455 26Z" fill="#515151"/>
</svg>
