<svg width="14" height="14" viewBox="0 0 14 14" fill="none" xmlns="http://www.w3.org/2000/svg">
<path d="M11.3614 2.29157C10.6629 1.5868 9.81504 1.04792 8.88039 0.714733C7.94574 0.381547 6.94818 0.262566 5.96139 0.366575C2.90305 0.674908 0.386387 3.15824 0.0447199 6.21658C-0.413613 10.2582 2.71139 13.6666 6.65305 13.6666C7.91148 13.6666 9.14407 13.3095 10.2076 12.6369C11.2712 11.9642 12.1221 11.0036 12.6614 9.86657C12.9281 9.30824 12.5281 8.66658 11.9114 8.66658C11.6031 8.66658 11.3114 8.83324 11.1781 9.10824C10.6942 10.1491 9.86669 10.9916 8.83465 11.4939C7.80262 11.9963 6.62906 12.1279 5.51139 11.8666C3.66139 11.4582 2.16972 9.94991 1.77805 8.09991C1.61341 7.36846 1.61532 6.60935 1.78363 5.87874C1.95194 5.14813 2.28236 4.4647 2.75043 3.87901C3.2185 3.29332 3.81226 2.82035 4.48778 2.49509C5.1633 2.16983 5.9033 2.0006 6.65305 1.99991C8.03639 1.99991 9.26972 2.57491 10.1697 3.48324L8.91139 4.74157C8.38639 5.26657 8.75305 6.16657 9.49472 6.16657H12.4864C12.9447 6.16657 13.3197 5.79157 13.3197 5.33324V2.34157C13.3197 1.59991 12.4197 1.22491 11.8947 1.74991L11.3614 2.29157Z" fill="white"/>
</svg>
