<svg width="40" height="40" viewBox="0 0 40 40" fill="none" xmlns="http://www.w3.org/2000/svg">
<path d="M35.8975 25C35.0996 27.5366 33.7001 29.8702 31.7852 31.7852C28.6596 34.9107 24.4202 36.667 20 36.667C17.8113 36.667 15.6442 36.235 13.6221 35.3975C11.6 34.5599 9.76246 33.3328 8.21484 31.7852C6.29984 29.8702 4.90042 27.5366 4.10254 25H35.8975ZM16.8164 26.667C17.4997 29.0502 18.6167 31.2667 20 33.2666C21.3833 31.2667 22.5003 29.0502 23.1836 26.667H16.8164ZM8.4668 26.667C10.074 29.4471 12.6309 31.5535 15.667 32.5996C14.6671 30.7497 13.9163 28.7502 13.333 26.667H8.4668ZM26.6172 26.667C26.0839 28.7502 25.3163 30.7497 24.3164 32.5996C27.3565 31.553 29.9185 29.4473 31.5332 26.667H26.6172ZM20 3.33301C22.1886 3.33301 24.3559 3.76406 26.3779 4.60156C28.4 5.43914 30.2375 6.6672 31.7852 8.21484C33.3328 9.76248 34.5609 11.6 35.3984 13.6221C35.5858 14.0744 35.7511 14.5345 35.8975 15H4.10059C6.22617 8.25636 12.5329 3.33303 20 3.33301ZM15.667 7.40039C12.6248 8.43577 10.0645 10.5448 8.4668 13.333H13.333C13.9163 11.2498 14.6671 9.25028 15.667 7.40039ZM20 6.7168C18.6167 8.71671 17.4997 10.9498 16.8164 13.333H23.1836C22.5003 10.9498 21.3833 8.71672 20 6.7168ZM24.3164 7.40039C25.3215 9.27713 26.0948 11.2692 26.6172 13.333H31.5332C29.9332 10.5665 27.383 8.45036 24.3164 7.40039Z" fill="white"/>
<path d="M5.058 16.748L6.584 21.326L8.012 16.748H9.636L11.148 21.27L12.576 16.748H14.466L11.82 23.986H10.434L8.782 19.576L7.2 23.986H5.8L3.056 16.748H5.058ZM16.5697 16.748L18.0957 21.326L19.5237 16.748H21.1477L22.6597 21.27L24.0877 16.748H25.9777L23.3317 23.986H21.9457L20.2937 19.576L18.7117 23.986H17.3117L14.5677 16.748H16.5697ZM28.0814 16.748L29.6074 21.326L31.0354 16.748H32.6594L34.1714 21.27L35.5994 16.748H37.4894L34.8434 23.986H33.4574L31.8054 19.576L30.2234 23.986H28.8234L26.0794 16.748H28.0814Z" fill="white"/>
</svg>
