<svg width="36" height="36" viewBox="0 0 36 36" fill="none" xmlns="http://www.w3.org/2000/svg">
<g clip-path="url(#clip0_1248_20211)">
<path d="M18 36C27.9411 36 36 27.9411 36 18C36 8.05894 27.9411 0 18 0C8.05894 0 0 8.05894 0 18C0 27.9411 8.05894 36 18 36ZM18 32.4C10.0471 32.4 3.6 25.9529 3.6 18C3.6 10.0471 10.0471 3.6 18 3.6C25.9529 3.6 32.4 10.0471 32.4 18C32.4 25.9529 25.9529 32.4 18 32.4Z" fill="white"/>
<path d="M13.68 13.68C13.68 9.36004 22.32 8.28004 21.96 12.96C21.96 16.2 16.2 17.64 16.2 21.24V23.76H19.8V22.32C19.8 19.08 25.92 18 25.92 12.6C25.2 4.68004 9.72 4.68004 9.72 13.68H13.68ZM16.2 25.2H19.8V28.8H16.2V25.2Z" fill="white"/>
</g>
<defs>
<clipPath id="clip0_1248_20211">
<rect width="36" height="36" fill="white"/>
</clipPath>
</defs>
</svg>
