<svg width="24" height="24" viewBox="0 0 24 24" fill="none" xmlns="http://www.w3.org/2000/svg">
<path d="M3.28516 13.5801H8.68359C9.09781 13.5801 9.43359 13.9159 9.43359 14.3301V18.3418C9.43344 18.8038 9.01953 19.156 8.56348 19.082L3.16504 18.2031C2.80217 18.1441 2.53524 17.8305 2.53516 17.4629V14.3301C2.53516 13.9159 2.87094 13.5801 3.28516 13.5801ZM8.56055 4.9541C9.01745 4.87813 9.43331 5.23026 9.43359 5.69336V9.66992C9.43359 10.0841 9.09781 10.4199 8.68359 10.4199H3.28516C2.87094 10.4199 2.53516 10.0841 2.53516 9.66992V6.5918C2.53516 6.22506 2.80035 5.91172 3.16211 5.85156L8.56055 4.9541ZM20.5918 3.03027C21.0487 2.95434 21.4647 3.30637 21.4648 3.76953V9.66992C21.4648 10.0841 21.1291 10.4199 20.7148 10.4199H13.7832C13.369 10.4199 13.0332 10.0841 13.0332 9.66992V4.92188C13.0332 4.55513 13.2984 4.24179 13.6602 4.18164L20.5918 3.03027Z" stroke="white" stroke-width="1.5"/>
<path d="M20.6943 13.264H13.8018C13.2495 13.264 12.8018 13.7118 12.8018 14.264V19.1772C12.8018 19.65 13.1329 20.0582 13.5956 20.1557L17.248 20.9253L20.4418 21.7589C21.0754 21.9243 21.6943 21.4462 21.6943 20.7913V15.4136V14.264C21.6943 13.7118 21.2466 13.264 20.6943 13.264Z" stroke="white" stroke-width="1.5" stroke-linecap="round"/>
</svg>
