<svg width="41" height="30" viewBox="0 0 41 30" fill="none" xmlns="http://www.w3.org/2000/svg">
<path d="M40.97 25.035C40.97 26.24 40.49 27.4 39.635 28.255C38.78 29.11 37.625 29.59 36.415 29.59H4.555C3.35 29.59 2.19 29.11 1.335 28.255C0.480001 27.4 0 26.245 0 25.035V4.555C0 3.35 0.480001 2.19 1.335 1.335C2.19 0.480001 3.345 0 4.555 0H36.415C37.62 0 38.78 0.480001 39.635 1.335C40.49 2.19 40.97 3.345 40.97 4.555V25.035Z" fill="#DE2910"/>
<path d="M14.1647 0.734999L14.9997 1.14L15.6697 0.494995L15.5447 1.415L16.3647 1.855L15.4497 2.02L15.2847 2.935L14.8447 2.115L13.9247 2.24L14.5697 1.57L14.1647 0.734999ZM19.4697 4.08L19.0647 4.915L19.7097 5.585L18.7897 5.46L18.3497 6.28L18.1847 5.365L17.2697 5.2L18.0897 4.76L17.9647 3.84L18.6347 4.485L19.4697 4.08ZM18.3847 8.38L18.6897 9.26L19.6197 9.28L18.8797 9.84L19.1497 10.73L18.3847 10.2L17.6197 10.73L17.8897 9.84L17.1497 9.28L18.0797 9.26L18.3847 8.38ZM14.1647 12.11L14.9997 12.515L15.6697 11.87L15.5447 12.79L16.3647 13.23L15.4497 13.395L15.2847 14.31L14.8447 13.49L13.9247 13.615L14.5697 12.945L14.1647 12.11ZM9.45969 2.98L10.5147 6.02L13.7297 6.085L11.1647 8.03L12.0947 11.11L9.45469 9.27L6.81469 11.11L7.74469 8.03L5.17969 6.085L8.39469 6.02L9.45969 2.98Z" fill="#FFDE02"/>
</svg>
