<?xml version="1.0" standalone="no"?>
<!DOCTYPE svg PUBLIC "-//W3C//DTD SVG 20010904//EN"
 "http://www.w3.org/TR/2001/REC-SVG-20010904/DTD/svg10.dtd">
<svg version="1.0" xmlns="http://www.w3.org/2000/svg"
 width="82.000000pt" height="59.000000pt" viewBox="0 0 82.000000 59.000000"
 preserveAspectRatio="xMidYMid meet">

<g transform="translate(0.000000,59.000000) scale(0.100000,-0.100000)"
fill="#000000" stroke="none">
<path d="M238 521 c-84 -53 -170 -185 -204 -313 -15 -58 -18 -126 -6 -145 10
-17 62 -25 62 -10 0 7 4 6 11 -3 10 -15 9 -7 -6 49 -9 30 22 146 57 220 39 82
129 175 178 186 51 11 56 16 29 31 -37 21 -71 16 -121 -15z"/>
<path d="M365 460 c30 -31 59 -39 71 -18 11 17 -34 48 -69 48 l-31 0 29 -30z"/>
<path d="M433 371 c-98 -74 -174 -143 -148 -134 17 6 18 5 7 -9 -10 -13 -10
-17 0 -21 10 -4 10 -6 1 -6 -7 -1 -13 -6 -13 -12 0 -8 5 -8 15 1 8 7 13 16 10
20 -4 7 14 28 25 29 20 0 40 16 36 27 -3 8 -2 13 2 11 12 -3 72 56 66 65 -3 5
-2 7 3 6 5 -2 26 16 47 40 21 23 36 42 33 42 -3 0 -41 -27 -84 -59z m-92 -124
c-10 -9 -11 -8 -5 6 3 10 9 15 12 12 3 -3 0 -11 -7 -18z m-21 9 c0 -3 -4 -8
-10 -11 -5 -3 -10 -1 -10 4 0 6 5 11 10 11 6 0 10 -2 10 -4z"/>
<path d="M710 404 c0 -3 5 -14 10 -24 16 -30 18 -81 4 -127 -14 -51 1 -64 28
-24 25 37 22 87 -7 138 -24 40 -35 52 -35 37z"/>
<path d="M495 330 c-18 -20 -18 -22 48 -85 36 -36 73 -65 82 -65 18 0 75 52
75 68 0 5 -17 13 -37 17 -42 7 -90 34 -118 65 -23 25 -27 25 -50 0z"/>
</g>
</svg>
