<svg width="67" height="24" viewBox="0 0 67 24" fill="none" xmlns="http://www.w3.org/2000/svg">
<g clip-path="url(#clip0_1326_17194)">
<path fill-rule="evenodd" clip-rule="evenodd" d="M21.6587 8.45134C21.5977 4.97986 19.8841 1.9132 17.2667 0H4.5952C1.98327 1.9132 0.269709 4.97986 0.203163 8.45134H6.74685V23.8956H15.1206V8.45134H21.6642H21.6587Z" fill="black"/>
<path fill-rule="evenodd" clip-rule="evenodd" d="M44.3953 8.45134C44.3287 4.97986 42.6151 1.9132 40.0032 0H27.3317C24.7198 1.9132 23.0063 4.97986 22.9397 8.45134H29.4834V23.8956H37.8571V8.45134H44.4008H44.3953Z" fill="black"/>
<path fill-rule="evenodd" clip-rule="evenodd" d="M53.6174 12.0675V12.0286C53.6174 10.8142 53.8281 9.63853 54.1997 8.55161H66.8656C66.7991 5.08013 65.0855 2.01347 62.468 0.0947266H49.7966C48.4823 1.05964 47.3954 2.31293 46.6301 3.76585C45.6873 5.31859 44.9443 8.43516 44.9443 12.0453C44.9443 15.6554 45.6873 18.7775 46.6301 20.3247C47.3954 21.7721 48.4823 23.0365 49.7966 23.9958H62.4736C65.0855 22.0771 66.7991 19.0104 66.8656 15.5389H54.1997C53.8281 14.452 53.6174 13.2819 53.6174 12.0675Z" fill="black"/>
</g>
<defs>
<clipPath id="clip0_1326_17194">
<rect width="67" height="24" fill="white"/>
</clipPath>
</defs>
</svg>
